<mxfile host="app.diagrams.net" modified="2021-04-26T13:04:03.839Z" agent="5.0 (Windows NT 10.0; Win64; x64) AppleWebKit/537.36 (KHTML, like Gecko) Chrome/90.0.4430.85 Safari/537.36" etag="bbN_yfzkb3RcJmFZXOYF" version="14.6.6" type="github">
  <diagram id="oWLnBZNhZBtAiftqGOIN" name="Page-1">
    <mxGraphModel dx="1240" dy="664" grid="1" gridSize="10" guides="1" tooltips="1" connect="1" arrows="1" fold="1" page="1" pageScale="1" pageWidth="827" pageHeight="1169" math="1" shadow="0">
      <root>
        <mxCell id="0" />
        <mxCell id="1" parent="0" />
        <mxCell id="-SHN1Gf6xoFTMC6ysf_a-1" value="&lt;font style=&quot;font-size: 24px&quot; face=&quot;Times New Roman&quot;&gt;&lt;b&gt;Mixture audio&lt;/b&gt;&lt;/font&gt;" style="text;html=1;strokeColor=none;fillColor=none;align=center;verticalAlign=middle;whiteSpace=wrap;rounded=0;" vertex="1" parent="1">
          <mxGeometry x="100" y="20" width="160" height="30" as="geometry" />
        </mxCell>
        <mxCell id="-SHN1Gf6xoFTMC6ysf_a-16" style="edgeStyle=orthogonalEdgeStyle;rounded=0;orthogonalLoop=1;jettySize=auto;html=1;exitX=1;exitY=0.25;exitDx=0;exitDy=0;entryX=0;entryY=0.5;entryDx=0;entryDy=0;" edge="1" parent="1" source="-SHN1Gf6xoFTMC6ysf_a-2" target="-SHN1Gf6xoFTMC6ysf_a-11">
          <mxGeometry relative="1" as="geometry" />
        </mxCell>
        <mxCell id="-SHN1Gf6xoFTMC6ysf_a-30" style="edgeStyle=orthogonalEdgeStyle;rounded=0;orthogonalLoop=1;jettySize=auto;html=1;exitX=1;exitY=0.75;exitDx=0;exitDy=0;entryX=0;entryY=0.5;entryDx=0;entryDy=0;" edge="1" parent="1" source="-SHN1Gf6xoFTMC6ysf_a-2" target="-SHN1Gf6xoFTMC6ysf_a-13">
          <mxGeometry relative="1" as="geometry" />
        </mxCell>
        <mxCell id="-SHN1Gf6xoFTMC6ysf_a-2" value="" style="rounded=1;whiteSpace=wrap;html=1;fillColor=#fff2cc;strokeColor=#d6b656;" vertex="1" parent="1">
          <mxGeometry x="110" y="102" width="120" height="90" as="geometry" />
        </mxCell>
        <mxCell id="-SHN1Gf6xoFTMC6ysf_a-4" value="&lt;font style=&quot;font-size: 18px&quot;&gt;$$T_{0}$$&lt;/font&gt;" style="text;html=1;strokeColor=none;fillColor=none;align=center;verticalAlign=middle;whiteSpace=wrap;rounded=0;" vertex="1" parent="1">
          <mxGeometry x="150" y="140" width="40" height="20" as="geometry" />
        </mxCell>
        <mxCell id="-SHN1Gf6xoFTMC6ysf_a-6" value="&lt;span style=&quot;font-size: 18px&quot;&gt;$$\cdots$$&lt;/span&gt;" style="rounded=1;whiteSpace=wrap;html=1;fillColor=#fff2cc;strokeColor=#d6b656;" vertex="1" parent="1">
          <mxGeometry x="110" y="192" width="120" height="60" as="geometry" />
        </mxCell>
        <mxCell id="-SHN1Gf6xoFTMC6ysf_a-8" value="&lt;font style=&quot;font-size: 18px&quot; face=&quot;Times New Roman&quot;&gt;Frequency&lt;/font&gt;" style="text;html=1;strokeColor=none;fillColor=none;align=center;verticalAlign=middle;whiteSpace=wrap;rounded=0;" vertex="1" parent="1">
          <mxGeometry x="100" y="65" width="160" height="30" as="geometry" />
        </mxCell>
        <mxCell id="-SHN1Gf6xoFTMC6ysf_a-9" value="&lt;font style=&quot;font-size: 18px&quot; face=&quot;Times New Roman&quot;&gt;Time Frame&lt;/font&gt;" style="text;html=1;strokeColor=none;fillColor=none;align=center;verticalAlign=middle;whiteSpace=wrap;rounded=0;rotation=90;" vertex="1" parent="1">
          <mxGeometry x="10" y="190" width="150" height="20" as="geometry" />
        </mxCell>
        <mxCell id="-SHN1Gf6xoFTMC6ysf_a-23" style="edgeStyle=orthogonalEdgeStyle;rounded=0;orthogonalLoop=1;jettySize=auto;html=1;exitX=1;exitY=0.5;exitDx=0;exitDy=0;entryX=0.5;entryY=0;entryDx=0;entryDy=0;" edge="1" parent="1" source="-SHN1Gf6xoFTMC6ysf_a-11" target="-SHN1Gf6xoFTMC6ysf_a-18">
          <mxGeometry relative="1" as="geometry" />
        </mxCell>
        <mxCell id="-SHN1Gf6xoFTMC6ysf_a-11" value="&lt;font style=&quot;font-size: 18px&quot;&gt;&lt;font face=&quot;Times New Roman&quot;&gt;Voice estimator&lt;/font&gt;&amp;nbsp;&lt;/font&gt;" style="rounded=1;whiteSpace=wrap;html=1;fillColor=#dae8fc;strokeColor=#6c8ebf;" vertex="1" parent="1">
          <mxGeometry x="280" y="104" width="180" height="40" as="geometry" />
        </mxCell>
        <mxCell id="-SHN1Gf6xoFTMC6ysf_a-19" style="edgeStyle=orthogonalEdgeStyle;rounded=0;orthogonalLoop=1;jettySize=auto;html=1;exitX=1;exitY=0.5;exitDx=0;exitDy=0;entryX=0;entryY=0.5;entryDx=0;entryDy=0;" edge="1" parent="1" source="-SHN1Gf6xoFTMC6ysf_a-13" target="-SHN1Gf6xoFTMC6ysf_a-18">
          <mxGeometry relative="1" as="geometry" />
        </mxCell>
        <mxCell id="-SHN1Gf6xoFTMC6ysf_a-13" value="&lt;font face=&quot;Times New Roman&quot;&gt;&lt;span style=&quot;font-size: 18px&quot;&gt;encoder&lt;/span&gt;&lt;/font&gt;" style="rounded=1;whiteSpace=wrap;html=1;fillColor=#d5e8d4;strokeColor=#82b366;" vertex="1" parent="1">
          <mxGeometry x="320" y="150" width="90" height="40" as="geometry" />
        </mxCell>
        <mxCell id="-SHN1Gf6xoFTMC6ysf_a-21" style="edgeStyle=orthogonalEdgeStyle;rounded=0;orthogonalLoop=1;jettySize=auto;html=1;exitX=1;exitY=0.5;exitDx=0;exitDy=0;entryX=0;entryY=0.5;entryDx=0;entryDy=0;" edge="1" parent="1" source="-SHN1Gf6xoFTMC6ysf_a-18" target="-SHN1Gf6xoFTMC6ysf_a-20">
          <mxGeometry relative="1" as="geometry" />
        </mxCell>
        <mxCell id="-SHN1Gf6xoFTMC6ysf_a-18" value="&lt;font face=&quot;Times New Roman&quot;&gt;&lt;span style=&quot;font-size: 18px&quot;&gt;TCN block&lt;/span&gt;&lt;/font&gt;" style="rounded=1;whiteSpace=wrap;html=1;fillColor=#d5e8d4;strokeColor=#82b366;" vertex="1" parent="1">
          <mxGeometry x="458" y="150" width="90" height="40" as="geometry" />
        </mxCell>
        <mxCell id="-SHN1Gf6xoFTMC6ysf_a-62" style="edgeStyle=orthogonalEdgeStyle;rounded=0;orthogonalLoop=1;jettySize=auto;html=1;exitX=1;exitY=0.5;exitDx=0;exitDy=0;" edge="1" parent="1" source="-SHN1Gf6xoFTMC6ysf_a-20">
          <mxGeometry relative="1" as="geometry">
            <mxPoint x="700" y="170" as="targetPoint" />
          </mxGeometry>
        </mxCell>
        <mxCell id="-SHN1Gf6xoFTMC6ysf_a-20" value="&lt;font face=&quot;Times New Roman&quot;&gt;&lt;span style=&quot;font-size: 18px&quot;&gt;decoder&lt;/span&gt;&lt;/font&gt;" style="rounded=1;whiteSpace=wrap;html=1;fillColor=#d5e8d4;strokeColor=#82b366;" vertex="1" parent="1">
          <mxGeometry x="584" y="150" width="90" height="40" as="geometry" />
        </mxCell>
        <mxCell id="-SHN1Gf6xoFTMC6ysf_a-27" style="edgeStyle=orthogonalEdgeStyle;rounded=0;orthogonalLoop=1;jettySize=auto;html=1;entryX=0.75;entryY=0;entryDx=0;entryDy=0;" edge="1" parent="1">
          <mxGeometry relative="1" as="geometry">
            <mxPoint x="537" y="130" as="sourcePoint" />
            <mxPoint x="536.5" y="150" as="targetPoint" />
          </mxGeometry>
        </mxCell>
        <mxCell id="-SHN1Gf6xoFTMC6ysf_a-31" value="&lt;span style=&quot;font-size: 18px&quot;&gt;$$T_{n}$$&lt;/span&gt;" style="rounded=1;whiteSpace=wrap;html=1;fillColor=#fff2cc;strokeColor=#d6b656;" vertex="1" parent="1">
          <mxGeometry x="110" y="252" width="120" height="90" as="geometry" />
        </mxCell>
        <mxCell id="-SHN1Gf6xoFTMC6ysf_a-32" style="edgeStyle=orthogonalEdgeStyle;rounded=0;orthogonalLoop=1;jettySize=auto;html=1;exitX=1;exitY=0.25;exitDx=0;exitDy=0;entryX=0;entryY=0.5;entryDx=0;entryDy=0;" edge="1" parent="1" target="-SHN1Gf6xoFTMC6ysf_a-35">
          <mxGeometry relative="1" as="geometry">
            <mxPoint x="230" y="276.5" as="sourcePoint" />
          </mxGeometry>
        </mxCell>
        <mxCell id="-SHN1Gf6xoFTMC6ysf_a-33" style="edgeStyle=orthogonalEdgeStyle;rounded=0;orthogonalLoop=1;jettySize=auto;html=1;exitX=1;exitY=0.75;exitDx=0;exitDy=0;entryX=0;entryY=0.5;entryDx=0;entryDy=0;" edge="1" parent="1" target="-SHN1Gf6xoFTMC6ysf_a-37">
          <mxGeometry relative="1" as="geometry">
            <mxPoint x="230" y="321.5" as="sourcePoint" />
          </mxGeometry>
        </mxCell>
        <mxCell id="-SHN1Gf6xoFTMC6ysf_a-34" style="edgeStyle=orthogonalEdgeStyle;rounded=0;orthogonalLoop=1;jettySize=auto;html=1;exitX=1;exitY=0.5;exitDx=0;exitDy=0;entryX=0.5;entryY=0;entryDx=0;entryDy=0;" edge="1" parent="1" source="-SHN1Gf6xoFTMC6ysf_a-35" target="-SHN1Gf6xoFTMC6ysf_a-39">
          <mxGeometry relative="1" as="geometry" />
        </mxCell>
        <mxCell id="-SHN1Gf6xoFTMC6ysf_a-35" value="&lt;font style=&quot;font-size: 18px&quot;&gt;&lt;font face=&quot;Times New Roman&quot;&gt;Voice estimator&lt;/font&gt;&amp;nbsp;&lt;/font&gt;" style="rounded=1;whiteSpace=wrap;html=1;fillColor=#dae8fc;strokeColor=#6c8ebf;" vertex="1" parent="1">
          <mxGeometry x="280" y="256" width="180" height="40" as="geometry" />
        </mxCell>
        <mxCell id="-SHN1Gf6xoFTMC6ysf_a-36" style="edgeStyle=orthogonalEdgeStyle;rounded=0;orthogonalLoop=1;jettySize=auto;html=1;exitX=1;exitY=0.5;exitDx=0;exitDy=0;entryX=0;entryY=0.5;entryDx=0;entryDy=0;" edge="1" parent="1" source="-SHN1Gf6xoFTMC6ysf_a-37" target="-SHN1Gf6xoFTMC6ysf_a-39">
          <mxGeometry relative="1" as="geometry" />
        </mxCell>
        <mxCell id="-SHN1Gf6xoFTMC6ysf_a-37" value="&lt;font face=&quot;Times New Roman&quot;&gt;&lt;span style=&quot;font-size: 18px&quot;&gt;encoder&lt;/span&gt;&lt;/font&gt;" style="rounded=1;whiteSpace=wrap;html=1;fillColor=#d5e8d4;strokeColor=#82b366;" vertex="1" parent="1">
          <mxGeometry x="320" y="302" width="90" height="40" as="geometry" />
        </mxCell>
        <mxCell id="-SHN1Gf6xoFTMC6ysf_a-38" style="edgeStyle=orthogonalEdgeStyle;rounded=0;orthogonalLoop=1;jettySize=auto;html=1;exitX=1;exitY=0.5;exitDx=0;exitDy=0;entryX=0;entryY=0.5;entryDx=0;entryDy=0;" edge="1" parent="1" source="-SHN1Gf6xoFTMC6ysf_a-39" target="-SHN1Gf6xoFTMC6ysf_a-41">
          <mxGeometry relative="1" as="geometry" />
        </mxCell>
        <mxCell id="-SHN1Gf6xoFTMC6ysf_a-39" value="&lt;font face=&quot;Times New Roman&quot;&gt;&lt;span style=&quot;font-size: 18px&quot;&gt;TCN block&lt;/span&gt;&lt;/font&gt;" style="rounded=1;whiteSpace=wrap;html=1;fillColor=#d5e8d4;strokeColor=#82b366;" vertex="1" parent="1">
          <mxGeometry x="458" y="302" width="90" height="40" as="geometry" />
        </mxCell>
        <mxCell id="-SHN1Gf6xoFTMC6ysf_a-63" style="edgeStyle=orthogonalEdgeStyle;rounded=0;orthogonalLoop=1;jettySize=auto;html=1;exitX=1;exitY=0.5;exitDx=0;exitDy=0;" edge="1" parent="1" source="-SHN1Gf6xoFTMC6ysf_a-41">
          <mxGeometry relative="1" as="geometry">
            <mxPoint x="700" y="322" as="targetPoint" />
          </mxGeometry>
        </mxCell>
        <mxCell id="-SHN1Gf6xoFTMC6ysf_a-41" value="&lt;font face=&quot;Times New Roman&quot;&gt;&lt;span style=&quot;font-size: 18px&quot;&gt;decoder&lt;/span&gt;&lt;/font&gt;" style="rounded=1;whiteSpace=wrap;html=1;fillColor=#d5e8d4;strokeColor=#82b366;" vertex="1" parent="1">
          <mxGeometry x="584" y="302" width="90" height="40" as="geometry" />
        </mxCell>
        <mxCell id="-SHN1Gf6xoFTMC6ysf_a-45" value="&lt;font style=&quot;font-size: 14px&quot;&gt;$$V_{0}$$&lt;/font&gt;" style="text;html=1;strokeColor=none;fillColor=none;align=center;verticalAlign=middle;whiteSpace=wrap;rounded=0;" vertex="1" parent="1">
          <mxGeometry x="470" y="102" width="40" height="20" as="geometry" />
        </mxCell>
        <mxCell id="-SHN1Gf6xoFTMC6ysf_a-46" value="&lt;font style=&quot;font-size: 14px&quot;&gt;$$V_{n}$$&lt;/font&gt;" style="text;html=1;strokeColor=none;fillColor=none;align=center;verticalAlign=middle;whiteSpace=wrap;rounded=0;" vertex="1" parent="1">
          <mxGeometry x="470" y="252" width="40" height="20" as="geometry" />
        </mxCell>
        <mxCell id="-SHN1Gf6xoFTMC6ysf_a-48" value="" style="shape=image;verticalLabelPosition=bottom;labelBackgroundColor=#ffffff;verticalAlign=top;aspect=fixed;imageAspect=0;image=data:image/png,iVBORw0KGgoAAAANSUhEUgAAADEAAAAtCAYAAAAHiIP8AAAZNUlEQVRoBdWZZ3OUZ7au/Rfm0z7nTNh7PA6AMRkTlAMIG3swYGwwORkQIIIEyq1upY5SS63OuaUO6qBuJYTIIKGMIhKSAEkEg7PHM3X25+vU29gWdWr+wP5wV1d1qH6u515rPWs97xsxMTHDb7zxBv9T9ev630A5sYHKR5v4yrCcFYl/Yt3aBaxd9yZxMW8Tv24BaYlLObwzhQuH/4429xh+RR63LXJG3GqmAhpmQjqeNpl51mrjeauDry+5+PZqHd/f8PHPzgj/t7uJn+808POdMD92NPD9LT/f3/Dzst3Dk2YHj8IWxjw1dBulNMtzqMjYz7HPkjm280M+3xRH3Kp3iVm3kPikZSxb+SbvLPojn+zeQGbV6d82/w0qJj5EOpbKhlN/JnnjKlJSl7Nu/ZskrH2bjWvfY/+OFEqyDxIyS7nX7Gas1ctkay0PG63MNVl53mThxSUHLy47eXm5lm/a6/j+upd/dDbw330t/HdfK790NfNLVys/3w3z3Z16vrvl45urnijwdMDAkLOSu4ZS2pQFVJ4+wNldm8k58gUnPv+Ij9YvYeXCP7NyyZssXPR/eHvhH1mybgFZFWfnIQQnysdT+TjrTeKSlpCYtJTkhIV8lLKUL7bEkXNqJ7WaQjoazIy3upkI25gK23kUsfO0xcnXbbW8vOLm5ZVavhZA2mv5/qaPn7sa+Fd/C//qb+WX7gg/3w3x4x3BBS/fXfPwTbub58JmBM1MePX0WZQ0y/OwF5zBI8snoClDkrGfzzd+QMLqd4hZvZDly//G39753yxZ9S4bP0uYh1CMp6J8mMKe8oWsjXuL9esXkJq4iN07kjh1ZCvywuNcqlMx3FbH/SYno349D4JGHoVNzDZZedpi50Wbk2+u1PKi3cWL9lq+u+Hll+4w/+xr5l+CE92N/NgR4OeOAD/crOdlex0vWl08a3IyE7LxKGRlst7IUJ2WwXoLY80eukN29MXnObAlnrTY94lZtYCVKxaweMl/8taC/8WymHdeg5hIRfVoA1+WLmTF6v9k9cq/kbZhCft2pnD2+A70iiyuelUMhE1MROxMBM1MBgzMRmxRzUUsPG+x8eKyK+rGt9c8/HDLxy89Yf7Z28wvPYIa+akzyE+3A/xwvT4aci9aXDwL23gSsjEbsvEk7ORpi4fZS37Gm9z0NzjwqAvJ2PMRn25YRcK691ix7G2Wr3iLJcveZHXMgnmIiulNFA8nkpz+R5avfJOYtQtITlzE1k/WcHz/R1gqL3DVI6PPr+FBg5UHAoTfzOOQnScRR3QhL5ocvLxUiwAgJLQA8bOw6K6GqH7oCPDdTS/fXvfwjZA3rU5eNL/67ZMGK3MhO3NhJ7NhJ9MNTsbDdQyFnTQZypFk7GbPlnhS45awbu0ili97i9WrF7FqzWtOyKY3UtybQurB/yJWCKXkJcTGLSA1aRFf7U7GoT7LJaeEHl8FE0EDD/wGpvxGZhqsPGu087zRxstWF99deRXr31338POdAP/oCEbzQHDgh9v1/HhLCCMnT5ssfN1k5VnEwtOwJboRsxEHsxEnjxuEXHNwP+zkXsBOu6UCxYXD7N+ayIb4JcStW8yqFQLEQpYtf3PeCcVUKrlt8cRv+zMJ6xeSkrSYuPiFpCa9x4l9KdhUGbQ6xFGI8aCBhxE7DxtszIQdfN1ax8u2Or657OXHG0F+vBHghxs+frzl46eOAD/dDUaTWQAT3v/+uo+XVzy8aKvjabODJ40O5hqdzDW5mG1y8bjRwcOIg9GgjR6vmTazirIz+znwaQKbk1cRu2YRq1e9zeoPFrJy1VuvQUxv4OKlGOI/+xMJMYtISXqf2PgFbEx5n5MH0nCoz9NiE9HrUTLRaGa61cXDJgePIw6ettTyos3Nt1d8/HQrxD8E3Q7yc0eQnwR1ChUpEM0F4f1fOiP8oyPCN1e8PLtUy1yzk5lGB7MtLh63uHjU7GAq4mDQZ6bDqeWSWUnZmX3s+ySWrWnrSFi/OBpSH3zw/zkhm06jqCue5H1/Yf3ad0lOWkxsvODIIk4dSsNZdZ4mSyF3PQqGAjUM+Grod6sZ8VbzIFDDdEjPXJOFZ5fsvLxcx3fXfPx4O8R31/18fzPwu3644eebdg+zTfZoVZtttjLdYGTCr2XMX8OIv5qJiJHxsI0et57rlkraTEo0+Sc5sCWRTzeuISVuGeuFvFj+FstXvD3vhHIyiaKeODYc+Stx6xe+yomE94iPfZszJzZj12cSshfQZC3CXnISWfo2ig9+TPnhT5Ef244240vqxSe5a5Qw4VXzKKznccTE44iRuWYLc01mpoJa+q1ltJafRZv+GaqjWzCc34/m3F6kx7ZTkbET3cV9eErP0uPVcteno92uijphL7nIka0pbIp7n+SYpcSsWsjKZe+wctXC1yAmkpCPbmRbwbvExP8XKQnvsW7t28St/xvZZ7djN13AojlDUcY2LuzZwNkdCWR9kcKpT2LZn7CU3TGLOJS4mPL9H9JUmkGntpBRp4JJbxXT/hpGXUr6zaWERcdQHtjMqbRV7Fv3LvtiFnF801rObktCcmhrVNk7N1J24nNCWjGXa9W02FS4lSLO7v6ETTGLohBxaxazds0i1qx9fx5CMZZCxeRGjrtXsvbD/yA+dgErV/6FpNh3kIqPYDFkknv27+Qe+Yha8WmuaSR0msro0IlpV16gXvQVmmNbUR/aguXkTlpLTkchZhsMzIVNjDmVXFNk4cs+gPXMLlwXD+LN+4qW8kw6dBIGbAoGnRV0m2SEy7IoO7wV0ZHtuFS5hAxl1FeXID65j4/jl7IhdgkJ65fywZqFrPtgyTyEfDQF6UQyJQNpbE5/hw/W/o2Vq/7Clo9Woqs8T4XsK3LSN2MtSqe9SsxVZT43lTl0q/PpUOfQWnqKQN5hwuIThMXpNJdmMOiURw8+oRUZ96m5WZ3HFWUWN7T5tFdeoLHkJFcUZ+nW5NGtzedmxUVuqwvo0kmj/ZP+wlGqs7/CrcqnQS+juvAMOzatY1PCUuJjlrJ27UJiXoeQjaUgvZ+K+vGHfKVdyurYPxEXu5jD+9KwGbJRlx+mumA/7uLTmDIPYDizF9mBrZzdmszp7alkfZ6G8vA2jOk7iBSn06Y4z/XKi8w1GvmmzcGwS0anrpA+axntikxsJ7/AemwnlXu3IN3zMeW7N6M7tgtrxiFsGUeJFF8kJL1AXckZgtUiWh1VONXFHN7xIWnxy4hZt4T4uMWsXf/evBPS0VSkoymopjeQ6VvDmtQ/kpq6gjMnt1FrycelPY9XmYEley/5u1LJ3JFExp5PSE1cy5Jli/li2xZqK0qxZR+lqfgk19U5tMnOMeWr5kmDgU5NAXdqCpjwV9NWepraU7toVxdTdPIIq5ctZcnChexITuL8Z5+Qt/1DtCd2E5FlccUgoc1STpujCp9OSvruLSTFLiEudikbkpYSG790HqJ8NIXykWQqpjdyxr+GVRv/g7QNS8nM2I7bWkijs4h2YwGO/IPI07ejOL4DZ34GNVknkJ87Rl1pHjc0pXRoRXSbRFxXX+RaRTYP63VMuau5oy7gVlUuox4VA9YSejRFdOvLiChFyDJOUHDwAMr040gP7qby6C6s5w/RrMpmoF5DR52adqeagFHBid0fkxq/lLi494ldv4i45OXzELKxVOT3BSfSOOZdSsKuv7Jxw2IunNmBzyHmqq+c7lop1w0FXDVLuFpTyBXZOToqs7mryee28iJ3pJkMG4rpM4ppLj/NgE3K46CJKbeWTo2YG+pcei0l3K9XM2pX0aMqoktVSJ+2mI7KfG4ocmmX5XFTU8odk5Qehzx6ZvT7dVxzVhGxVnBq/xY2JCwhKWkF8TFLOHloyzyEYigV2WgC0skULjYksHnfu6Rteo/ci7sJe+R0BqsZ8qsZrVcz5tcxFqhhMqzjYUQfTdo+Uwm9xlJGbHI6qwtolZ1lIqBhLmxjut5Cp0nO1coCBqxSRpxK7gnDlUnKiFXBlFfDlE/DpEfNpLuaCZ+WsXodE34d0xErg34DN13VtDjVnDu2g4S499mcto7sg59hyEyfhygbSUQ2loRqeDOSmo/YlrKQbR+vQFJ8mEafgrshLWMtQhuu5VGTmcctVmZahcHIEF3s/foqHgS1jNSpuKsTc1Wdy0RQw7NGG3MRB3fNCq6pi+jSlzJeJ5wdOqbqtUx4qpn01fA4ZGS2wcRcyIjQ1j9pcb4aW5sdDAVNXHepaXZUkJOxm9SEpRzf9QkVp/eT9VHiPIRkNIny0VTUfVsQZSVwaMV77N28ipLivYR9pXQFtDxocfK40c5syMxMUM9c2Mhcg/DnBmZDhuhCxt1VdOlLuKUVM+7XMCe8HzDSa1VyW1dKr0XBqLuKWaF7bbEzGzYzEzLyJGxmNmhgLmh41RVfcvOszcPMpToGAnrarDJC5nKKsg6w8+8x5B7ajv7UQWpPHJyHKB9OQzKchGogDWf1Z2g+/ZiMtLUoiw7grxVx06NiPGiKTl9zfhOz7hqe1ht4FjQyF9QzU6/nsV/PQ5+WHkM5/c5KpoWDLqDjSdDAfY+W29pSeqxKxtzV0V1/ecnFi2Y7X0csvAhbeR4w83XAzLMGW3SmEDraqSYHXW41Yb0Er05Med5Rjn2xkarMw9y1VHC5IPt1iGRKhxMoG0vA33iIa5lnsB3dibbkBE5bLpfsIgZcCkZcVUx7tcwIqtfystHC8wZjdMcfBXWMe6u4ay5jPKjnSaON71od/Nhey9Mm4ayooduqYsKnYy5oRBiiXg1GVl5GrHwbtvPMZ2CmVtgUKxN+EwNuDTdMMgLqAmzKi+iVF1DlncSdn8FEfQ0dVbLXIRIpH06k5H4c1pufc112jluFF7HI0zHrz9BgyOaWuYR79spoHD+sfxUqzyImnkUMzAZ1PApoGalVcEtbyGCtMgr2zxtCW97IhEfHoFVFt1HOqKuauZDwOwsvhdlcGGubXoE8E6bFWj2PvCbu1xu466ygtUaCW5GDrvwcFk0+LbVVtFcU8CJoYqxW9xrEUAJlw4mUDscjH9hAwH2EDlURdYpTmDQnqK+5wFVzMX0OJaN1FUz5a5gJG5ht0PMkouNZxMjTBgMdFbnoD23DlbGfQV0xD+wV9OmkNOafxJW+m9D5dO7KxTwPCWFj4utGKy+abTxvtPC0wcSMT890nZZxt45BTw03LXIi1SIciovo5JnYawpp0BVxz63hSdjOZN1rEGVD8fymopE4qjq30V5XQKQyH5P6OAHtBdp0BdyyFjPkrOCBr5rpkI6HDVrmmvQ8azTxNKCnXXQK3Rcfc2TZ26iP7KCt7ALeU/s5sOSvbH/nz2g+205Txglm3DpeNFh4HjbxJPyqODyq1zLtrWGyTsuoS0OXRcFVXQmNNWIs8kxqpOdxa8WMtTp40RnhfoOH27WV806UDiYhqGwwCclQPCWDKYQuX+SyuRRTxbFoOF01FdFpK2ewTs2EMAhFZwY9M7868TxooF18muZzhwik70O+PY3qvdvQ7d+B6egeQlmnuHw2nYYTB5iyV/FN2MHzkImn0eJgjObalKeG8Tot9xxqOswyrpukhGskmOUX0Msyaa+r5kVPG9NXPAwF3IQaxfMQZYMpvFIq5YOJFI8k4uw6R9irRK8+TdCYzU1LKT1OJUP1aiYatDxsMjLTZGC2USi3QiXSM+5QcFeaw6BCzISpggFtOUMmBdMuLeNaBXcLs+mTi3no0vLMb+FZ0MwTASJk4oFXy7TfyP16PQNCgXBVcNOmIFRTjFWVh6Uyj4hdSrOllPsRF1ddarRXDv97iLLBZIqHY9F27iboLcOhysSvz+KmXUGPt5LhUDVTzSYetph5JEA0G5iJCOeBjoc+DVMeoV8yMhuw8EQ4U+r1PPToGLdrGLfpeFxrYqbOwJxXADdG5w3hgJtptPEwYuVB2M5gwEyXUJlscoI1YmyV+RhVOTRYyjDmZ3DdqMXty6S8b/M8ROm9ZH5T8UAy4sFEyrs3UKPfi7noBN7qTK7ayugOqBlt1jPZYuLhJQszbRZmWvQ8CuuY9GsYr6tkxK5i2FHJdL2wwzYmXDXRajPh1DJqrWbcVs20Q8PDOh0zfgNPmizMNdt41GxnWrhcbhJuOkx0u6u5alFQXy3Gqs6jqvgkPsVFrhtEuO0nqejYRtFg7DxEyUASUfUnUtKXhOReIpLBFEraNyA3bMdZeYZWo4gOt5ShUBUTzUYmm408ajUz3WiI9k/DLjn3hJyxljPiUDIbMDMbsjPpNfLQa2KyVseQVcWQRcG4rYJxp5oHHi2Pw+YoxHSTnalLLqZaXQwHTXTVVtFmlONVi7Go8tGYj6Ns3Iri8iZkvR9SNJyIpD9+HkJwQYAoFiAEDSZQPJCEUKkkTRswVBwlosvnpr2UPq+K0bCO8QZ9FGCsvopeSyldBgn3LFLGHCru2yuYsFYy4zEz4dIxpFcyZqpk3KHhQa2WMWc1g7aK6E34fU9N9Gp/KmLlfqON0UYHwyETnXWVtBjL8VSJMcpzqHQfoeheCvlD6ykaiKN0QIB47UL5NycEiOKBBIrvxSEWvjSURFF7CqqaL6mvyqFFX0CHQ8agX8NwfTXjoRqG3Eq6jRJuV4u4WSnikug8/vRDeA/uJXjkIIGjh/Ht30/w0CFazpziVmkR/aYqxur0jHm03BdKa8jIZIOR+w1mhhvM9Pv03HJV0KQvo7aiAI3sHOqGA9E1ifrjEffFU9yXgKTv9QawLwFxb/wrDcQiGYinSHBiKIGizmRKDVupU14gpHlVpfo8avrdSoZ9KkZ9Kjq1Rdgy9lH4cSKStGQMW7fi2v451g+3Ytzwdzyf7iT85SF8X+zFvH0nhi/3EMjMoENTzJivKtosjof0jDWYGQwauOvWcM2uJCycEdIsZOUnqWj7EtFgDKLeeIp646JrlfS9Fk6/hZLghKQ/DklvHEX98YgG4igajKOwbhNa6TFCVTm0akTcscvo91Uw4JEz4lPSby+nXZFDfe4pIufP0H4ig1vHztKXkcPAuXxGMkUMZYm4lyNmqFxJV3k5HTIJPbpSJuqro237WEjLcMBAt7uK62YZrfpSvBX5VBWeRlqejurqbgrvxSLuTUTcK2z6v3FC8qs94v44xH2xSIQv9sVH6QuvpCBRbqFOepawModWbQGdLin9PgXDfqHD1TDgUNKhK6dbXU5fWTHdhfn0FuTRLypksEjEmKycaYOGhy4TUx4L47VaJoVQCmt5ENYwGqym11XJdVMZLZoiAoo8DCWZlGV9hUp2BuWVfQihJOlLRiIUn1/167PGN+ZDSQipgTjEQm70JkVV1J8Upc51JqCS7CMgv0BjVTbthkI6nWUM+isZ9lVwz6Wky1jGFUUut5T59FQX06UspFOaR7+6mEG9lCGLkiGnmiGnhnGvgfF6PSM+NcP1lfS5ldy2lHNZK6GxSkRt2UUUuccpPncIXeUFlO17KOiPoSjqwL+BEFwQcqK4L5HiPmHRSRT1J1DUn0hhfyIF92IpvB5HftlHWMWnCaou0KzJ44ZZQk+dnP5aOb32crospdyozOOWMpcuTRG91UX0qAoY0JYwKIykxjL6jVL6zXKGhQrlVNNjk9HjktPlknHDXEprtQifLBtd4WkKzu5FmpuOXS+i4soe8vrWIoqGkhBSr/S7E79BCIlSHN35ZER9iRQMJFDYF0ehsAMdcWRKk5Fn7aNOfpbG6lxuWCR01cmiIL1OKd1mCR0a4SIsm9tVedwzlDBmkjHpquSBu4oRm4xenYQujZgeXRm9xjJ6rOX0OGXRqnfVWEqkugBr8XlKTu+n4OwBzPICvNYyVO27yetbQ2FPHKLuef0O8Xtl6o1HIhD2JVDUG4OoJx5RTwKi/hhEnYkUVm6m4MSnqHL24VdlcllXQKdTGr3y7/coGRTKr7U8ekk2aJczUVvFjNfA03ozc8Lh12Bh0q9l2Klk0K6g11pGr11wQsUtm5xLWmF2uEDZ+UPkHtuFRpxJRCsn6ChDdmUvOf3rKehdj6g7BlF3bFS/Qwhx9htIUV8sot4kJD2p0ev+IiHMRuIo7k9Gpt+B7Mwe8o58gib7AAFlFpd0hdy2lzEgjLD+ah7Ua5gS+qiQnimvnrl6My+ER1n1whxtiT7jmw4amazXM+qppr+2kltmKe3GMvyqPCqzj5B1ZAey3OP4a0q5ZqghbFegvLKXPGEzhcrZE/+75iF6hA9+UzzirkRK7yYjHoglpz+G042rOVi5nArVIeyS85Sm7yB73ybUF/fjKssgrLrIHXMpIx41973qaN0XLgRGnFVM1+qY85iineyD2hru19Vw36Njwic8Ka3mjuWVA15FDuqLR8k5+BklZ47hUUu4Yq3gpsNEg1VOdfN+iu7FUtCzDlFPHGIhpHri5tsOIe5f0SVEX0VdieT3xnO8aTX7Mj9gT9wHbFu6BG3hSYKaAsxFGRQe/pTzu1KjQFXn9xGUZXJNJ6bbIqXPrqDPIqffKOeeXs6QTsa9GikDehl9JuEzFT0WJbdNUkLKXMwFp5BlHCDrwFZKTh2kTinimlVNV52Jbq8Ov7qEXV8kc162Bdm17dENz++JJ7/rV4g//OEP//jVkt+o/ke9Cuv/f7Q3Dlq7dpkoAAAAAElFTkSuQmCC;" vertex="1" parent="1">
          <mxGeometry x="495.5" y="65" width="49" height="45" as="geometry" />
        </mxCell>
        <mxCell id="-SHN1Gf6xoFTMC6ysf_a-49" value="" style="shape=image;verticalLabelPosition=bottom;labelBackgroundColor=#ffffff;verticalAlign=top;aspect=fixed;imageAspect=0;image=data:image/png,iVBORw0KGgoAAAANSUhEUgAAADEAAAAtCAYAAAAHiIP8AAAZNUlEQVRoBdWZZ3OUZ7au/Rfm0z7nTNh7PA6AMRkTlAMIG3swYGwwORkQIIIEyq1upY5SS63OuaUO6qBuJYTIIKGMIhKSAEkEg7PHM3X25+vU29gWdWr+wP5wV1d1qH6u515rPWs97xsxMTHDb7zxBv9T9ev630A5sYHKR5v4yrCcFYl/Yt3aBaxd9yZxMW8Tv24BaYlLObwzhQuH/4429xh+RR63LXJG3GqmAhpmQjqeNpl51mrjeauDry+5+PZqHd/f8PHPzgj/t7uJn+808POdMD92NPD9LT/f3/Dzst3Dk2YHj8IWxjw1dBulNMtzqMjYz7HPkjm280M+3xRH3Kp3iVm3kPikZSxb+SbvLPojn+zeQGbV6d82/w0qJj5EOpbKhlN/JnnjKlJSl7Nu/ZskrH2bjWvfY/+OFEqyDxIyS7nX7Gas1ctkay0PG63MNVl53mThxSUHLy47eXm5lm/a6/j+upd/dDbw330t/HdfK790NfNLVys/3w3z3Z16vrvl45urnijwdMDAkLOSu4ZS2pQFVJ4+wNldm8k58gUnPv+Ij9YvYeXCP7NyyZssXPR/eHvhH1mybgFZFWfnIQQnysdT+TjrTeKSlpCYtJTkhIV8lLKUL7bEkXNqJ7WaQjoazIy3upkI25gK23kUsfO0xcnXbbW8vOLm5ZVavhZA2mv5/qaPn7sa+Fd/C//qb+WX7gg/3w3x4x3BBS/fXfPwTbub58JmBM1MePX0WZQ0y/OwF5zBI8snoClDkrGfzzd+QMLqd4hZvZDly//G39753yxZ9S4bP0uYh1CMp6J8mMKe8oWsjXuL9esXkJq4iN07kjh1ZCvywuNcqlMx3FbH/SYno349D4JGHoVNzDZZedpi50Wbk2+u1PKi3cWL9lq+u+Hll+4w/+xr5l+CE92N/NgR4OeOAD/crOdlex0vWl08a3IyE7LxKGRlst7IUJ2WwXoLY80eukN29MXnObAlnrTY94lZtYCVKxaweMl/8taC/8WymHdeg5hIRfVoA1+WLmTF6v9k9cq/kbZhCft2pnD2+A70iiyuelUMhE1MROxMBM1MBgzMRmxRzUUsPG+x8eKyK+rGt9c8/HDLxy89Yf7Z28wvPYIa+akzyE+3A/xwvT4aci9aXDwL23gSsjEbsvEk7ORpi4fZS37Gm9z0NzjwqAvJ2PMRn25YRcK691ix7G2Wr3iLJcveZHXMgnmIiulNFA8nkpz+R5avfJOYtQtITlzE1k/WcHz/R1gqL3DVI6PPr+FBg5UHAoTfzOOQnScRR3QhL5ocvLxUiwAgJLQA8bOw6K6GqH7oCPDdTS/fXvfwjZA3rU5eNL/67ZMGK3MhO3NhJ7NhJ9MNTsbDdQyFnTQZypFk7GbPlnhS45awbu0ili97i9WrF7FqzWtOyKY3UtybQurB/yJWCKXkJcTGLSA1aRFf7U7GoT7LJaeEHl8FE0EDD/wGpvxGZhqsPGu087zRxstWF99deRXr31338POdAP/oCEbzQHDgh9v1/HhLCCMnT5ssfN1k5VnEwtOwJboRsxEHsxEnjxuEXHNwP+zkXsBOu6UCxYXD7N+ayIb4JcStW8yqFQLEQpYtf3PeCcVUKrlt8cRv+zMJ6xeSkrSYuPiFpCa9x4l9KdhUGbQ6xFGI8aCBhxE7DxtszIQdfN1ax8u2Or657OXHG0F+vBHghxs+frzl46eOAD/dDUaTWQAT3v/+uo+XVzy8aKvjabODJ40O5hqdzDW5mG1y8bjRwcOIg9GgjR6vmTazirIz+znwaQKbk1cRu2YRq1e9zeoPFrJy1VuvQUxv4OKlGOI/+xMJMYtISXqf2PgFbEx5n5MH0nCoz9NiE9HrUTLRaGa61cXDJgePIw6ettTyos3Nt1d8/HQrxD8E3Q7yc0eQnwR1ChUpEM0F4f1fOiP8oyPCN1e8PLtUy1yzk5lGB7MtLh63uHjU7GAq4mDQZ6bDqeWSWUnZmX3s+ySWrWnrSFi/OBpSH3zw/zkhm06jqCue5H1/Yf3ad0lOWkxsvODIIk4dSsNZdZ4mSyF3PQqGAjUM+Grod6sZ8VbzIFDDdEjPXJOFZ5fsvLxcx3fXfPx4O8R31/18fzPwu3644eebdg+zTfZoVZtttjLdYGTCr2XMX8OIv5qJiJHxsI0et57rlkraTEo0+Sc5sCWRTzeuISVuGeuFvFj+FstXvD3vhHIyiaKeODYc+Stx6xe+yomE94iPfZszJzZj12cSshfQZC3CXnISWfo2ig9+TPnhT5Ef244240vqxSe5a5Qw4VXzKKznccTE44iRuWYLc01mpoJa+q1ltJafRZv+GaqjWzCc34/m3F6kx7ZTkbET3cV9eErP0uPVcteno92uijphL7nIka0pbIp7n+SYpcSsWsjKZe+wctXC1yAmkpCPbmRbwbvExP8XKQnvsW7t28St/xvZZ7djN13AojlDUcY2LuzZwNkdCWR9kcKpT2LZn7CU3TGLOJS4mPL9H9JUmkGntpBRp4JJbxXT/hpGXUr6zaWERcdQHtjMqbRV7Fv3LvtiFnF801rObktCcmhrVNk7N1J24nNCWjGXa9W02FS4lSLO7v6ETTGLohBxaxazds0i1qx9fx5CMZZCxeRGjrtXsvbD/yA+dgErV/6FpNh3kIqPYDFkknv27+Qe+Yha8WmuaSR0msro0IlpV16gXvQVmmNbUR/aguXkTlpLTkchZhsMzIVNjDmVXFNk4cs+gPXMLlwXD+LN+4qW8kw6dBIGbAoGnRV0m2SEy7IoO7wV0ZHtuFS5hAxl1FeXID65j4/jl7IhdgkJ65fywZqFrPtgyTyEfDQF6UQyJQNpbE5/hw/W/o2Vq/7Clo9Woqs8T4XsK3LSN2MtSqe9SsxVZT43lTl0q/PpUOfQWnqKQN5hwuIThMXpNJdmMOiURw8+oRUZ96m5WZ3HFWUWN7T5tFdeoLHkJFcUZ+nW5NGtzedmxUVuqwvo0kmj/ZP+wlGqs7/CrcqnQS+juvAMOzatY1PCUuJjlrJ27UJiXoeQjaUgvZ+K+vGHfKVdyurYPxEXu5jD+9KwGbJRlx+mumA/7uLTmDIPYDizF9mBrZzdmszp7alkfZ6G8vA2jOk7iBSn06Y4z/XKi8w1GvmmzcGwS0anrpA+axntikxsJ7/AemwnlXu3IN3zMeW7N6M7tgtrxiFsGUeJFF8kJL1AXckZgtUiWh1VONXFHN7xIWnxy4hZt4T4uMWsXf/evBPS0VSkoymopjeQ6VvDmtQ/kpq6gjMnt1FrycelPY9XmYEley/5u1LJ3JFExp5PSE1cy5Jli/li2xZqK0qxZR+lqfgk19U5tMnOMeWr5kmDgU5NAXdqCpjwV9NWepraU7toVxdTdPIIq5ctZcnChexITuL8Z5+Qt/1DtCd2E5FlccUgoc1STpujCp9OSvruLSTFLiEudikbkpYSG790HqJ8NIXykWQqpjdyxr+GVRv/g7QNS8nM2I7bWkijs4h2YwGO/IPI07ejOL4DZ34GNVknkJ87Rl1pHjc0pXRoRXSbRFxXX+RaRTYP63VMuau5oy7gVlUuox4VA9YSejRFdOvLiChFyDJOUHDwAMr040gP7qby6C6s5w/RrMpmoF5DR52adqeagFHBid0fkxq/lLi494ldv4i45OXzELKxVOT3BSfSOOZdSsKuv7Jxw2IunNmBzyHmqq+c7lop1w0FXDVLuFpTyBXZOToqs7mryee28iJ3pJkMG4rpM4ppLj/NgE3K46CJKbeWTo2YG+pcei0l3K9XM2pX0aMqoktVSJ+2mI7KfG4ocmmX5XFTU8odk5Qehzx6ZvT7dVxzVhGxVnBq/xY2JCwhKWkF8TFLOHloyzyEYigV2WgC0skULjYksHnfu6Rteo/ci7sJe+R0BqsZ8qsZrVcz5tcxFqhhMqzjYUQfTdo+Uwm9xlJGbHI6qwtolZ1lIqBhLmxjut5Cp0nO1coCBqxSRpxK7gnDlUnKiFXBlFfDlE/DpEfNpLuaCZ+WsXodE34d0xErg34DN13VtDjVnDu2g4S499mcto7sg59hyEyfhygbSUQ2loRqeDOSmo/YlrKQbR+vQFJ8mEafgrshLWMtQhuu5VGTmcctVmZahcHIEF3s/foqHgS1jNSpuKsTc1Wdy0RQw7NGG3MRB3fNCq6pi+jSlzJeJ5wdOqbqtUx4qpn01fA4ZGS2wcRcyIjQ1j9pcb4aW5sdDAVNXHepaXZUkJOxm9SEpRzf9QkVp/eT9VHiPIRkNIny0VTUfVsQZSVwaMV77N28ipLivYR9pXQFtDxocfK40c5syMxMUM9c2Mhcg/DnBmZDhuhCxt1VdOlLuKUVM+7XMCe8HzDSa1VyW1dKr0XBqLuKWaF7bbEzGzYzEzLyJGxmNmhgLmh41RVfcvOszcPMpToGAnrarDJC5nKKsg6w8+8x5B7ajv7UQWpPHJyHKB9OQzKchGogDWf1Z2g+/ZiMtLUoiw7grxVx06NiPGiKTl9zfhOz7hqe1ht4FjQyF9QzU6/nsV/PQ5+WHkM5/c5KpoWDLqDjSdDAfY+W29pSeqxKxtzV0V1/ecnFi2Y7X0csvAhbeR4w83XAzLMGW3SmEDraqSYHXW41Yb0Er05Med5Rjn2xkarMw9y1VHC5IPt1iGRKhxMoG0vA33iIa5lnsB3dibbkBE5bLpfsIgZcCkZcVUx7tcwIqtfystHC8wZjdMcfBXWMe6u4ay5jPKjnSaON71od/Nhey9Mm4ayooduqYsKnYy5oRBiiXg1GVl5GrHwbtvPMZ2CmVtgUKxN+EwNuDTdMMgLqAmzKi+iVF1DlncSdn8FEfQ0dVbLXIRIpH06k5H4c1pufc112jluFF7HI0zHrz9BgyOaWuYR79spoHD+sfxUqzyImnkUMzAZ1PApoGalVcEtbyGCtMgr2zxtCW97IhEfHoFVFt1HOqKuauZDwOwsvhdlcGGubXoE8E6bFWj2PvCbu1xu466ygtUaCW5GDrvwcFk0+LbVVtFcU8CJoYqxW9xrEUAJlw4mUDscjH9hAwH2EDlURdYpTmDQnqK+5wFVzMX0OJaN1FUz5a5gJG5ht0PMkouNZxMjTBgMdFbnoD23DlbGfQV0xD+wV9OmkNOafxJW+m9D5dO7KxTwPCWFj4utGKy+abTxvtPC0wcSMT890nZZxt45BTw03LXIi1SIciovo5JnYawpp0BVxz63hSdjOZN1rEGVD8fymopE4qjq30V5XQKQyH5P6OAHtBdp0BdyyFjPkrOCBr5rpkI6HDVrmmvQ8azTxNKCnXXQK3Rcfc2TZ26iP7KCt7ALeU/s5sOSvbH/nz2g+205Txglm3DpeNFh4HjbxJPyqODyq1zLtrWGyTsuoS0OXRcFVXQmNNWIs8kxqpOdxa8WMtTp40RnhfoOH27WV806UDiYhqGwwCclQPCWDKYQuX+SyuRRTxbFoOF01FdFpK2ewTs2EMAhFZwY9M7868TxooF18muZzhwik70O+PY3qvdvQ7d+B6egeQlmnuHw2nYYTB5iyV/FN2MHzkImn0eJgjObalKeG8Tot9xxqOswyrpukhGskmOUX0Msyaa+r5kVPG9NXPAwF3IQaxfMQZYMpvFIq5YOJFI8k4uw6R9irRK8+TdCYzU1LKT1OJUP1aiYatDxsMjLTZGC2USi3QiXSM+5QcFeaw6BCzISpggFtOUMmBdMuLeNaBXcLs+mTi3no0vLMb+FZ0MwTASJk4oFXy7TfyP16PQNCgXBVcNOmIFRTjFWVh6Uyj4hdSrOllPsRF1ddarRXDv97iLLBZIqHY9F27iboLcOhysSvz+KmXUGPt5LhUDVTzSYetph5JEA0G5iJCOeBjoc+DVMeoV8yMhuw8EQ4U+r1PPToGLdrGLfpeFxrYqbOwJxXADdG5w3hgJtptPEwYuVB2M5gwEyXUJlscoI1YmyV+RhVOTRYyjDmZ3DdqMXty6S8b/M8ROm9ZH5T8UAy4sFEyrs3UKPfi7noBN7qTK7ayugOqBlt1jPZYuLhJQszbRZmWvQ8CuuY9GsYr6tkxK5i2FHJdL2wwzYmXDXRajPh1DJqrWbcVs20Q8PDOh0zfgNPmizMNdt41GxnWrhcbhJuOkx0u6u5alFQXy3Gqs6jqvgkPsVFrhtEuO0nqejYRtFg7DxEyUASUfUnUtKXhOReIpLBFEraNyA3bMdZeYZWo4gOt5ShUBUTzUYmm408ajUz3WiI9k/DLjn3hJyxljPiUDIbMDMbsjPpNfLQa2KyVseQVcWQRcG4rYJxp5oHHi2Pw+YoxHSTnalLLqZaXQwHTXTVVtFmlONVi7Go8tGYj6Ns3Iri8iZkvR9SNJyIpD9+HkJwQYAoFiAEDSZQPJCEUKkkTRswVBwlosvnpr2UPq+K0bCO8QZ9FGCsvopeSyldBgn3LFLGHCru2yuYsFYy4zEz4dIxpFcyZqpk3KHhQa2WMWc1g7aK6E34fU9N9Gp/KmLlfqON0UYHwyETnXWVtBjL8VSJMcpzqHQfoeheCvlD6ykaiKN0QIB47UL5NycEiOKBBIrvxSEWvjSURFF7CqqaL6mvyqFFX0CHQ8agX8NwfTXjoRqG3Eq6jRJuV4u4WSnikug8/vRDeA/uJXjkIIGjh/Ht30/w0CFazpziVmkR/aYqxur0jHm03BdKa8jIZIOR+w1mhhvM9Pv03HJV0KQvo7aiAI3sHOqGA9E1ifrjEffFU9yXgKTv9QawLwFxb/wrDcQiGYinSHBiKIGizmRKDVupU14gpHlVpfo8avrdSoZ9KkZ9Kjq1Rdgy9lH4cSKStGQMW7fi2v451g+3Ytzwdzyf7iT85SF8X+zFvH0nhi/3EMjMoENTzJivKtosjof0jDWYGQwauOvWcM2uJCycEdIsZOUnqWj7EtFgDKLeeIp646JrlfS9Fk6/hZLghKQ/DklvHEX98YgG4igajKOwbhNa6TFCVTm0akTcscvo91Uw4JEz4lPSby+nXZFDfe4pIufP0H4ig1vHztKXkcPAuXxGMkUMZYm4lyNmqFxJV3k5HTIJPbpSJuqro237WEjLcMBAt7uK62YZrfpSvBX5VBWeRlqejurqbgrvxSLuTUTcK2z6v3FC8qs94v44xH2xSIQv9sVH6QuvpCBRbqFOepawModWbQGdLin9PgXDfqHD1TDgUNKhK6dbXU5fWTHdhfn0FuTRLypksEjEmKycaYOGhy4TUx4L47VaJoVQCmt5ENYwGqym11XJdVMZLZoiAoo8DCWZlGV9hUp2BuWVfQihJOlLRiIUn1/167PGN+ZDSQipgTjEQm70JkVV1J8Upc51JqCS7CMgv0BjVTbthkI6nWUM+isZ9lVwz6Wky1jGFUUut5T59FQX06UspFOaR7+6mEG9lCGLkiGnmiGnhnGvgfF6PSM+NcP1lfS5ldy2lHNZK6GxSkRt2UUUuccpPncIXeUFlO17KOiPoSjqwL+BEFwQcqK4L5HiPmHRSRT1J1DUn0hhfyIF92IpvB5HftlHWMWnCaou0KzJ44ZZQk+dnP5aOb32crospdyozOOWMpcuTRG91UX0qAoY0JYwKIykxjL6jVL6zXKGhQrlVNNjk9HjktPlknHDXEprtQifLBtd4WkKzu5FmpuOXS+i4soe8vrWIoqGkhBSr/S7E79BCIlSHN35ZER9iRQMJFDYF0ehsAMdcWRKk5Fn7aNOfpbG6lxuWCR01cmiIL1OKd1mCR0a4SIsm9tVedwzlDBmkjHpquSBu4oRm4xenYQujZgeXRm9xjJ6rOX0OGXRqnfVWEqkugBr8XlKTu+n4OwBzPICvNYyVO27yetbQ2FPHKLuef0O8Xtl6o1HIhD2JVDUG4OoJx5RTwKi/hhEnYkUVm6m4MSnqHL24VdlcllXQKdTGr3y7/coGRTKr7U8ekk2aJczUVvFjNfA03ozc8Lh12Bh0q9l2Klk0K6g11pGr11wQsUtm5xLWmF2uEDZ+UPkHtuFRpxJRCsn6ChDdmUvOf3rKehdj6g7BlF3bFS/Qwhx9htIUV8sot4kJD2p0ev+IiHMRuIo7k9Gpt+B7Mwe8o58gib7AAFlFpd0hdy2lzEgjLD+ah7Ua5gS+qiQnimvnrl6My+ER1n1whxtiT7jmw4amazXM+qppr+2kltmKe3GMvyqPCqzj5B1ZAey3OP4a0q5ZqghbFegvLKXPGEzhcrZE/+75iF6hA9+UzzirkRK7yYjHoglpz+G042rOVi5nArVIeyS85Sm7yB73ybUF/fjKssgrLrIHXMpIx41973qaN0XLgRGnFVM1+qY85iineyD2hru19Vw36Njwic8Ka3mjuWVA15FDuqLR8k5+BklZ47hUUu4Yq3gpsNEg1VOdfN+iu7FUtCzDlFPHGIhpHri5tsOIe5f0SVEX0VdieT3xnO8aTX7Mj9gT9wHbFu6BG3hSYKaAsxFGRQe/pTzu1KjQFXn9xGUZXJNJ6bbIqXPrqDPIqffKOeeXs6QTsa9GikDehl9JuEzFT0WJbdNUkLKXMwFp5BlHCDrwFZKTh2kTinimlVNV52Jbq8Ov7qEXV8kc162Bdm17dENz++JJ7/rV4g//OEP//jVkt+o/ke9Cuv/f7Q3Dlq7dpkoAAAAAElFTkSuQmCC;" vertex="1" parent="1">
          <mxGeometry x="505.5" y="75" width="49" height="45" as="geometry" />
        </mxCell>
        <mxCell id="-SHN1Gf6xoFTMC6ysf_a-50" value="" style="shape=image;verticalLabelPosition=bottom;labelBackgroundColor=#ffffff;verticalAlign=top;aspect=fixed;imageAspect=0;image=data:image/png,iVBORw0KGgoAAAANSUhEUgAAADEAAAAtCAYAAAAHiIP8AAAZNUlEQVRoBdWZZ3OUZ7au/Rfm0z7nTNh7PA6AMRkTlAMIG3swYGwwORkQIIIEyq1upY5SS63OuaUO6qBuJYTIIKGMIhKSAEkEg7PHM3X25+vU29gWdWr+wP5wV1d1qH6u515rPWs97xsxMTHDb7zxBv9T9ev630A5sYHKR5v4yrCcFYl/Yt3aBaxd9yZxMW8Tv24BaYlLObwzhQuH/4429xh+RR63LXJG3GqmAhpmQjqeNpl51mrjeauDry+5+PZqHd/f8PHPzgj/t7uJn+808POdMD92NPD9LT/f3/Dzst3Dk2YHj8IWxjw1dBulNMtzqMjYz7HPkjm280M+3xRH3Kp3iVm3kPikZSxb+SbvLPojn+zeQGbV6d82/w0qJj5EOpbKhlN/JnnjKlJSl7Nu/ZskrH2bjWvfY/+OFEqyDxIyS7nX7Gas1ctkay0PG63MNVl53mThxSUHLy47eXm5lm/a6/j+upd/dDbw330t/HdfK790NfNLVys/3w3z3Z16vrvl45urnijwdMDAkLOSu4ZS2pQFVJ4+wNldm8k58gUnPv+Ij9YvYeXCP7NyyZssXPR/eHvhH1mybgFZFWfnIQQnysdT+TjrTeKSlpCYtJTkhIV8lLKUL7bEkXNqJ7WaQjoazIy3upkI25gK23kUsfO0xcnXbbW8vOLm5ZVavhZA2mv5/qaPn7sa+Fd/C//qb+WX7gg/3w3x4x3BBS/fXfPwTbub58JmBM1MePX0WZQ0y/OwF5zBI8snoClDkrGfzzd+QMLqd4hZvZDly//G39753yxZ9S4bP0uYh1CMp6J8mMKe8oWsjXuL9esXkJq4iN07kjh1ZCvywuNcqlMx3FbH/SYno349D4JGHoVNzDZZedpi50Wbk2+u1PKi3cWL9lq+u+Hll+4w/+xr5l+CE92N/NgR4OeOAD/crOdlex0vWl08a3IyE7LxKGRlst7IUJ2WwXoLY80eukN29MXnObAlnrTY94lZtYCVKxaweMl/8taC/8WymHdeg5hIRfVoA1+WLmTF6v9k9cq/kbZhCft2pnD2+A70iiyuelUMhE1MROxMBM1MBgzMRmxRzUUsPG+x8eKyK+rGt9c8/HDLxy89Yf7Z28wvPYIa+akzyE+3A/xwvT4aci9aXDwL23gSsjEbsvEk7ORpi4fZS37Gm9z0NzjwqAvJ2PMRn25YRcK691ix7G2Wr3iLJcveZHXMgnmIiulNFA8nkpz+R5avfJOYtQtITlzE1k/WcHz/R1gqL3DVI6PPr+FBg5UHAoTfzOOQnScRR3QhL5ocvLxUiwAgJLQA8bOw6K6GqH7oCPDdTS/fXvfwjZA3rU5eNL/67ZMGK3MhO3NhJ7NhJ9MNTsbDdQyFnTQZypFk7GbPlnhS45awbu0ili97i9WrF7FqzWtOyKY3UtybQurB/yJWCKXkJcTGLSA1aRFf7U7GoT7LJaeEHl8FE0EDD/wGpvxGZhqsPGu087zRxstWF99deRXr31338POdAP/oCEbzQHDgh9v1/HhLCCMnT5ssfN1k5VnEwtOwJboRsxEHsxEnjxuEXHNwP+zkXsBOu6UCxYXD7N+ayIb4JcStW8yqFQLEQpYtf3PeCcVUKrlt8cRv+zMJ6xeSkrSYuPiFpCa9x4l9KdhUGbQ6xFGI8aCBhxE7DxtszIQdfN1ax8u2Or657OXHG0F+vBHghxs+frzl46eOAD/dDUaTWQAT3v/+uo+XVzy8aKvjabODJ40O5hqdzDW5mG1y8bjRwcOIg9GgjR6vmTazirIz+znwaQKbk1cRu2YRq1e9zeoPFrJy1VuvQUxv4OKlGOI/+xMJMYtISXqf2PgFbEx5n5MH0nCoz9NiE9HrUTLRaGa61cXDJgePIw6ettTyos3Nt1d8/HQrxD8E3Q7yc0eQnwR1ChUpEM0F4f1fOiP8oyPCN1e8PLtUy1yzk5lGB7MtLh63uHjU7GAq4mDQZ6bDqeWSWUnZmX3s+ySWrWnrSFi/OBpSH3zw/zkhm06jqCue5H1/Yf3ad0lOWkxsvODIIk4dSsNZdZ4mSyF3PQqGAjUM+Grod6sZ8VbzIFDDdEjPXJOFZ5fsvLxcx3fXfPx4O8R31/18fzPwu3644eebdg+zTfZoVZtttjLdYGTCr2XMX8OIv5qJiJHxsI0et57rlkraTEo0+Sc5sCWRTzeuISVuGeuFvFj+FstXvD3vhHIyiaKeODYc+Stx6xe+yomE94iPfZszJzZj12cSshfQZC3CXnISWfo2ig9+TPnhT5Ef244240vqxSe5a5Qw4VXzKKznccTE44iRuWYLc01mpoJa+q1ltJafRZv+GaqjWzCc34/m3F6kx7ZTkbET3cV9eErP0uPVcteno92uijphL7nIka0pbIp7n+SYpcSsWsjKZe+wctXC1yAmkpCPbmRbwbvExP8XKQnvsW7t28St/xvZZ7djN13AojlDUcY2LuzZwNkdCWR9kcKpT2LZn7CU3TGLOJS4mPL9H9JUmkGntpBRp4JJbxXT/hpGXUr6zaWERcdQHtjMqbRV7Fv3LvtiFnF801rObktCcmhrVNk7N1J24nNCWjGXa9W02FS4lSLO7v6ETTGLohBxaxazds0i1qx9fx5CMZZCxeRGjrtXsvbD/yA+dgErV/6FpNh3kIqPYDFkknv27+Qe+Yha8WmuaSR0msro0IlpV16gXvQVmmNbUR/aguXkTlpLTkchZhsMzIVNjDmVXFNk4cs+gPXMLlwXD+LN+4qW8kw6dBIGbAoGnRV0m2SEy7IoO7wV0ZHtuFS5hAxl1FeXID65j4/jl7IhdgkJ65fywZqFrPtgyTyEfDQF6UQyJQNpbE5/hw/W/o2Vq/7Clo9Woqs8T4XsK3LSN2MtSqe9SsxVZT43lTl0q/PpUOfQWnqKQN5hwuIThMXpNJdmMOiURw8+oRUZ96m5WZ3HFWUWN7T5tFdeoLHkJFcUZ+nW5NGtzedmxUVuqwvo0kmj/ZP+wlGqs7/CrcqnQS+juvAMOzatY1PCUuJjlrJ27UJiXoeQjaUgvZ+K+vGHfKVdyurYPxEXu5jD+9KwGbJRlx+mumA/7uLTmDIPYDizF9mBrZzdmszp7alkfZ6G8vA2jOk7iBSn06Y4z/XKi8w1GvmmzcGwS0anrpA+axntikxsJ7/AemwnlXu3IN3zMeW7N6M7tgtrxiFsGUeJFF8kJL1AXckZgtUiWh1VONXFHN7xIWnxy4hZt4T4uMWsXf/evBPS0VSkoymopjeQ6VvDmtQ/kpq6gjMnt1FrycelPY9XmYEley/5u1LJ3JFExp5PSE1cy5Jli/li2xZqK0qxZR+lqfgk19U5tMnOMeWr5kmDgU5NAXdqCpjwV9NWepraU7toVxdTdPIIq5ctZcnChexITuL8Z5+Qt/1DtCd2E5FlccUgoc1STpujCp9OSvruLSTFLiEudikbkpYSG790HqJ8NIXykWQqpjdyxr+GVRv/g7QNS8nM2I7bWkijs4h2YwGO/IPI07ejOL4DZ34GNVknkJ87Rl1pHjc0pXRoRXSbRFxXX+RaRTYP63VMuau5oy7gVlUuox4VA9YSejRFdOvLiChFyDJOUHDwAMr040gP7qby6C6s5w/RrMpmoF5DR52adqeagFHBid0fkxq/lLi494ldv4i45OXzELKxVOT3BSfSOOZdSsKuv7Jxw2IunNmBzyHmqq+c7lop1w0FXDVLuFpTyBXZOToqs7mryee28iJ3pJkMG4rpM4ppLj/NgE3K46CJKbeWTo2YG+pcei0l3K9XM2pX0aMqoktVSJ+2mI7KfG4ocmmX5XFTU8odk5Qehzx6ZvT7dVxzVhGxVnBq/xY2JCwhKWkF8TFLOHloyzyEYigV2WgC0skULjYksHnfu6Rteo/ci7sJe+R0BqsZ8qsZrVcz5tcxFqhhMqzjYUQfTdo+Uwm9xlJGbHI6qwtolZ1lIqBhLmxjut5Cp0nO1coCBqxSRpxK7gnDlUnKiFXBlFfDlE/DpEfNpLuaCZ+WsXodE34d0xErg34DN13VtDjVnDu2g4S499mcto7sg59hyEyfhygbSUQ2loRqeDOSmo/YlrKQbR+vQFJ8mEafgrshLWMtQhuu5VGTmcctVmZahcHIEF3s/foqHgS1jNSpuKsTc1Wdy0RQw7NGG3MRB3fNCq6pi+jSlzJeJ5wdOqbqtUx4qpn01fA4ZGS2wcRcyIjQ1j9pcb4aW5sdDAVNXHepaXZUkJOxm9SEpRzf9QkVp/eT9VHiPIRkNIny0VTUfVsQZSVwaMV77N28ipLivYR9pXQFtDxocfK40c5syMxMUM9c2Mhcg/DnBmZDhuhCxt1VdOlLuKUVM+7XMCe8HzDSa1VyW1dKr0XBqLuKWaF7bbEzGzYzEzLyJGxmNmhgLmh41RVfcvOszcPMpToGAnrarDJC5nKKsg6w8+8x5B7ajv7UQWpPHJyHKB9OQzKchGogDWf1Z2g+/ZiMtLUoiw7grxVx06NiPGiKTl9zfhOz7hqe1ht4FjQyF9QzU6/nsV/PQ5+WHkM5/c5KpoWDLqDjSdDAfY+W29pSeqxKxtzV0V1/ecnFi2Y7X0csvAhbeR4w83XAzLMGW3SmEDraqSYHXW41Yb0Er05Med5Rjn2xkarMw9y1VHC5IPt1iGRKhxMoG0vA33iIa5lnsB3dibbkBE5bLpfsIgZcCkZcVUx7tcwIqtfystHC8wZjdMcfBXWMe6u4ay5jPKjnSaON71od/Nhey9Mm4ayooduqYsKnYy5oRBiiXg1GVl5GrHwbtvPMZ2CmVtgUKxN+EwNuDTdMMgLqAmzKi+iVF1DlncSdn8FEfQ0dVbLXIRIpH06k5H4c1pufc112jluFF7HI0zHrz9BgyOaWuYR79spoHD+sfxUqzyImnkUMzAZ1PApoGalVcEtbyGCtMgr2zxtCW97IhEfHoFVFt1HOqKuauZDwOwsvhdlcGGubXoE8E6bFWj2PvCbu1xu466ygtUaCW5GDrvwcFk0+LbVVtFcU8CJoYqxW9xrEUAJlw4mUDscjH9hAwH2EDlURdYpTmDQnqK+5wFVzMX0OJaN1FUz5a5gJG5ht0PMkouNZxMjTBgMdFbnoD23DlbGfQV0xD+wV9OmkNOafxJW+m9D5dO7KxTwPCWFj4utGKy+abTxvtPC0wcSMT890nZZxt45BTw03LXIi1SIciovo5JnYawpp0BVxz63hSdjOZN1rEGVD8fymopE4qjq30V5XQKQyH5P6OAHtBdp0BdyyFjPkrOCBr5rpkI6HDVrmmvQ8azTxNKCnXXQK3Rcfc2TZ26iP7KCt7ALeU/s5sOSvbH/nz2g+205Txglm3DpeNFh4HjbxJPyqODyq1zLtrWGyTsuoS0OXRcFVXQmNNWIs8kxqpOdxa8WMtTp40RnhfoOH27WV806UDiYhqGwwCclQPCWDKYQuX+SyuRRTxbFoOF01FdFpK2ewTs2EMAhFZwY9M7868TxooF18muZzhwik70O+PY3qvdvQ7d+B6egeQlmnuHw2nYYTB5iyV/FN2MHzkImn0eJgjObalKeG8Tot9xxqOswyrpukhGskmOUX0Msyaa+r5kVPG9NXPAwF3IQaxfMQZYMpvFIq5YOJFI8k4uw6R9irRK8+TdCYzU1LKT1OJUP1aiYatDxsMjLTZGC2USi3QiXSM+5QcFeaw6BCzISpggFtOUMmBdMuLeNaBXcLs+mTi3no0vLMb+FZ0MwTASJk4oFXy7TfyP16PQNCgXBVcNOmIFRTjFWVh6Uyj4hdSrOllPsRF1ddarRXDv97iLLBZIqHY9F27iboLcOhysSvz+KmXUGPt5LhUDVTzSYetph5JEA0G5iJCOeBjoc+DVMeoV8yMhuw8EQ4U+r1PPToGLdrGLfpeFxrYqbOwJxXADdG5w3hgJtptPEwYuVB2M5gwEyXUJlscoI1YmyV+RhVOTRYyjDmZ3DdqMXty6S8b/M8ROm9ZH5T8UAy4sFEyrs3UKPfi7noBN7qTK7ayugOqBlt1jPZYuLhJQszbRZmWvQ8CuuY9GsYr6tkxK5i2FHJdL2wwzYmXDXRajPh1DJqrWbcVs20Q8PDOh0zfgNPmizMNdt41GxnWrhcbhJuOkx0u6u5alFQXy3Gqs6jqvgkPsVFrhtEuO0nqejYRtFg7DxEyUASUfUnUtKXhOReIpLBFEraNyA3bMdZeYZWo4gOt5ShUBUTzUYmm408ajUz3WiI9k/DLjn3hJyxljPiUDIbMDMbsjPpNfLQa2KyVseQVcWQRcG4rYJxp5oHHi2Pw+YoxHSTnalLLqZaXQwHTXTVVtFmlONVi7Go8tGYj6Ns3Iri8iZkvR9SNJyIpD9+HkJwQYAoFiAEDSZQPJCEUKkkTRswVBwlosvnpr2UPq+K0bCO8QZ9FGCsvopeSyldBgn3LFLGHCru2yuYsFYy4zEz4dIxpFcyZqpk3KHhQa2WMWc1g7aK6E34fU9N9Gp/KmLlfqON0UYHwyETnXWVtBjL8VSJMcpzqHQfoeheCvlD6ykaiKN0QIB47UL5NycEiOKBBIrvxSEWvjSURFF7CqqaL6mvyqFFX0CHQ8agX8NwfTXjoRqG3Eq6jRJuV4u4WSnikug8/vRDeA/uJXjkIIGjh/Ht30/w0CFazpziVmkR/aYqxur0jHm03BdKa8jIZIOR+w1mhhvM9Pv03HJV0KQvo7aiAI3sHOqGA9E1ifrjEffFU9yXgKTv9QawLwFxb/wrDcQiGYinSHBiKIGizmRKDVupU14gpHlVpfo8avrdSoZ9KkZ9Kjq1Rdgy9lH4cSKStGQMW7fi2v451g+3Ytzwdzyf7iT85SF8X+zFvH0nhi/3EMjMoENTzJivKtosjof0jDWYGQwauOvWcM2uJCycEdIsZOUnqWj7EtFgDKLeeIp646JrlfS9Fk6/hZLghKQ/DklvHEX98YgG4igajKOwbhNa6TFCVTm0akTcscvo91Uw4JEz4lPSby+nXZFDfe4pIufP0H4ig1vHztKXkcPAuXxGMkUMZYm4lyNmqFxJV3k5HTIJPbpSJuqro237WEjLcMBAt7uK62YZrfpSvBX5VBWeRlqejurqbgrvxSLuTUTcK2z6v3FC8qs94v44xH2xSIQv9sVH6QuvpCBRbqFOepawModWbQGdLin9PgXDfqHD1TDgUNKhK6dbXU5fWTHdhfn0FuTRLypksEjEmKycaYOGhy4TUx4L47VaJoVQCmt5ENYwGqym11XJdVMZLZoiAoo8DCWZlGV9hUp2BuWVfQihJOlLRiIUn1/167PGN+ZDSQipgTjEQm70JkVV1J8Upc51JqCS7CMgv0BjVTbthkI6nWUM+isZ9lVwz6Wky1jGFUUut5T59FQX06UspFOaR7+6mEG9lCGLkiGnmiGnhnGvgfF6PSM+NcP1lfS5ldy2lHNZK6GxSkRt2UUUuccpPncIXeUFlO17KOiPoSjqwL+BEFwQcqK4L5HiPmHRSRT1J1DUn0hhfyIF92IpvB5HftlHWMWnCaou0KzJ44ZZQk+dnP5aOb32crospdyozOOWMpcuTRG91UX0qAoY0JYwKIykxjL6jVL6zXKGhQrlVNNjk9HjktPlknHDXEprtQifLBtd4WkKzu5FmpuOXS+i4soe8vrWIoqGkhBSr/S7E79BCIlSHN35ZER9iRQMJFDYF0ehsAMdcWRKk5Fn7aNOfpbG6lxuWCR01cmiIL1OKd1mCR0a4SIsm9tVedwzlDBmkjHpquSBu4oRm4xenYQujZgeXRm9xjJ6rOX0OGXRqnfVWEqkugBr8XlKTu+n4OwBzPICvNYyVO27yetbQ2FPHKLuef0O8Xtl6o1HIhD2JVDUG4OoJx5RTwKi/hhEnYkUVm6m4MSnqHL24VdlcllXQKdTGr3y7/coGRTKr7U8ekk2aJczUVvFjNfA03ozc8Lh12Bh0q9l2Klk0K6g11pGr11wQsUtm5xLWmF2uEDZ+UPkHtuFRpxJRCsn6ChDdmUvOf3rKehdj6g7BlF3bFS/Qwhx9htIUV8sot4kJD2p0ev+IiHMRuIo7k9Gpt+B7Mwe8o58gib7AAFlFpd0hdy2lzEgjLD+ah7Ua5gS+qiQnimvnrl6My+ER1n1whxtiT7jmw4amazXM+qppr+2kltmKe3GMvyqPCqzj5B1ZAey3OP4a0q5ZqghbFegvLKXPGEzhcrZE/+75iF6hA9+UzzirkRK7yYjHoglpz+G042rOVi5nArVIeyS85Sm7yB73ybUF/fjKssgrLrIHXMpIx41973qaN0XLgRGnFVM1+qY85iineyD2hru19Vw36Njwic8Ka3mjuWVA15FDuqLR8k5+BklZ47hUUu4Yq3gpsNEg1VOdfN+iu7FUtCzDlFPHGIhpHri5tsOIe5f0SVEX0VdieT3xnO8aTX7Mj9gT9wHbFu6BG3hSYKaAsxFGRQe/pTzu1KjQFXn9xGUZXJNJ6bbIqXPrqDPIqffKOeeXs6QTsa9GikDehl9JuEzFT0WJbdNUkLKXMwFp5BlHCDrwFZKTh2kTinimlVNV52Jbq8Ov7qEXV8kc162Bdm17dENz++JJ7/rV4g//OEP//jVkt+o/ke9Cuv/f7Q3Dlq7dpkoAAAAAElFTkSuQmCC;" vertex="1" parent="1">
          <mxGeometry x="515.5" y="85" width="49" height="45" as="geometry" />
        </mxCell>
        <mxCell id="-SHN1Gf6xoFTMC6ysf_a-51" value="" style="shape=image;verticalLabelPosition=bottom;labelBackgroundColor=#ffffff;verticalAlign=top;aspect=fixed;imageAspect=0;image=data:image/png,iVBORw0KGgoAAAANSUhEUgAAADEAAAAuCAYAAACBHPFSAAAZE0lEQVRoBd2a91Ncd5ru/cPeubOzu2N7ZsdZtpxl2bIsWZZsWdEoJytnEJIASVYEJAEiCAkwIHLO0KSmabrphg40dCI1Tc5J5CiCApZtjWdmt+pzq9tVd6su/gfmnqpvddWpOt3n08/znvO8b32f4/+D47m5uTleeOEFnnvuuX+69fvf/56enh6eGx4eZuHChfg2bsCveiv2Pl9w7spOTtqvZ/ee5Rw6sJaj+9dy+vBGnO23E+l+CkWSL03qdEbMRUy3lPKos5y5niqe9ph51tfI30Za+ft4J3+f7OUf0338faqf/5oZ4L9n+vllrJOfh5t5OtDA4y4TMy3lPGyrZLa1gqkmA2P1ZQxUyWgtSkcZ64vX6b0c/OZzNqz8gP27V3Pj+hGOHF/DWcftbNiwAaPR+D8Q3zdtxV36Ded9d3L1+gGOHl3NkQNfs2fHF+zb+SVHdnyJu8O3FMZ506xOY7hGxkSDipnWMh52GpnrruSHnhp+vt/AL8Mt/G28k7896OUfM/38Y3qAf8wM8Pfp+/wy3smz0VZ+HGzkSXcNjzuqedRexXSz0Qox2aBlsKqIjlIhZWnBJPt8x+XDm9i+ejFffvYO585sx9l1PwcOr5kPEWrai2vsHtz8juF4YQv7965i56albN24BJs1H7F/8woiPc9RVRBLtz6PYVMRo/UqplpKmWnX8birgrnuGn7srePngUZ+Hmrh5+F2fpno5m+Tffx1vIdnox08G26zKjHXV8fDjioetlZYlbCoMNmgY7yulBGzii6dGJ0gjPxQN4IvH+eIzQpWL32fzWuX4Oq6n937VsyHuCvdi3foSbxuH+eU3Rp2bVvKprUf8fknC1i5eAGO+zYiDL1JQ2EivQYxQ+YiRpvUPGjVMtNhZLarikfdJp70mq1WeTrUzI9DrTwbbeeX0S5+Gmrjp8FmnlnO9zfwuMfErOW6Fh0zzTom6jSM1qgZMakZqlbRrZNQLU5Cnfw98becuHpkKxuXfcCqTxZy3nEHtqfXz4fwF5zEP/Q015x3c+zQCjav/ZDF777IO689z5ol73HLYR8yi5WKU+irKGCkTsFEk5qpVi2zHQYedVUz11PLDz21/DTQyE+jrfw00sbPo+08G+ngaX8TP/TXY1FgrsfMk+4qZtsNTDeV8qChhAmzmtFqFaMmNcMmNd06KbWydPTZUeSFeuDtcJD9G5bz6Xsvc2jvV5y7uHU+REDUWTy9j/Ddhc3s2LyYxQtf4NUX/oV3X3uBLV9+zL2b9mgFwbQrMhiokjBWr2CsQclks4bZNh0P24087qpirttshXg21spfx9v561iHVYUnvQ087Knhca+ZJz1m5rqredhZznRzGVMNaiZr1Yyb1IzWqBiqUtCrK6RRmUOlJBl1Wgihrmc5vu1Lln/4GutXf8j5i9vmQ9y9dxp3970c2b+Mzxa9xMvP/45XXvwD77/+Z/ZsXEai/0WqRZG0yFO5X57PSL2c8UalVY3p5lJmWnQ87qxkrqvGqsaPA408G27hp4EmHnfXMdtm4mG7iccdNcy2V/Gwq8IKMdOiZbJezUStigmzijGTipGqYgaMRbRrJdQpcigTRBHtfoEzu9fx9dJ3WLPqA5zO/4YSd4JsOe+wjrWfL+DNl/+d/3zhd7zx0r/x0YIXObt3HZJoL6rzY2hUpNFXns9QlYTBCjH3dUIGjWLGa4qZbdIy125krr2Cp13VPG6rYKZJb11T9Vpmm4w8bC63fk416Jhq0DLdqGOivowxi53MakZqFAxVy+ivKKTLIKVJk4dWGEeM92WcDnzD+s8/wGbDMs462MxXwu3WPg7vXsqKxa/z0ou/5+U//ysLX/4Pvlq8gMCrJynNCMIkjcUsj6dcGIY5L5LKjGCKwtyQh7tREn8bU04E90tzGKsqZLpWyYRZYYV7UGexi4qpuhKm6zVM1pUxZtIwZiphorb016K2AqgYqlYwUF1EX7Wc7nIprVoxOnEy0b7XcDhgw/oVH7Fh/TKOnfyNwj7vtImtGxbzzqt/5JU//4E3X/kji974E8d3fI0oyhOjMAyVIABxnKcVokctoFspoDjKm7DLx/Cy3cGNI5vwPrWLSJdTiIJdqc2PYciiUlUhY5VSJkxF1jVaqWDYWMSQUc5YlZIxk5KxGgUj1XJ69fl0a/Pp0uZzv1JOm15KhUxAYqA7dt9uZN3KRaxZ/TG7962ar8TxgytZtuhlXnn+f/HqS//Gm6/9kdWfLiTopgMlGUHoheHoRDHUqTLpN8oYNSmZatQy1ajjvqGQqtwEREFe+DscxXmvDdcPrEcU5EJHcTodxRkMaPMZKy9k2Cihr0zMfY2YbrWIenEympQgZFE+yGNuUxjpiTTEDVHQdZSJAZgKUzErcsiO9uPErnWsXv4eq79axMbNS+dDbF73Pq++8Dv+8vz/5rVX/sC7C17Advc6JAl+6HLDMYhjqCxMoq4omTZlFt06Ed2GPHr1YgaNMsarVIxVKujRCKnIikAa4YEi+jYN+XG0F6fSV5rLiAVAm0ebPJUGcTy65GACzh7mjM1KTqxbxokNyzm7dRWuBzeS5eeCNjWE4oQAJHEB5Mb5c/rwZlZ8spAVK95l6ecL5kOsWPwXXn3+97zyp3/lLy/+C58teo07106hzYnALE/EpEjFKI5Bn30PY3YE2pQQypKCKEu6R3lGJKaceMoFUVRlRtKQn4hZGIMmIRBD2j3aipIZ0OcxWlVEd5mQ6txIpKHuZPhcIvraaaKdHUm/7Yw44jbFid9TLoyjoySPPr2EZmU2gpBbRPu74HrxOJ8tXsDSJa+z8su350Os/fQNPnjlBRa99TLvv/EnbL5aTJz/Naql8XQb82gvz6OmOBlDTig5gTfwdzyC+8m92G5dy6kdmzi3fyfeDidIuHkRaZAHVRlh6NMjMArC6SxOZdwkZ7pZR1epkIJQTwS+1yiJD6BBnEC3JofhykLGan999wybVfQYJLSqsqmWJlGYco+0SB8CfC6xYtm7LP7oVZYsfXU+xJbP32XtkndY9OYrfPjmX9i79Quyom5RV5zMgEnCcJOKgVo5DUXJxNxw5Mia5RzZvB6br77g7Tff4P13FnL9giPCiEBinB0pi/GnRZ5JjTiBtuI0JmqVPLlfQ2NxBoI7zihjvkeXFoYswouCIHeKonzRJASjTghClRSIOjEIXXo4xfH+ViUEUb4kRvqw+Zsv+OCDV1iy/DfsdGDdUs7tseGbxe+x+PU/ccF2J7Jkf5pVGb9G7uYyZtv0jNcqMUsSEQTcIMz1AuG3XLjrepm7LpcQx4ZRmZ1MVXoUnfJMxs1q2lXZdKoymaxT87i7hjpJOvKYAGpyE8jxvkaOryu+TifZuupT1i37hO1fLcdx32Zu2h7A7/wJkrwvkxrgSmFaCKLUUI4f3MonS97i02XvzFfiyMbleB7fy+n1q9i5cjE+l0+gyQyhs0zImNnyJNIw3VjGbIuW6dZS+soLMBUkYRTGY8pPoyY/nYrMBBrzMxgqlTHbYLBGiB6diK6SLMbMxTzqKKdZkY0+K5oOlRBzViINeekIQ/04sWcTq7+wpOY1fLvha9YvWYT9jo0k33bBKIymoSSLktxYLtjvY8mSt1j66W9A2G5fxb1zJ7n57Vac9qwn2O006vRAWkosWamQyTqVFWSmVc/DNgPTrXomG8sYtrxhq4qs4W3CXMZYjY4xs4Exs86aRu8bJHSXZDNmkjPVXEpHaR5lgnDaS0VMmvX0qqSYspLQJIWTG+pHSoA3sZ6u3Ha0JeH2deoVuQzXa+itLsKQn4TLuaMs+eRNVi57f74SDvs2cvf0AaLO23H54DcEXj9JcaIv9fJEerW5jFXLmKpTM9ts4FFbJY/bq3jSYeJJu+n/5qUn3WYedZmZ7TAx0aCjv0JOjyaXXmUmY+VSpuo09JZJ0KVH0VSYRb+uiKFyNb2lMtrkQmqFydTmxmMWxdOqzGagSslIQxnDjaX0VsnR5cZz1fEg69Z8yrb1n8+HuHH2W26d2Ikq7A4edtsIcD6IMPImFaIo2lQZDBjyGauUMW0u4VGTkR/aqnnWXcdPXfU87azhx55anlpjeAOPuqsZr1HTU5pHjzKL3uIsxvQyZmp19JfJ0SVFUSdMY6RSwUR9KRONeibqtEyaLElWyUStmukmHQ+aDIw36hgxl9CpyUeRHs75U7vZuWUl29Z9Nh8ixO0Unid2EXP5FB4nNhHscpi0e86UZAbTWJRMT0kWg1oR40Y5MzVlzDVX8tfeJn6538Sz3kZ+tAD11vNzXyOPO02MVyroUmTTIc+kR5HNRLmSWbOB0fISqgWJGFNjGDLImW3SW0Ph49Yqfmj/VVmLwo+aK5huNDBRp2PAoKBRno0w1p+TB23Ysu4zdlr67v+3x47zPce9c0fwOrAZl4PriPKwIznoCoWJvpjEMbQXp9FXksOoTsqk5YZqdVYVLBA/99Yx11nD0y4zT7vqeNxSxUBJPs2iFFrEqfRrRDyoVDFdXcZkZSnt8nxK48LpUxfwQ3MFc63V/NBZa73+h06T1a4Pm4xM1WoZqVTTrbY8RDJICHTn8K517LZZxcl9v5FiE+9eIMjxIPGXbLl7ZhfJd5zIjLiOKOYW+qwQGkRx9CoEjJYWMKErYtak5adWM790N/Jj1683MGfpGeqNjOmLaclJojE7gU6pgHGjjMlqNVNVGiYMagZ1anQpsTTlpvLErOdpq8WODfzYVcdcWw3TDUZmavU8qC6z2q9VJkSXlYDfDSeO7lrH8d0buGS3e74SSX7nuXrwG5JcHEm5cYaMwEuIEr3JiXZHlRpAVVYE7QXJDBTnMKqRMFWu4mGNjrn6Cn5ormausYKpag2T5Qq6JAK6hWncl+XSI89lqEzK48YKfuqsZ6pay32NnNq8DFpFAiYNCh7VGXhiUaOthifN1czW6HlQUcqoQUWvSkJTngBZdBA3LxzD7sBmnI5swevi/t+A8HXC+cR27DZ8Ttw1e7LuXUWc7ENWtDuypDsYMkKoy4qhU5xGX3EOI5oCJvUKpis0TFWWMmlUM6aX88BYTEtuPH25qYzI8mjKiEcfGUSb5YbL1XRLhWgigimLDaNBmEavUmQFma3SWEFnzHomjSWMlhXTp5LQJsmhPCUGgZ8bro6HuGi3l1vnDxN4/ch8iNhbZwhwtmXr8oUcWvcp8d5OFCR6I4zzpCDWm7KUQMpTQmjMiqMjP5XewkwGi/MY0xQypi1mSCNj0qjkoakMc1oUsutXyD13htD9uwjct4tc1ytogvxIvnyOG9ts+P74QbLcrtEmSrf+GeP6YqbKS3hgVDJWJmdAKaZDLMCcmYg8MoBIr0t4XDqBy5lDBDjbEel9aj5EmLs9oTdPY7drFTu/XoKH47cUJPogTb2LON4bdXIA2sQgKpNCqE2LpCUngV5pBsOqfEa1cka0ljrRMWPS0qfIR3PHi4IrF9H63kbu6U748aN8v38fHju24/3tTkJPHiHH3YVuaY61hgZLCxkskTKoLKCvMJdWYRrm5GhKwgNIve1MqPdF7ro5YLtrHcE3zxDre2Y+RKyPAyE3T+G0fx171n6Gw8FvEITfQJJ4G1niHUpSAtElB6JPCKI6OdyqSJsohZ6ibIa0UkaNCsYrVIwYFAzrihhVFjCmkDChLmJIVoA5PhpjRAgNglTahJm0CTNoFwnolQu5X5xHn1JMV7GINmkmjVlJVCaEowy5Q7bvdaJvXSTKzxm3q0fZZ7OU21cOk+DvNB9CGO5MuOdZLh3bxKFvlrPfZgWxfheRJPigSg3EmBVBhSCMqvQwagWxtIpS6ZBm0FmUSW9JHoM6KUM6GYNaGcM6OUOaQob1RUyZShkzFNOnzGewTMaEqZQRS20oxLRJc+iQZtMuyaZHIaKrOJem/DTKUyNRhvlSEOBB2m0X4u+4EhXgwpXzezi2ZwUup7cQ4+c4HyI/xpWwW/Zctd3Gsa0r2LH6Y0I9zpAf60lxsj8VuVHUieNpkaTQJEqmqyiLPo2IXk0evSX53C8TM6ArYFBbwLBOwqCxiOEKBdNmHeNVJYxWqJmsKWOipowho4puTSFNslxq89OpE6XTXpRLa6GAdnkW5pwENLEBFIb5khnkQXKQB4Fe5/nu7Hacjq3D9cxWQj1t50MUp7oT7mXPd0c3Weti25eLuX3pEDkRN5HEeFvnoo2yZLo1uXQps+kvE2Nt+MuL6NdLrW1pjyaH/jIhvepsqy0aspMxJcVQm5pAR3427fk5NGYk0yQU0FIopFacSY0oDbM4jUapgAZJKt1qIW2F2VQIolDEB5Id7kNKqBcu3x3ivP1WnB12cMNhO5E+9vMh5GleVp85n9qM3e5VfP3JW3x3bAsZQS7kRbijTgmkTpxIb0kO/VoRQ3opk1VKJkxKuktzaSiIR5fgT47nFfwO7cHz2+1EOtiS5XaVpKtnSXN2IuXqOWLP2RN89gT+J48S950TGZ4uSCJ80SQG0SRJYVAvpVWWSXV2LKWpYeRG+RF51wX7QxtwdtyJ97WDuF3YRajXb0DkxrmRFXYZd8ctnN67hmXvvcpBm5UkeF8kO+Q6RQl+mIRxtBel0VuabbWORYkHtWr6DfnU5cdQkx6GNsiPWDt7fPbvJdnThQppKqUFcRjlKZTkxpB67xa+Z45xdeMGvt+7n5SL5ynwc0cX+z19JSL6jFIapWlUZkajTgolN9IPn6v2HN75OTe/24W/x1HcL+8h/PZv1ERqyGUS/R1wtf+GU3u+ZuVHC9n+1RKCr50ixe8y+VE+GASRNEiSaLWMYSyjG10BYybLgEzBoD6fPo2QfqWYblEOjZGxVATeozQwAE1oILroYDSh/sh83ZG5Xsfo5U9jdDxNgjRqshPpKxUzVqOmQyOiOieO0pRQiuIDSQ++xWW7XZzY8wU3zm0jwv803i77SAi6PN9OGRHORHidxNluA8e2f8Hy915n7ZK38Tizl8hbjmSGeKBJDsWUF0udNInmojS6S3MYKC+0zqBGq4sYNEjpUOTRJM6iIyeHQZGEiXwZ/em53E/OpC8hnfbgKBqCwqgJj6Q8Npry9HjqpRnWwdmoWWntwUtTQymK9UMa7Ueo23mcDtvgcHgNHhe2ExPsiP+to8QHXZoPIQi/SoTHcW7Yb2L/hk/4dOFLLF34Ejdsd+N3+SgJftcojPWnIjOa2vxkGmRptJdlM1hZxFBlMf3aAmudDGgLaRSnY0qNwpwURX1SDOaYKCpCQ6i4F0xV8D2qosMpi7GMfCKpyE3EXJBKv0FKv16CMTsaVXwgRbEBZIX6cNV2J98d34DLGRt8r31LVpwLkf6nSQy5OB8iP+4msd523LDbxLdrF/PJW3/hw1dfxMvhIL4XDuLvakdOqAfa1HBM2YmYRQk0KdLpryxkoq6ENrmAUV0ho5VK+vWF1hhekxFNdWok5YlhlEUFYowLoTIxAl1iKLrUcOryU6kVp9KmFjJaU0KTPAtV4j3U8UHIov0JcHbg0Jbl3L66F+/vtvD9jQPkxLmQHHqelLDfgJAkehDteZIrx9aze81iFi34M++++jy3zx8lzsMB7wuHifI4Z/1yoyCWGlGCdRzTUZLLhLnEailLN2eZfk9WlzCqK6JPJf71JVaUR6dcSK+qgC65iNbCLDoUObQrsmmQpTNsUjJQWYQ+Oxp5XACKuECygjyw27WGA5s/I9zHlohbhwj3OoIo0Y28hBsIoq7NV0Ka6EG421Ec961i26oP+HDBn1nw8n/g43QYSfgtQlxP43fxGIneV1Am3KMmP4GKnCgqsqK4r5MwVKNkwDoV0TFbb2Cm1sDjhkqmzQYmq8p4UKVlutrAqE7NQJnM2tX162X06KQMm1TUyQVIY/xRJt5DGnnX+rs7V3/Eid0rib5jhzDyPLF3TqAQ+KLMukt6xG8UtkLgTZTnCc7sWcnmlR/w8dsv8cZ//gH30/vQpQaRH+pB8DVbAq+cJOWOC5rkYMqzw1EkW4a+yfToxPQZCpmq01pb10dNFTxtr+XnzkaeNJp4XFfNVLmWkRIl95WWrKVipLKELq2MZmUe0pgACmO+RxLlzz0XB/Z89RGHNn3G2QNfE+x2GHnSVVKCbSkSeKErCCUrxnm+EsosTyJvneTg+o+xWfE+qz5+i7df+ndc7PZgzAhGn3GPnJCb3HO2JdjZniSfy8iifSiI8SE/yptKy/zU0jAZipmt0/G4uZKZhnIeNlTyqMHEjLmCCYOGkZJi+osljOpVtCvFVIvTkUQFkuHvgTDkDiHOjjjtt2HNx69zaveXXDq2Hr9r+8iLdCIt+BiSFGfUQn8U2X7zIQzSQILdjmOz7A3WL3ubTV8s4oPXX+TK8W2UZwZTK4nFIIwgN8yN0OunCXGxJ8HrHKJwTzICrpMZeBO9IIKO4lxr8LPADOsVDOkV3FfLGNIoGCtTMaiUMKSQMqCWUZOXRlagF6HOTsR6XOGO0wk8zhzAdvtXfLn4dRz2r8Xj7HbcHbYS7XmEOO/9ZIbao8jypCQ/+H8gpqamsGwvsEwO/tmWZTuH2WzmOcv+lJaWFuv2AssWg3+mZQGwHP8H56VMts+Jb8kAAAAASUVORK5CYII=;" vertex="1" parent="1">
          <mxGeometry x="495.5" y="215" width="49" height="46" as="geometry" />
        </mxCell>
        <mxCell id="-SHN1Gf6xoFTMC6ysf_a-55" value="" style="shape=image;verticalLabelPosition=bottom;labelBackgroundColor=#ffffff;verticalAlign=top;aspect=fixed;imageAspect=0;image=data:image/png,iVBORw0KGgoAAAANSUhEUgAAADEAAAAuCAYAAACBHPFSAAAZE0lEQVRoBd2a91Ncd5ru/cPeubOzu2N7ZsdZtpxl2bIsWZZsWdEoJytnEJIASVYEJAEiCAkwIHLO0KSmabrphg40dCI1Tc5J5CiCApZtjWdmt+pzq9tVd6su/gfmnqpvddWpOt3n08/znvO8b32f4/+D47m5uTleeOEFnnvuuX+69fvf/56enh6eGx4eZuHChfg2bsCveiv2Pl9w7spOTtqvZ/ee5Rw6sJaj+9dy+vBGnO23E+l+CkWSL03qdEbMRUy3lPKos5y5niqe9ph51tfI30Za+ft4J3+f7OUf0338faqf/5oZ4L9n+vllrJOfh5t5OtDA4y4TMy3lPGyrZLa1gqkmA2P1ZQxUyWgtSkcZ64vX6b0c/OZzNqz8gP27V3Pj+hGOHF/DWcftbNiwAaPR+D8Q3zdtxV36Ded9d3L1+gGOHl3NkQNfs2fHF+zb+SVHdnyJu8O3FMZ506xOY7hGxkSDipnWMh52GpnrruSHnhp+vt/AL8Mt/G28k7896OUfM/38Y3qAf8wM8Pfp+/wy3smz0VZ+HGzkSXcNjzuqedRexXSz0Qox2aBlsKqIjlIhZWnBJPt8x+XDm9i+ejFffvYO585sx9l1PwcOr5kPEWrai2vsHtz8juF4YQv7965i56albN24BJs1H7F/8woiPc9RVRBLtz6PYVMRo/UqplpKmWnX8birgrnuGn7srePngUZ+Hmrh5+F2fpno5m+Tffx1vIdnox08G26zKjHXV8fDjioetlZYlbCoMNmgY7yulBGzii6dGJ0gjPxQN4IvH+eIzQpWL32fzWuX4Oq6n937VsyHuCvdi3foSbxuH+eU3Rp2bVvKprUf8fknC1i5eAGO+zYiDL1JQ2EivQYxQ+YiRpvUPGjVMtNhZLarikfdJp70mq1WeTrUzI9DrTwbbeeX0S5+Gmrjp8FmnlnO9zfwuMfErOW6Fh0zzTom6jSM1qgZMakZqlbRrZNQLU5Cnfw98becuHpkKxuXfcCqTxZy3nEHtqfXz4fwF5zEP/Q015x3c+zQCjav/ZDF777IO689z5ol73HLYR8yi5WKU+irKGCkTsFEk5qpVi2zHQYedVUz11PLDz21/DTQyE+jrfw00sbPo+08G+ngaX8TP/TXY1FgrsfMk+4qZtsNTDeV8qChhAmzmtFqFaMmNcMmNd06KbWydPTZUeSFeuDtcJD9G5bz6Xsvc2jvV5y7uHU+REDUWTy9j/Ddhc3s2LyYxQtf4NUX/oV3X3uBLV9+zL2b9mgFwbQrMhiokjBWr2CsQclks4bZNh0P24087qpirttshXg21spfx9v561iHVYUnvQ087Knhca+ZJz1m5rqredhZznRzGVMNaiZr1Yyb1IzWqBiqUtCrK6RRmUOlJBl1Wgihrmc5vu1Lln/4GutXf8j5i9vmQ9y9dxp3970c2b+Mzxa9xMvP/45XXvwD77/+Z/ZsXEai/0WqRZG0yFO5X57PSL2c8UalVY3p5lJmWnQ87qxkrqvGqsaPA408G27hp4EmHnfXMdtm4mG7iccdNcy2V/Gwq8IKMdOiZbJezUStigmzijGTipGqYgaMRbRrJdQpcigTRBHtfoEzu9fx9dJ3WLPqA5zO/4YSd4JsOe+wjrWfL+DNl/+d/3zhd7zx0r/x0YIXObt3HZJoL6rzY2hUpNFXns9QlYTBCjH3dUIGjWLGa4qZbdIy125krr2Cp13VPG6rYKZJb11T9Vpmm4w8bC63fk416Jhq0DLdqGOivowxi53MakZqFAxVy+ivKKTLIKVJk4dWGEeM92WcDnzD+s8/wGbDMs462MxXwu3WPg7vXsqKxa/z0ou/5+U//ysLX/4Pvlq8gMCrJynNCMIkjcUsj6dcGIY5L5LKjGCKwtyQh7tREn8bU04E90tzGKsqZLpWyYRZYYV7UGexi4qpuhKm6zVM1pUxZtIwZiphorb016K2AqgYqlYwUF1EX7Wc7nIprVoxOnEy0b7XcDhgw/oVH7Fh/TKOnfyNwj7vtImtGxbzzqt/5JU//4E3X/kji974E8d3fI0oyhOjMAyVIABxnKcVokctoFspoDjKm7DLx/Cy3cGNI5vwPrWLSJdTiIJdqc2PYciiUlUhY5VSJkxF1jVaqWDYWMSQUc5YlZIxk5KxGgUj1XJ69fl0a/Pp0uZzv1JOm15KhUxAYqA7dt9uZN3KRaxZ/TG7962ar8TxgytZtuhlXnn+f/HqS//Gm6/9kdWfLiTopgMlGUHoheHoRDHUqTLpN8oYNSmZatQy1ajjvqGQqtwEREFe+DscxXmvDdcPrEcU5EJHcTodxRkMaPMZKy9k2Cihr0zMfY2YbrWIenEympQgZFE+yGNuUxjpiTTEDVHQdZSJAZgKUzErcsiO9uPErnWsXv4eq79axMbNS+dDbF73Pq++8Dv+8vz/5rVX/sC7C17Advc6JAl+6HLDMYhjqCxMoq4omTZlFt06Ed2GPHr1YgaNMsarVIxVKujRCKnIikAa4YEi+jYN+XG0F6fSV5rLiAVAm0ebPJUGcTy65GACzh7mjM1KTqxbxokNyzm7dRWuBzeS5eeCNjWE4oQAJHEB5Mb5c/rwZlZ8spAVK95l6ecL5kOsWPwXXn3+97zyp3/lLy/+C58teo07106hzYnALE/EpEjFKI5Bn30PY3YE2pQQypKCKEu6R3lGJKaceMoFUVRlRtKQn4hZGIMmIRBD2j3aipIZ0OcxWlVEd5mQ6txIpKHuZPhcIvraaaKdHUm/7Yw44jbFid9TLoyjoySPPr2EZmU2gpBbRPu74HrxOJ8tXsDSJa+z8su350Os/fQNPnjlBRa99TLvv/EnbL5aTJz/Naql8XQb82gvz6OmOBlDTig5gTfwdzyC+8m92G5dy6kdmzi3fyfeDidIuHkRaZAHVRlh6NMjMArC6SxOZdwkZ7pZR1epkIJQTwS+1yiJD6BBnEC3JofhykLGan999wybVfQYJLSqsqmWJlGYco+0SB8CfC6xYtm7LP7oVZYsfXU+xJbP32XtkndY9OYrfPjmX9i79Quyom5RV5zMgEnCcJOKgVo5DUXJxNxw5Mia5RzZvB6br77g7Tff4P13FnL9giPCiEBinB0pi/GnRZ5JjTiBtuI0JmqVPLlfQ2NxBoI7zihjvkeXFoYswouCIHeKonzRJASjTghClRSIOjEIXXo4xfH+ViUEUb4kRvqw+Zsv+OCDV1iy/DfsdGDdUs7tseGbxe+x+PU/ccF2J7Jkf5pVGb9G7uYyZtv0jNcqMUsSEQTcIMz1AuG3XLjrepm7LpcQx4ZRmZ1MVXoUnfJMxs1q2lXZdKoymaxT87i7hjpJOvKYAGpyE8jxvkaOryu+TifZuupT1i37hO1fLcdx32Zu2h7A7/wJkrwvkxrgSmFaCKLUUI4f3MonS97i02XvzFfiyMbleB7fy+n1q9i5cjE+l0+gyQyhs0zImNnyJNIw3VjGbIuW6dZS+soLMBUkYRTGY8pPoyY/nYrMBBrzMxgqlTHbYLBGiB6diK6SLMbMxTzqKKdZkY0+K5oOlRBzViINeekIQ/04sWcTq7+wpOY1fLvha9YvWYT9jo0k33bBKIymoSSLktxYLtjvY8mSt1j66W9A2G5fxb1zJ7n57Vac9qwn2O006vRAWkosWamQyTqVFWSmVc/DNgPTrXomG8sYtrxhq4qs4W3CXMZYjY4xs4Exs86aRu8bJHSXZDNmkjPVXEpHaR5lgnDaS0VMmvX0qqSYspLQJIWTG+pHSoA3sZ6u3Ha0JeH2deoVuQzXa+itLsKQn4TLuaMs+eRNVi57f74SDvs2cvf0AaLO23H54DcEXj9JcaIv9fJEerW5jFXLmKpTM9ts4FFbJY/bq3jSYeJJu+n/5qUn3WYedZmZ7TAx0aCjv0JOjyaXXmUmY+VSpuo09JZJ0KVH0VSYRb+uiKFyNb2lMtrkQmqFydTmxmMWxdOqzGagSslIQxnDjaX0VsnR5cZz1fEg69Z8yrb1n8+HuHH2W26d2Ikq7A4edtsIcD6IMPImFaIo2lQZDBjyGauUMW0u4VGTkR/aqnnWXcdPXfU87azhx55anlpjeAOPuqsZr1HTU5pHjzKL3uIsxvQyZmp19JfJ0SVFUSdMY6RSwUR9KRONeibqtEyaLElWyUStmukmHQ+aDIw36hgxl9CpyUeRHs75U7vZuWUl29Z9Nh8ixO0Unid2EXP5FB4nNhHscpi0e86UZAbTWJRMT0kWg1oR40Y5MzVlzDVX8tfeJn6538Sz3kZ+tAD11vNzXyOPO02MVyroUmTTIc+kR5HNRLmSWbOB0fISqgWJGFNjGDLImW3SW0Ph49Yqfmj/VVmLwo+aK5huNDBRp2PAoKBRno0w1p+TB23Ysu4zdlr67v+3x47zPce9c0fwOrAZl4PriPKwIznoCoWJvpjEMbQXp9FXksOoTsqk5YZqdVYVLBA/99Yx11nD0y4zT7vqeNxSxUBJPs2iFFrEqfRrRDyoVDFdXcZkZSnt8nxK48LpUxfwQ3MFc63V/NBZa73+h06T1a4Pm4xM1WoZqVTTrbY8RDJICHTn8K517LZZxcl9v5FiE+9eIMjxIPGXbLl7ZhfJd5zIjLiOKOYW+qwQGkRx9CoEjJYWMKErYtak5adWM790N/Jj1683MGfpGeqNjOmLaclJojE7gU6pgHGjjMlqNVNVGiYMagZ1anQpsTTlpvLErOdpq8WODfzYVcdcWw3TDUZmavU8qC6z2q9VJkSXlYDfDSeO7lrH8d0buGS3e74SSX7nuXrwG5JcHEm5cYaMwEuIEr3JiXZHlRpAVVYE7QXJDBTnMKqRMFWu4mGNjrn6Cn5ormausYKpag2T5Qq6JAK6hWncl+XSI89lqEzK48YKfuqsZ6pay32NnNq8DFpFAiYNCh7VGXhiUaOthifN1czW6HlQUcqoQUWvSkJTngBZdBA3LxzD7sBmnI5swevi/t+A8HXC+cR27DZ8Ttw1e7LuXUWc7ENWtDuypDsYMkKoy4qhU5xGX3EOI5oCJvUKpis0TFWWMmlUM6aX88BYTEtuPH25qYzI8mjKiEcfGUSb5YbL1XRLhWgigimLDaNBmEavUmQFma3SWEFnzHomjSWMlhXTp5LQJsmhPCUGgZ8bro6HuGi3l1vnDxN4/ch8iNhbZwhwtmXr8oUcWvcp8d5OFCR6I4zzpCDWm7KUQMpTQmjMiqMjP5XewkwGi/MY0xQypi1mSCNj0qjkoakMc1oUsutXyD13htD9uwjct4tc1ytogvxIvnyOG9ts+P74QbLcrtEmSrf+GeP6YqbKS3hgVDJWJmdAKaZDLMCcmYg8MoBIr0t4XDqBy5lDBDjbEel9aj5EmLs9oTdPY7drFTu/XoKH47cUJPogTb2LON4bdXIA2sQgKpNCqE2LpCUngV5pBsOqfEa1cka0ljrRMWPS0qfIR3PHi4IrF9H63kbu6U748aN8v38fHju24/3tTkJPHiHH3YVuaY61hgZLCxkskTKoLKCvMJdWYRrm5GhKwgNIve1MqPdF7ro5YLtrHcE3zxDre2Y+RKyPAyE3T+G0fx171n6Gw8FvEITfQJJ4G1niHUpSAtElB6JPCKI6OdyqSJsohZ6ibIa0UkaNCsYrVIwYFAzrihhVFjCmkDChLmJIVoA5PhpjRAgNglTahJm0CTNoFwnolQu5X5xHn1JMV7GINmkmjVlJVCaEowy5Q7bvdaJvXSTKzxm3q0fZZ7OU21cOk+DvNB9CGO5MuOdZLh3bxKFvlrPfZgWxfheRJPigSg3EmBVBhSCMqvQwagWxtIpS6ZBm0FmUSW9JHoM6KUM6GYNaGcM6OUOaQob1RUyZShkzFNOnzGewTMaEqZQRS20oxLRJc+iQZtMuyaZHIaKrOJem/DTKUyNRhvlSEOBB2m0X4u+4EhXgwpXzezi2ZwUup7cQ4+c4HyI/xpWwW/Zctd3Gsa0r2LH6Y0I9zpAf60lxsj8VuVHUieNpkaTQJEqmqyiLPo2IXk0evSX53C8TM6ArYFBbwLBOwqCxiOEKBdNmHeNVJYxWqJmsKWOipowho4puTSFNslxq89OpE6XTXpRLa6GAdnkW5pwENLEBFIb5khnkQXKQB4Fe5/nu7Hacjq3D9cxWQj1t50MUp7oT7mXPd0c3Weti25eLuX3pEDkRN5HEeFvnoo2yZLo1uXQps+kvE2Nt+MuL6NdLrW1pjyaH/jIhvepsqy0aspMxJcVQm5pAR3427fk5NGYk0yQU0FIopFacSY0oDbM4jUapgAZJKt1qIW2F2VQIolDEB5Id7kNKqBcu3x3ivP1WnB12cMNhO5E+9vMh5GleVp85n9qM3e5VfP3JW3x3bAsZQS7kRbijTgmkTpxIb0kO/VoRQ3opk1VKJkxKuktzaSiIR5fgT47nFfwO7cHz2+1EOtiS5XaVpKtnSXN2IuXqOWLP2RN89gT+J48S950TGZ4uSCJ80SQG0SRJYVAvpVWWSXV2LKWpYeRG+RF51wX7QxtwdtyJ97WDuF3YRajXb0DkxrmRFXYZd8ctnN67hmXvvcpBm5UkeF8kO+Q6RQl+mIRxtBel0VuabbWORYkHtWr6DfnU5cdQkx6GNsiPWDt7fPbvJdnThQppKqUFcRjlKZTkxpB67xa+Z45xdeMGvt+7n5SL5ynwc0cX+z19JSL6jFIapWlUZkajTgolN9IPn6v2HN75OTe/24W/x1HcL+8h/PZv1ERqyGUS/R1wtf+GU3u+ZuVHC9n+1RKCr50ixe8y+VE+GASRNEiSaLWMYSyjG10BYybLgEzBoD6fPo2QfqWYblEOjZGxVATeozQwAE1oILroYDSh/sh83ZG5Xsfo5U9jdDxNgjRqshPpKxUzVqOmQyOiOieO0pRQiuIDSQ++xWW7XZzY8wU3zm0jwv803i77SAi6PN9OGRHORHidxNluA8e2f8Hy915n7ZK38Tizl8hbjmSGeKBJDsWUF0udNInmojS6S3MYKC+0zqBGq4sYNEjpUOTRJM6iIyeHQZGEiXwZ/em53E/OpC8hnfbgKBqCwqgJj6Q8Npry9HjqpRnWwdmoWWntwUtTQymK9UMa7Ueo23mcDtvgcHgNHhe2ExPsiP+to8QHXZoPIQi/SoTHcW7Yb2L/hk/4dOFLLF34Ejdsd+N3+SgJftcojPWnIjOa2vxkGmRptJdlM1hZxFBlMf3aAmudDGgLaRSnY0qNwpwURX1SDOaYKCpCQ6i4F0xV8D2qosMpi7GMfCKpyE3EXJBKv0FKv16CMTsaVXwgRbEBZIX6cNV2J98d34DLGRt8r31LVpwLkf6nSQy5OB8iP+4msd523LDbxLdrF/PJW3/hw1dfxMvhIL4XDuLvakdOqAfa1HBM2YmYRQk0KdLpryxkoq6ENrmAUV0ho5VK+vWF1hhekxFNdWok5YlhlEUFYowLoTIxAl1iKLrUcOryU6kVp9KmFjJaU0KTPAtV4j3U8UHIov0JcHbg0Jbl3L66F+/vtvD9jQPkxLmQHHqelLDfgJAkehDteZIrx9aze81iFi34M++++jy3zx8lzsMB7wuHifI4Z/1yoyCWGlGCdRzTUZLLhLnEailLN2eZfk9WlzCqK6JPJf71JVaUR6dcSK+qgC65iNbCLDoUObQrsmmQpTNsUjJQWYQ+Oxp5XACKuECygjyw27WGA5s/I9zHlohbhwj3OoIo0Y28hBsIoq7NV0Ka6EG421Ec961i26oP+HDBn1nw8n/g43QYSfgtQlxP43fxGIneV1Am3KMmP4GKnCgqsqK4r5MwVKNkwDoV0TFbb2Cm1sDjhkqmzQYmq8p4UKVlutrAqE7NQJnM2tX162X06KQMm1TUyQVIY/xRJt5DGnnX+rs7V3/Eid0rib5jhzDyPLF3TqAQ+KLMukt6xG8UtkLgTZTnCc7sWcnmlR/w8dsv8cZ//gH30/vQpQaRH+pB8DVbAq+cJOWOC5rkYMqzw1EkW4a+yfToxPQZCpmq01pb10dNFTxtr+XnzkaeNJp4XFfNVLmWkRIl95WWrKVipLKELq2MZmUe0pgACmO+RxLlzz0XB/Z89RGHNn3G2QNfE+x2GHnSVVKCbSkSeKErCCUrxnm+EsosTyJvneTg+o+xWfE+qz5+i7df+ndc7PZgzAhGn3GPnJCb3HO2JdjZniSfy8iifSiI8SE/yptKy/zU0jAZipmt0/G4uZKZhnIeNlTyqMHEjLmCCYOGkZJi+osljOpVtCvFVIvTkUQFkuHvgTDkDiHOjjjtt2HNx69zaveXXDq2Hr9r+8iLdCIt+BiSFGfUQn8U2X7zIQzSQILdjmOz7A3WL3ubTV8s4oPXX+TK8W2UZwZTK4nFIIwgN8yN0OunCXGxJ8HrHKJwTzICrpMZeBO9IIKO4lxr8LPADOsVDOkV3FfLGNIoGCtTMaiUMKSQMqCWUZOXRlagF6HOTsR6XOGO0wk8zhzAdvtXfLn4dRz2r8Xj7HbcHbYS7XmEOO/9ZIbao8jypCQ/+H8gpqamsGwvsEwO/tmWZTuH2WzmOcv+lJaWFuv2AssWg3+mZQGwHP8H56VMts+Jb8kAAAAASUVORK5CYII=;" vertex="1" parent="1">
          <mxGeometry x="505.5" y="225" width="49" height="46" as="geometry" />
        </mxCell>
        <mxCell id="-SHN1Gf6xoFTMC6ysf_a-57" style="edgeStyle=orthogonalEdgeStyle;rounded=0;orthogonalLoop=1;jettySize=auto;html=1;exitX=0.5;exitY=1;exitDx=0;exitDy=0;entryX=0.911;entryY=-0.05;entryDx=0;entryDy=0;entryPerimeter=0;" edge="1" parent="1" source="-SHN1Gf6xoFTMC6ysf_a-56" target="-SHN1Gf6xoFTMC6ysf_a-39">
          <mxGeometry relative="1" as="geometry" />
        </mxCell>
        <mxCell id="-SHN1Gf6xoFTMC6ysf_a-56" value="" style="shape=image;verticalLabelPosition=bottom;labelBackgroundColor=#ffffff;verticalAlign=top;aspect=fixed;imageAspect=0;image=data:image/png,iVBORw0KGgoAAAANSUhEUgAAADEAAAAuCAYAAACBHPFSAAAZE0lEQVRoBd2a91Ncd5ru/cPeubOzu2N7ZsdZtpxl2bIsWZZsWdEoJytnEJIASVYEJAEiCAkwIHLO0KSmabrphg40dCI1Tc5J5CiCApZtjWdmt+pzq9tVd6su/gfmnqpvddWpOt3n08/znvO8b32f4/+D47m5uTleeOEFnnvuuX+69fvf/56enh6eGx4eZuHChfg2bsCveiv2Pl9w7spOTtqvZ/ee5Rw6sJaj+9dy+vBGnO23E+l+CkWSL03qdEbMRUy3lPKos5y5niqe9ph51tfI30Za+ft4J3+f7OUf0338faqf/5oZ4L9n+vllrJOfh5t5OtDA4y4TMy3lPGyrZLa1gqkmA2P1ZQxUyWgtSkcZ64vX6b0c/OZzNqz8gP27V3Pj+hGOHF/DWcftbNiwAaPR+D8Q3zdtxV36Ded9d3L1+gGOHl3NkQNfs2fHF+zb+SVHdnyJu8O3FMZ506xOY7hGxkSDipnWMh52GpnrruSHnhp+vt/AL8Mt/G28k7896OUfM/38Y3qAf8wM8Pfp+/wy3smz0VZ+HGzkSXcNjzuqedRexXSz0Qox2aBlsKqIjlIhZWnBJPt8x+XDm9i+ejFffvYO585sx9l1PwcOr5kPEWrai2vsHtz8juF4YQv7965i56albN24BJs1H7F/8woiPc9RVRBLtz6PYVMRo/UqplpKmWnX8birgrnuGn7srePngUZ+Hmrh5+F2fpno5m+Tffx1vIdnox08G26zKjHXV8fDjioetlZYlbCoMNmgY7yulBGzii6dGJ0gjPxQN4IvH+eIzQpWL32fzWuX4Oq6n937VsyHuCvdi3foSbxuH+eU3Rp2bVvKprUf8fknC1i5eAGO+zYiDL1JQ2EivQYxQ+YiRpvUPGjVMtNhZLarikfdJp70mq1WeTrUzI9DrTwbbeeX0S5+Gmrjp8FmnlnO9zfwuMfErOW6Fh0zzTom6jSM1qgZMakZqlbRrZNQLU5Cnfw98becuHpkKxuXfcCqTxZy3nEHtqfXz4fwF5zEP/Q015x3c+zQCjav/ZDF777IO689z5ol73HLYR8yi5WKU+irKGCkTsFEk5qpVi2zHQYedVUz11PLDz21/DTQyE+jrfw00sbPo+08G+ngaX8TP/TXY1FgrsfMk+4qZtsNTDeV8qChhAmzmtFqFaMmNcMmNd06KbWydPTZUeSFeuDtcJD9G5bz6Xsvc2jvV5y7uHU+REDUWTy9j/Ddhc3s2LyYxQtf4NUX/oV3X3uBLV9+zL2b9mgFwbQrMhiokjBWr2CsQclks4bZNh0P24087qpirttshXg21spfx9v561iHVYUnvQ087Knhca+ZJz1m5rqredhZznRzGVMNaiZr1Yyb1IzWqBiqUtCrK6RRmUOlJBl1Wgihrmc5vu1Lln/4GutXf8j5i9vmQ9y9dxp3970c2b+Mzxa9xMvP/45XXvwD77/+Z/ZsXEai/0WqRZG0yFO5X57PSL2c8UalVY3p5lJmWnQ87qxkrqvGqsaPA408G27hp4EmHnfXMdtm4mG7iccdNcy2V/Gwq8IKMdOiZbJezUStigmzijGTipGqYgaMRbRrJdQpcigTRBHtfoEzu9fx9dJ3WLPqA5zO/4YSd4JsOe+wjrWfL+DNl/+d/3zhd7zx0r/x0YIXObt3HZJoL6rzY2hUpNFXns9QlYTBCjH3dUIGjWLGa4qZbdIy125krr2Cp13VPG6rYKZJb11T9Vpmm4w8bC63fk416Jhq0DLdqGOivowxi53MakZqFAxVy+ivKKTLIKVJk4dWGEeM92WcDnzD+s8/wGbDMs462MxXwu3WPg7vXsqKxa/z0ou/5+U//ysLX/4Pvlq8gMCrJynNCMIkjcUsj6dcGIY5L5LKjGCKwtyQh7tREn8bU04E90tzGKsqZLpWyYRZYYV7UGexi4qpuhKm6zVM1pUxZtIwZiphorb016K2AqgYqlYwUF1EX7Wc7nIprVoxOnEy0b7XcDhgw/oVH7Fh/TKOnfyNwj7vtImtGxbzzqt/5JU//4E3X/kji974E8d3fI0oyhOjMAyVIABxnKcVokctoFspoDjKm7DLx/Cy3cGNI5vwPrWLSJdTiIJdqc2PYciiUlUhY5VSJkxF1jVaqWDYWMSQUc5YlZIxk5KxGgUj1XJ69fl0a/Pp0uZzv1JOm15KhUxAYqA7dt9uZN3KRaxZ/TG7962ar8TxgytZtuhlXnn+f/HqS//Gm6/9kdWfLiTopgMlGUHoheHoRDHUqTLpN8oYNSmZatQy1ajjvqGQqtwEREFe+DscxXmvDdcPrEcU5EJHcTodxRkMaPMZKy9k2Cihr0zMfY2YbrWIenEympQgZFE+yGNuUxjpiTTEDVHQdZSJAZgKUzErcsiO9uPErnWsXv4eq79axMbNS+dDbF73Pq++8Dv+8vz/5rVX/sC7C17Advc6JAl+6HLDMYhjqCxMoq4omTZlFt06Ed2GPHr1YgaNMsarVIxVKujRCKnIikAa4YEi+jYN+XG0F6fSV5rLiAVAm0ebPJUGcTy65GACzh7mjM1KTqxbxokNyzm7dRWuBzeS5eeCNjWE4oQAJHEB5Mb5c/rwZlZ8spAVK95l6ecL5kOsWPwXXn3+97zyp3/lLy/+C58teo07106hzYnALE/EpEjFKI5Bn30PY3YE2pQQypKCKEu6R3lGJKaceMoFUVRlRtKQn4hZGIMmIRBD2j3aipIZ0OcxWlVEd5mQ6txIpKHuZPhcIvraaaKdHUm/7Yw44jbFid9TLoyjoySPPr2EZmU2gpBbRPu74HrxOJ8tXsDSJa+z8su350Os/fQNPnjlBRa99TLvv/EnbL5aTJz/Naql8XQb82gvz6OmOBlDTig5gTfwdzyC+8m92G5dy6kdmzi3fyfeDidIuHkRaZAHVRlh6NMjMArC6SxOZdwkZ7pZR1epkIJQTwS+1yiJD6BBnEC3JofhykLGan999wybVfQYJLSqsqmWJlGYco+0SB8CfC6xYtm7LP7oVZYsfXU+xJbP32XtkndY9OYrfPjmX9i79Quyom5RV5zMgEnCcJOKgVo5DUXJxNxw5Mia5RzZvB6br77g7Tff4P13FnL9giPCiEBinB0pi/GnRZ5JjTiBtuI0JmqVPLlfQ2NxBoI7zihjvkeXFoYswouCIHeKonzRJASjTghClRSIOjEIXXo4xfH+ViUEUb4kRvqw+Zsv+OCDV1iy/DfsdGDdUs7tseGbxe+x+PU/ccF2J7Jkf5pVGb9G7uYyZtv0jNcqMUsSEQTcIMz1AuG3XLjrepm7LpcQx4ZRmZ1MVXoUnfJMxs1q2lXZdKoymaxT87i7hjpJOvKYAGpyE8jxvkaOryu+TifZuupT1i37hO1fLcdx32Zu2h7A7/wJkrwvkxrgSmFaCKLUUI4f3MonS97i02XvzFfiyMbleB7fy+n1q9i5cjE+l0+gyQyhs0zImNnyJNIw3VjGbIuW6dZS+soLMBUkYRTGY8pPoyY/nYrMBBrzMxgqlTHbYLBGiB6diK6SLMbMxTzqKKdZkY0+K5oOlRBzViINeekIQ/04sWcTq7+wpOY1fLvha9YvWYT9jo0k33bBKIymoSSLktxYLtjvY8mSt1j66W9A2G5fxb1zJ7n57Vac9qwn2O006vRAWkosWamQyTqVFWSmVc/DNgPTrXomG8sYtrxhq4qs4W3CXMZYjY4xs4Exs86aRu8bJHSXZDNmkjPVXEpHaR5lgnDaS0VMmvX0qqSYspLQJIWTG+pHSoA3sZ6u3Ha0JeH2deoVuQzXa+itLsKQn4TLuaMs+eRNVi57f74SDvs2cvf0AaLO23H54DcEXj9JcaIv9fJEerW5jFXLmKpTM9ts4FFbJY/bq3jSYeJJu+n/5qUn3WYedZmZ7TAx0aCjv0JOjyaXXmUmY+VSpuo09JZJ0KVH0VSYRb+uiKFyNb2lMtrkQmqFydTmxmMWxdOqzGagSslIQxnDjaX0VsnR5cZz1fEg69Z8yrb1n8+HuHH2W26d2Ikq7A4edtsIcD6IMPImFaIo2lQZDBjyGauUMW0u4VGTkR/aqnnWXcdPXfU87azhx55anlpjeAOPuqsZr1HTU5pHjzKL3uIsxvQyZmp19JfJ0SVFUSdMY6RSwUR9KRONeibqtEyaLElWyUStmukmHQ+aDIw36hgxl9CpyUeRHs75U7vZuWUl29Z9Nh8ixO0Unid2EXP5FB4nNhHscpi0e86UZAbTWJRMT0kWg1oR40Y5MzVlzDVX8tfeJn6538Sz3kZ+tAD11vNzXyOPO02MVyroUmTTIc+kR5HNRLmSWbOB0fISqgWJGFNjGDLImW3SW0Ph49Yqfmj/VVmLwo+aK5huNDBRp2PAoKBRno0w1p+TB23Ysu4zdlr67v+3x47zPce9c0fwOrAZl4PriPKwIznoCoWJvpjEMbQXp9FXksOoTsqk5YZqdVYVLBA/99Yx11nD0y4zT7vqeNxSxUBJPs2iFFrEqfRrRDyoVDFdXcZkZSnt8nxK48LpUxfwQ3MFc63V/NBZa73+h06T1a4Pm4xM1WoZqVTTrbY8RDJICHTn8K517LZZxcl9v5FiE+9eIMjxIPGXbLl7ZhfJd5zIjLiOKOYW+qwQGkRx9CoEjJYWMKErYtak5adWM790N/Jj1683MGfpGeqNjOmLaclJojE7gU6pgHGjjMlqNVNVGiYMagZ1anQpsTTlpvLErOdpq8WODfzYVcdcWw3TDUZmavU8qC6z2q9VJkSXlYDfDSeO7lrH8d0buGS3e74SSX7nuXrwG5JcHEm5cYaMwEuIEr3JiXZHlRpAVVYE7QXJDBTnMKqRMFWu4mGNjrn6Cn5ormausYKpag2T5Qq6JAK6hWncl+XSI89lqEzK48YKfuqsZ6pay32NnNq8DFpFAiYNCh7VGXhiUaOthifN1czW6HlQUcqoQUWvSkJTngBZdBA3LxzD7sBmnI5swevi/t+A8HXC+cR27DZ8Ttw1e7LuXUWc7ENWtDuypDsYMkKoy4qhU5xGX3EOI5oCJvUKpis0TFWWMmlUM6aX88BYTEtuPH25qYzI8mjKiEcfGUSb5YbL1XRLhWgigimLDaNBmEavUmQFma3SWEFnzHomjSWMlhXTp5LQJsmhPCUGgZ8bro6HuGi3l1vnDxN4/ch8iNhbZwhwtmXr8oUcWvcp8d5OFCR6I4zzpCDWm7KUQMpTQmjMiqMjP5XewkwGi/MY0xQypi1mSCNj0qjkoakMc1oUsutXyD13htD9uwjct4tc1ytogvxIvnyOG9ts+P74QbLcrtEmSrf+GeP6YqbKS3hgVDJWJmdAKaZDLMCcmYg8MoBIr0t4XDqBy5lDBDjbEel9aj5EmLs9oTdPY7drFTu/XoKH47cUJPogTb2LON4bdXIA2sQgKpNCqE2LpCUngV5pBsOqfEa1cka0ljrRMWPS0qfIR3PHi4IrF9H63kbu6U748aN8v38fHju24/3tTkJPHiHH3YVuaY61hgZLCxkskTKoLKCvMJdWYRrm5GhKwgNIve1MqPdF7ro5YLtrHcE3zxDre2Y+RKyPAyE3T+G0fx171n6Gw8FvEITfQJJ4G1niHUpSAtElB6JPCKI6OdyqSJsohZ6ibIa0UkaNCsYrVIwYFAzrihhVFjCmkDChLmJIVoA5PhpjRAgNglTahJm0CTNoFwnolQu5X5xHn1JMV7GINmkmjVlJVCaEowy5Q7bvdaJvXSTKzxm3q0fZZ7OU21cOk+DvNB9CGO5MuOdZLh3bxKFvlrPfZgWxfheRJPigSg3EmBVBhSCMqvQwagWxtIpS6ZBm0FmUSW9JHoM6KUM6GYNaGcM6OUOaQob1RUyZShkzFNOnzGewTMaEqZQRS20oxLRJc+iQZtMuyaZHIaKrOJem/DTKUyNRhvlSEOBB2m0X4u+4EhXgwpXzezi2ZwUup7cQ4+c4HyI/xpWwW/Zctd3Gsa0r2LH6Y0I9zpAf60lxsj8VuVHUieNpkaTQJEqmqyiLPo2IXk0evSX53C8TM6ArYFBbwLBOwqCxiOEKBdNmHeNVJYxWqJmsKWOipowho4puTSFNslxq89OpE6XTXpRLa6GAdnkW5pwENLEBFIb5khnkQXKQB4Fe5/nu7Hacjq3D9cxWQj1t50MUp7oT7mXPd0c3Weti25eLuX3pEDkRN5HEeFvnoo2yZLo1uXQps+kvE2Nt+MuL6NdLrW1pjyaH/jIhvepsqy0aspMxJcVQm5pAR3427fk5NGYk0yQU0FIopFacSY0oDbM4jUapgAZJKt1qIW2F2VQIolDEB5Id7kNKqBcu3x3ivP1WnB12cMNhO5E+9vMh5GleVp85n9qM3e5VfP3JW3x3bAsZQS7kRbijTgmkTpxIb0kO/VoRQ3opk1VKJkxKuktzaSiIR5fgT47nFfwO7cHz2+1EOtiS5XaVpKtnSXN2IuXqOWLP2RN89gT+J48S950TGZ4uSCJ80SQG0SRJYVAvpVWWSXV2LKWpYeRG+RF51wX7QxtwdtyJ97WDuF3YRajXb0DkxrmRFXYZd8ctnN67hmXvvcpBm5UkeF8kO+Q6RQl+mIRxtBel0VuabbWORYkHtWr6DfnU5cdQkx6GNsiPWDt7fPbvJdnThQppKqUFcRjlKZTkxpB67xa+Z45xdeMGvt+7n5SL5ynwc0cX+z19JSL6jFIapWlUZkajTgolN9IPn6v2HN75OTe/24W/x1HcL+8h/PZv1ERqyGUS/R1wtf+GU3u+ZuVHC9n+1RKCr50ixe8y+VE+GASRNEiSaLWMYSyjG10BYybLgEzBoD6fPo2QfqWYblEOjZGxVATeozQwAE1oILroYDSh/sh83ZG5Xsfo5U9jdDxNgjRqshPpKxUzVqOmQyOiOieO0pRQiuIDSQ++xWW7XZzY8wU3zm0jwv803i77SAi6PN9OGRHORHidxNluA8e2f8Hy915n7ZK38Tizl8hbjmSGeKBJDsWUF0udNInmojS6S3MYKC+0zqBGq4sYNEjpUOTRJM6iIyeHQZGEiXwZ/em53E/OpC8hnfbgKBqCwqgJj6Q8Npry9HjqpRnWwdmoWWntwUtTQymK9UMa7Ueo23mcDtvgcHgNHhe2ExPsiP+to8QHXZoPIQi/SoTHcW7Yb2L/hk/4dOFLLF34Ejdsd+N3+SgJftcojPWnIjOa2vxkGmRptJdlM1hZxFBlMf3aAmudDGgLaRSnY0qNwpwURX1SDOaYKCpCQ6i4F0xV8D2qosMpi7GMfCKpyE3EXJBKv0FKv16CMTsaVXwgRbEBZIX6cNV2J98d34DLGRt8r31LVpwLkf6nSQy5OB8iP+4msd523LDbxLdrF/PJW3/hw1dfxMvhIL4XDuLvakdOqAfa1HBM2YmYRQk0KdLpryxkoq6ENrmAUV0ho5VK+vWF1hhekxFNdWok5YlhlEUFYowLoTIxAl1iKLrUcOryU6kVp9KmFjJaU0KTPAtV4j3U8UHIov0JcHbg0Jbl3L66F+/vtvD9jQPkxLmQHHqelLDfgJAkehDteZIrx9aze81iFi34M++++jy3zx8lzsMB7wuHifI4Z/1yoyCWGlGCdRzTUZLLhLnEailLN2eZfk9WlzCqK6JPJf71JVaUR6dcSK+qgC65iNbCLDoUObQrsmmQpTNsUjJQWYQ+Oxp5XACKuECygjyw27WGA5s/I9zHlohbhwj3OoIo0Y28hBsIoq7NV0Ka6EG421Ec961i26oP+HDBn1nw8n/g43QYSfgtQlxP43fxGIneV1Am3KMmP4GKnCgqsqK4r5MwVKNkwDoV0TFbb2Cm1sDjhkqmzQYmq8p4UKVlutrAqE7NQJnM2tX162X06KQMm1TUyQVIY/xRJt5DGnnX+rs7V3/Eid0rib5jhzDyPLF3TqAQ+KLMukt6xG8UtkLgTZTnCc7sWcnmlR/w8dsv8cZ//gH30/vQpQaRH+pB8DVbAq+cJOWOC5rkYMqzw1EkW4a+yfToxPQZCpmq01pb10dNFTxtr+XnzkaeNJp4XFfNVLmWkRIl95WWrKVipLKELq2MZmUe0pgACmO+RxLlzz0XB/Z89RGHNn3G2QNfE+x2GHnSVVKCbSkSeKErCCUrxnm+EsosTyJvneTg+o+xWfE+qz5+i7df+ndc7PZgzAhGn3GPnJCb3HO2JdjZniSfy8iifSiI8SE/yptKy/zU0jAZipmt0/G4uZKZhnIeNlTyqMHEjLmCCYOGkZJi+osljOpVtCvFVIvTkUQFkuHvgTDkDiHOjjjtt2HNx69zaveXXDq2Hr9r+8iLdCIt+BiSFGfUQn8U2X7zIQzSQILdjmOz7A3WL3ubTV8s4oPXX+TK8W2UZwZTK4nFIIwgN8yN0OunCXGxJ8HrHKJwTzICrpMZeBO9IIKO4lxr8LPADOsVDOkV3FfLGNIoGCtTMaiUMKSQMqCWUZOXRlagF6HOTsR6XOGO0wk8zhzAdvtXfLn4dRz2r8Xj7HbcHbYS7XmEOO/9ZIbao8jypCQ/+H8gpqamsGwvsEwO/tmWZTuH2WzmOcv+lJaWFuv2AssWg3+mZQGwHP8H56VMts+Jb8kAAAAASUVORK5CYII=;" vertex="1" parent="1">
          <mxGeometry x="515.5" y="235" width="49" height="46" as="geometry" />
        </mxCell>
        <mxCell id="-SHN1Gf6xoFTMC6ysf_a-58" value="" style="rounded=1;whiteSpace=wrap;html=1;fillColor=#fff2cc;strokeColor=#d6b656;" vertex="1" parent="1">
          <mxGeometry x="701" y="102" width="120" height="90" as="geometry" />
        </mxCell>
        <mxCell id="-SHN1Gf6xoFTMC6ysf_a-59" value="&lt;font style=&quot;font-size: 18px&quot;&gt;$$T_{0}$$&lt;/font&gt;" style="text;html=1;strokeColor=none;fillColor=none;align=center;verticalAlign=middle;whiteSpace=wrap;rounded=0;" vertex="1" parent="1">
          <mxGeometry x="741" y="140" width="40" height="20" as="geometry" />
        </mxCell>
        <mxCell id="-SHN1Gf6xoFTMC6ysf_a-60" value="&lt;span style=&quot;font-size: 18px&quot;&gt;$$\cdots$$&lt;/span&gt;" style="rounded=1;whiteSpace=wrap;html=1;fillColor=#fff2cc;strokeColor=#d6b656;" vertex="1" parent="1">
          <mxGeometry x="701" y="192" width="120" height="60" as="geometry" />
        </mxCell>
        <mxCell id="-SHN1Gf6xoFTMC6ysf_a-61" value="&lt;span style=&quot;font-size: 18px&quot;&gt;$$T_{n}$$&lt;/span&gt;" style="rounded=1;whiteSpace=wrap;html=1;fillColor=#fff2cc;strokeColor=#d6b656;" vertex="1" parent="1">
          <mxGeometry x="701" y="252" width="120" height="90" as="geometry" />
        </mxCell>
        <mxCell id="-SHN1Gf6xoFTMC6ysf_a-64" value="&lt;font style=&quot;font-size: 24px&quot; face=&quot;Times New Roman&quot;&gt;&lt;b&gt;Separated audio&lt;/b&gt;&lt;/font&gt;" style="text;html=1;strokeColor=none;fillColor=none;align=center;verticalAlign=middle;whiteSpace=wrap;rounded=0;" vertex="1" parent="1">
          <mxGeometry x="650" y="65" width="229" height="30" as="geometry" />
        </mxCell>
        <mxCell id="-SHN1Gf6xoFTMC6ysf_a-67" style="edgeStyle=orthogonalEdgeStyle;rounded=0;orthogonalLoop=1;jettySize=auto;html=1;exitX=1;exitY=0.5;exitDx=0;exitDy=0;" edge="1" parent="1" target="-SHN1Gf6xoFTMC6ysf_a-66">
          <mxGeometry relative="1" as="geometry">
            <mxPoint x="158.5" y="455" as="sourcePoint" />
          </mxGeometry>
        </mxCell>
        <mxCell id="-SHN1Gf6xoFTMC6ysf_a-65" value="&lt;font style=&quot;font-size: 24px&quot; face=&quot;Times New Roman&quot;&gt;&lt;b&gt;Mixture&amp;nbsp;&lt;/b&gt;&lt;/font&gt;" style="text;html=1;strokeColor=none;fillColor=none;align=center;verticalAlign=middle;whiteSpace=wrap;rounded=0;" vertex="1" parent="1">
          <mxGeometry x="35.5" y="440" width="160" height="30" as="geometry" />
        </mxCell>
        <mxCell id="-SHN1Gf6xoFTMC6ysf_a-69" style="edgeStyle=orthogonalEdgeStyle;rounded=0;orthogonalLoop=1;jettySize=auto;html=1;exitX=1;exitY=0.5;exitDx=0;exitDy=0;" edge="1" parent="1" source="-SHN1Gf6xoFTMC6ysf_a-66" target="-SHN1Gf6xoFTMC6ysf_a-68">
          <mxGeometry relative="1" as="geometry" />
        </mxCell>
        <mxCell id="-SHN1Gf6xoFTMC6ysf_a-66" value="&lt;font face=&quot;Times New Roman&quot;&gt;&lt;span style=&quot;font-size: 18px&quot;&gt;encoder&lt;/span&gt;&lt;/font&gt;" style="rounded=1;whiteSpace=wrap;html=1;fillColor=#d5e8d4;strokeColor=#82b366;" vertex="1" parent="1">
          <mxGeometry x="195.5" y="435" width="90" height="40" as="geometry" />
        </mxCell>
        <mxCell id="-SHN1Gf6xoFTMC6ysf_a-68" value="&lt;font face=&quot;Times New Roman&quot;&gt;&lt;span style=&quot;font-size: 18px&quot;&gt;TCN block&lt;/span&gt;&lt;/font&gt;" style="rounded=1;whiteSpace=wrap;html=1;fillColor=#d5e8d4;strokeColor=#82b366;" vertex="1" parent="1">
          <mxGeometry x="333.5" y="435" width="90" height="40" as="geometry" />
        </mxCell>
        <mxCell id="-SHN1Gf6xoFTMC6ysf_a-70" style="edgeStyle=orthogonalEdgeStyle;rounded=0;orthogonalLoop=1;jettySize=auto;html=1;exitX=1;exitY=0.5;exitDx=0;exitDy=0;entryX=0;entryY=0.5;entryDx=0;entryDy=0;" edge="1" parent="1" target="-SHN1Gf6xoFTMC6ysf_a-72">
          <mxGeometry relative="1" as="geometry">
            <mxPoint x="423.5" y="455" as="sourcePoint" />
          </mxGeometry>
        </mxCell>
        <mxCell id="-SHN1Gf6xoFTMC6ysf_a-71" style="edgeStyle=orthogonalEdgeStyle;rounded=0;orthogonalLoop=1;jettySize=auto;html=1;exitX=1;exitY=0.5;exitDx=0;exitDy=0;" edge="1" parent="1" source="-SHN1Gf6xoFTMC6ysf_a-72">
          <mxGeometry relative="1" as="geometry">
            <mxPoint x="575.5" y="455" as="targetPoint" />
          </mxGeometry>
        </mxCell>
        <mxCell id="-SHN1Gf6xoFTMC6ysf_a-72" value="&lt;font face=&quot;Times New Roman&quot;&gt;&lt;span style=&quot;font-size: 18px&quot;&gt;decoder&lt;/span&gt;&lt;/font&gt;" style="rounded=1;whiteSpace=wrap;html=1;fillColor=#d5e8d4;strokeColor=#82b366;" vertex="1" parent="1">
          <mxGeometry x="459.5" y="435" width="90" height="40" as="geometry" />
        </mxCell>
        <mxCell id="-SHN1Gf6xoFTMC6ysf_a-75" style="edgeStyle=orthogonalEdgeStyle;rounded=0;orthogonalLoop=1;jettySize=auto;html=1;exitX=1;exitY=0.5;exitDx=0;exitDy=0;entryX=0;entryY=0.5;entryDx=0;entryDy=0;" edge="1" parent="1" source="-SHN1Gf6xoFTMC6ysf_a-73" target="-SHN1Gf6xoFTMC6ysf_a-74">
          <mxGeometry relative="1" as="geometry" />
        </mxCell>
        <mxCell id="-SHN1Gf6xoFTMC6ysf_a-73" value="&lt;font face=&quot;Times New Roman&quot;&gt;&lt;span style=&quot;font-size: 18px&quot;&gt;encoder&lt;/span&gt;&lt;/font&gt;" style="rounded=1;whiteSpace=wrap;html=1;fillColor=#d5e8d4;strokeColor=#82b366;" vertex="1" parent="1">
          <mxGeometry x="576.5" y="435" width="90" height="40" as="geometry" />
        </mxCell>
        <mxCell id="-SHN1Gf6xoFTMC6ysf_a-77" style="edgeStyle=orthogonalEdgeStyle;rounded=0;orthogonalLoop=1;jettySize=auto;html=1;exitX=1;exitY=0.5;exitDx=0;exitDy=0;entryX=0;entryY=0.5;entryDx=0;entryDy=0;" edge="1" parent="1" source="-SHN1Gf6xoFTMC6ysf_a-74" target="-SHN1Gf6xoFTMC6ysf_a-76">
          <mxGeometry relative="1" as="geometry" />
        </mxCell>
        <mxCell id="-SHN1Gf6xoFTMC6ysf_a-74" value="&lt;font face=&quot;Times New Roman&quot;&gt;&lt;span style=&quot;font-size: 18px&quot;&gt;LSTM&lt;/span&gt;&lt;/font&gt;" style="rounded=1;whiteSpace=wrap;html=1;fillColor=#d5e8d4;strokeColor=#82b366;" vertex="1" parent="1">
          <mxGeometry x="697" y="435" width="90" height="40" as="geometry" />
        </mxCell>
        <mxCell id="-SHN1Gf6xoFTMC6ysf_a-78" style="edgeStyle=orthogonalEdgeStyle;rounded=0;orthogonalLoop=1;jettySize=auto;html=1;exitX=1;exitY=0.5;exitDx=0;exitDy=0;" edge="1" parent="1" source="-SHN1Gf6xoFTMC6ysf_a-76">
          <mxGeometry relative="1" as="geometry">
            <mxPoint x="920.5" y="455" as="targetPoint" />
          </mxGeometry>
        </mxCell>
        <mxCell id="-SHN1Gf6xoFTMC6ysf_a-76" value="&lt;font face=&quot;Times New Roman&quot;&gt;&lt;span style=&quot;font-size: 18px&quot;&gt;Memory&lt;/span&gt;&lt;/font&gt;" style="rounded=1;whiteSpace=wrap;html=1;fillColor=#d5e8d4;strokeColor=#82b366;" vertex="1" parent="1">
          <mxGeometry x="810.5" y="435" width="90" height="40" as="geometry" />
        </mxCell>
        <mxCell id="-SHN1Gf6xoFTMC6ysf_a-79" value="$$W_{n},V_{n}$$" style="text;html=1;strokeColor=none;fillColor=none;align=center;verticalAlign=middle;whiteSpace=wrap;rounded=0;" vertex="1" parent="1">
          <mxGeometry x="930.5" y="445" width="40" height="20" as="geometry" />
        </mxCell>
        <mxCell id="-SHN1Gf6xoFTMC6ysf_a-81" style="edgeStyle=orthogonalEdgeStyle;rounded=0;orthogonalLoop=1;jettySize=auto;html=1;exitX=0.5;exitY=1;exitDx=0;exitDy=0;entryX=0.5;entryY=0;entryDx=0;entryDy=0;" edge="1" parent="1" target="-SHN1Gf6xoFTMC6ysf_a-76">
          <mxGeometry relative="1" as="geometry">
            <mxPoint x="855.5" y="420" as="sourcePoint" />
          </mxGeometry>
        </mxCell>
        <mxCell id="-SHN1Gf6xoFTMC6ysf_a-80" value="$$W_{n-1}$$" style="text;html=1;strokeColor=none;fillColor=none;align=center;verticalAlign=middle;whiteSpace=wrap;rounded=0;" vertex="1" parent="1">
          <mxGeometry x="839" y="392.5" width="40" height="20" as="geometry" />
        </mxCell>
        <mxCell id="-SHN1Gf6xoFTMC6ysf_a-82" value="" style="shape=image;verticalLabelPosition=bottom;labelBackgroundColor=#ffffff;verticalAlign=top;aspect=fixed;imageAspect=0;image=data:image/png,iVBORw0KGgoAAAANSUhEUgAAADEAAAAtCAYAAAAHiIP8AAAZNUlEQVRoBdWZZ3OUZ7au/Rfm0z7nTNh7PA6AMRkTlAMIG3swYGwwORkQIIIEyq1upY5SS63OuaUO6qBuJYTIIKGMIhKSAEkEg7PHM3X25+vU29gWdWr+wP5wV1d1qH6u515rPWs97xsxMTHDb7zxBv9T9ev630A5sYHKR5v4yrCcFYl/Yt3aBaxd9yZxMW8Tv24BaYlLObwzhQuH/4429xh+RR63LXJG3GqmAhpmQjqeNpl51mrjeauDry+5+PZqHd/f8PHPzgj/t7uJn+808POdMD92NPD9LT/f3/Dzst3Dk2YHj8IWxjw1dBulNMtzqMjYz7HPkjm280M+3xRH3Kp3iVm3kPikZSxb+SbvLPojn+zeQGbV6d82/w0qJj5EOpbKhlN/JnnjKlJSl7Nu/ZskrH2bjWvfY/+OFEqyDxIyS7nX7Gas1ctkay0PG63MNVl53mThxSUHLy47eXm5lm/a6/j+upd/dDbw330t/HdfK790NfNLVys/3w3z3Z16vrvl45urnijwdMDAkLOSu4ZS2pQFVJ4+wNldm8k58gUnPv+Ij9YvYeXCP7NyyZssXPR/eHvhH1mybgFZFWfnIQQnysdT+TjrTeKSlpCYtJTkhIV8lLKUL7bEkXNqJ7WaQjoazIy3upkI25gK23kUsfO0xcnXbbW8vOLm5ZVavhZA2mv5/qaPn7sa+Fd/C//qb+WX7gg/3w3x4x3BBS/fXfPwTbub58JmBM1MePX0WZQ0y/OwF5zBI8snoClDkrGfzzd+QMLqd4hZvZDly//G39753yxZ9S4bP0uYh1CMp6J8mMKe8oWsjXuL9esXkJq4iN07kjh1ZCvywuNcqlMx3FbH/SYno349D4JGHoVNzDZZedpi50Wbk2+u1PKi3cWL9lq+u+Hll+4w/+xr5l+CE92N/NgR4OeOAD/crOdlex0vWl08a3IyE7LxKGRlst7IUJ2WwXoLY80eukN29MXnObAlnrTY94lZtYCVKxaweMl/8taC/8WymHdeg5hIRfVoA1+WLmTF6v9k9cq/kbZhCft2pnD2+A70iiyuelUMhE1MROxMBM1MBgzMRmxRzUUsPG+x8eKyK+rGt9c8/HDLxy89Yf7Z28wvPYIa+akzyE+3A/xwvT4aci9aXDwL23gSsjEbsvEk7ORpi4fZS37Gm9z0NzjwqAvJ2PMRn25YRcK691ix7G2Wr3iLJcveZHXMgnmIiulNFA8nkpz+R5avfJOYtQtITlzE1k/WcHz/R1gqL3DVI6PPr+FBg5UHAoTfzOOQnScRR3QhL5ocvLxUiwAgJLQA8bOw6K6GqH7oCPDdTS/fXvfwjZA3rU5eNL/67ZMGK3MhO3NhJ7NhJ9MNTsbDdQyFnTQZypFk7GbPlnhS45awbu0ili97i9WrF7FqzWtOyKY3UtybQurB/yJWCKXkJcTGLSA1aRFf7U7GoT7LJaeEHl8FE0EDD/wGpvxGZhqsPGu087zRxstWF99deRXr31338POdAP/oCEbzQHDgh9v1/HhLCCMnT5ssfN1k5VnEwtOwJboRsxEHsxEnjxuEXHNwP+zkXsBOu6UCxYXD7N+ayIb4JcStW8yqFQLEQpYtf3PeCcVUKrlt8cRv+zMJ6xeSkrSYuPiFpCa9x4l9KdhUGbQ6xFGI8aCBhxE7DxtszIQdfN1ax8u2Or657OXHG0F+vBHghxs+frzl46eOAD/dDUaTWQAT3v/+uo+XVzy8aKvjabODJ40O5hqdzDW5mG1y8bjRwcOIg9GgjR6vmTazirIz+znwaQKbk1cRu2YRq1e9zeoPFrJy1VuvQUxv4OKlGOI/+xMJMYtISXqf2PgFbEx5n5MH0nCoz9NiE9HrUTLRaGa61cXDJgePIw6ettTyos3Nt1d8/HQrxD8E3Q7yc0eQnwR1ChUpEM0F4f1fOiP8oyPCN1e8PLtUy1yzk5lGB7MtLh63uHjU7GAq4mDQZ6bDqeWSWUnZmX3s+ySWrWnrSFi/OBpSH3zw/zkhm06jqCue5H1/Yf3ad0lOWkxsvODIIk4dSsNZdZ4mSyF3PQqGAjUM+Grod6sZ8VbzIFDDdEjPXJOFZ5fsvLxcx3fXfPx4O8R31/18fzPwu3644eebdg+zTfZoVZtttjLdYGTCr2XMX8OIv5qJiJHxsI0et57rlkraTEo0+Sc5sCWRTzeuISVuGeuFvFj+FstXvD3vhHIyiaKeODYc+Stx6xe+yomE94iPfZszJzZj12cSshfQZC3CXnISWfo2ig9+TPnhT5Ef244240vqxSe5a5Qw4VXzKKznccTE44iRuWYLc01mpoJa+q1ltJafRZv+GaqjWzCc34/m3F6kx7ZTkbET3cV9eErP0uPVcteno92uijphL7nIka0pbIp7n+SYpcSsWsjKZe+wctXC1yAmkpCPbmRbwbvExP8XKQnvsW7t28St/xvZZ7djN13AojlDUcY2LuzZwNkdCWR9kcKpT2LZn7CU3TGLOJS4mPL9H9JUmkGntpBRp4JJbxXT/hpGXUr6zaWERcdQHtjMqbRV7Fv3LvtiFnF801rObktCcmhrVNk7N1J24nNCWjGXa9W02FS4lSLO7v6ETTGLohBxaxazds0i1qx9fx5CMZZCxeRGjrtXsvbD/yA+dgErV/6FpNh3kIqPYDFkknv27+Qe+Yha8WmuaSR0msro0IlpV16gXvQVmmNbUR/aguXkTlpLTkchZhsMzIVNjDmVXFNk4cs+gPXMLlwXD+LN+4qW8kw6dBIGbAoGnRV0m2SEy7IoO7wV0ZHtuFS5hAxl1FeXID65j4/jl7IhdgkJ65fywZqFrPtgyTyEfDQF6UQyJQNpbE5/hw/W/o2Vq/7Clo9Woqs8T4XsK3LSN2MtSqe9SsxVZT43lTl0q/PpUOfQWnqKQN5hwuIThMXpNJdmMOiURw8+oRUZ96m5WZ3HFWUWN7T5tFdeoLHkJFcUZ+nW5NGtzedmxUVuqwvo0kmj/ZP+wlGqs7/CrcqnQS+juvAMOzatY1PCUuJjlrJ27UJiXoeQjaUgvZ+K+vGHfKVdyurYPxEXu5jD+9KwGbJRlx+mumA/7uLTmDIPYDizF9mBrZzdmszp7alkfZ6G8vA2jOk7iBSn06Y4z/XKi8w1GvmmzcGwS0anrpA+axntikxsJ7/AemwnlXu3IN3zMeW7N6M7tgtrxiFsGUeJFF8kJL1AXckZgtUiWh1VONXFHN7xIWnxy4hZt4T4uMWsXf/evBPS0VSkoymopjeQ6VvDmtQ/kpq6gjMnt1FrycelPY9XmYEley/5u1LJ3JFExp5PSE1cy5Jli/li2xZqK0qxZR+lqfgk19U5tMnOMeWr5kmDgU5NAXdqCpjwV9NWepraU7toVxdTdPIIq5ctZcnChexITuL8Z5+Qt/1DtCd2E5FlccUgoc1STpujCp9OSvruLSTFLiEudikbkpYSG790HqJ8NIXykWQqpjdyxr+GVRv/g7QNS8nM2I7bWkijs4h2YwGO/IPI07ejOL4DZ34GNVknkJ87Rl1pHjc0pXRoRXSbRFxXX+RaRTYP63VMuau5oy7gVlUuox4VA9YSejRFdOvLiChFyDJOUHDwAMr040gP7qby6C6s5w/RrMpmoF5DR52adqeagFHBid0fkxq/lLi494ldv4i45OXzELKxVOT3BSfSOOZdSsKuv7Jxw2IunNmBzyHmqq+c7lop1w0FXDVLuFpTyBXZOToqs7mryee28iJ3pJkMG4rpM4ppLj/NgE3K46CJKbeWTo2YG+pcei0l3K9XM2pX0aMqoktVSJ+2mI7KfG4ocmmX5XFTU8odk5Qehzx6ZvT7dVxzVhGxVnBq/xY2JCwhKWkF8TFLOHloyzyEYigV2WgC0skULjYksHnfu6Rteo/ci7sJe+R0BqsZ8qsZrVcz5tcxFqhhMqzjYUQfTdo+Uwm9xlJGbHI6qwtolZ1lIqBhLmxjut5Cp0nO1coCBqxSRpxK7gnDlUnKiFXBlFfDlE/DpEfNpLuaCZ+WsXodE34d0xErg34DN13VtDjVnDu2g4S499mcto7sg59hyEyfhygbSUQ2loRqeDOSmo/YlrKQbR+vQFJ8mEafgrshLWMtQhuu5VGTmcctVmZahcHIEF3s/foqHgS1jNSpuKsTc1Wdy0RQw7NGG3MRB3fNCq6pi+jSlzJeJ5wdOqbqtUx4qpn01fA4ZGS2wcRcyIjQ1j9pcb4aW5sdDAVNXHepaXZUkJOxm9SEpRzf9QkVp/eT9VHiPIRkNIny0VTUfVsQZSVwaMV77N28ipLivYR9pXQFtDxocfK40c5syMxMUM9c2Mhcg/DnBmZDhuhCxt1VdOlLuKUVM+7XMCe8HzDSa1VyW1dKr0XBqLuKWaF7bbEzGzYzEzLyJGxmNmhgLmh41RVfcvOszcPMpToGAnrarDJC5nKKsg6w8+8x5B7ajv7UQWpPHJyHKB9OQzKchGogDWf1Z2g+/ZiMtLUoiw7grxVx06NiPGiKTl9zfhOz7hqe1ht4FjQyF9QzU6/nsV/PQ5+WHkM5/c5KpoWDLqDjSdDAfY+W29pSeqxKxtzV0V1/ecnFi2Y7X0csvAhbeR4w83XAzLMGW3SmEDraqSYHXW41Yb0Er05Med5Rjn2xkarMw9y1VHC5IPt1iGRKhxMoG0vA33iIa5lnsB3dibbkBE5bLpfsIgZcCkZcVUx7tcwIqtfystHC8wZjdMcfBXWMe6u4ay5jPKjnSaON71od/Nhey9Mm4ayooduqYsKnYy5oRBiiXg1GVl5GrHwbtvPMZ2CmVtgUKxN+EwNuDTdMMgLqAmzKi+iVF1DlncSdn8FEfQ0dVbLXIRIpH06k5H4c1pufc112jluFF7HI0zHrz9BgyOaWuYR79spoHD+sfxUqzyImnkUMzAZ1PApoGalVcEtbyGCtMgr2zxtCW97IhEfHoFVFt1HOqKuauZDwOwsvhdlcGGubXoE8E6bFWj2PvCbu1xu466ygtUaCW5GDrvwcFk0+LbVVtFcU8CJoYqxW9xrEUAJlw4mUDscjH9hAwH2EDlURdYpTmDQnqK+5wFVzMX0OJaN1FUz5a5gJG5ht0PMkouNZxMjTBgMdFbnoD23DlbGfQV0xD+wV9OmkNOafxJW+m9D5dO7KxTwPCWFj4utGKy+abTxvtPC0wcSMT890nZZxt45BTw03LXIi1SIciovo5JnYawpp0BVxz63hSdjOZN1rEGVD8fymopE4qjq30V5XQKQyH5P6OAHtBdp0BdyyFjPkrOCBr5rpkI6HDVrmmvQ8azTxNKCnXXQK3Rcfc2TZ26iP7KCt7ALeU/s5sOSvbH/nz2g+205Txglm3DpeNFh4HjbxJPyqODyq1zLtrWGyTsuoS0OXRcFVXQmNNWIs8kxqpOdxa8WMtTp40RnhfoOH27WV806UDiYhqGwwCclQPCWDKYQuX+SyuRRTxbFoOF01FdFpK2ewTs2EMAhFZwY9M7868TxooF18muZzhwik70O+PY3qvdvQ7d+B6egeQlmnuHw2nYYTB5iyV/FN2MHzkImn0eJgjObalKeG8Tot9xxqOswyrpukhGskmOUX0Msyaa+r5kVPG9NXPAwF3IQaxfMQZYMpvFIq5YOJFI8k4uw6R9irRK8+TdCYzU1LKT1OJUP1aiYatDxsMjLTZGC2USi3QiXSM+5QcFeaw6BCzISpggFtOUMmBdMuLeNaBXcLs+mTi3no0vLMb+FZ0MwTASJk4oFXy7TfyP16PQNCgXBVcNOmIFRTjFWVh6Uyj4hdSrOllPsRF1ddarRXDv97iLLBZIqHY9F27iboLcOhysSvz+KmXUGPt5LhUDVTzSYetph5JEA0G5iJCOeBjoc+DVMeoV8yMhuw8EQ4U+r1PPToGLdrGLfpeFxrYqbOwJxXADdG5w3hgJtptPEwYuVB2M5gwEyXUJlscoI1YmyV+RhVOTRYyjDmZ3DdqMXty6S8b/M8ROm9ZH5T8UAy4sFEyrs3UKPfi7noBN7qTK7ayugOqBlt1jPZYuLhJQszbRZmWvQ8CuuY9GsYr6tkxK5i2FHJdL2wwzYmXDXRajPh1DJqrWbcVs20Q8PDOh0zfgNPmizMNdt41GxnWrhcbhJuOkx0u6u5alFQXy3Gqs6jqvgkPsVFrhtEuO0nqejYRtFg7DxEyUASUfUnUtKXhOReIpLBFEraNyA3bMdZeYZWo4gOt5ShUBUTzUYmm408ajUz3WiI9k/DLjn3hJyxljPiUDIbMDMbsjPpNfLQa2KyVseQVcWQRcG4rYJxp5oHHi2Pw+YoxHSTnalLLqZaXQwHTXTVVtFmlONVi7Go8tGYj6Ns3Iri8iZkvR9SNJyIpD9+HkJwQYAoFiAEDSZQPJCEUKkkTRswVBwlosvnpr2UPq+K0bCO8QZ9FGCsvopeSyldBgn3LFLGHCru2yuYsFYy4zEz4dIxpFcyZqpk3KHhQa2WMWc1g7aK6E34fU9N9Gp/KmLlfqON0UYHwyETnXWVtBjL8VSJMcpzqHQfoeheCvlD6ykaiKN0QIB47UL5NycEiOKBBIrvxSEWvjSURFF7CqqaL6mvyqFFX0CHQ8agX8NwfTXjoRqG3Eq6jRJuV4u4WSnikug8/vRDeA/uJXjkIIGjh/Ht30/w0CFazpziVmkR/aYqxur0jHm03BdKa8jIZIOR+w1mhhvM9Pv03HJV0KQvo7aiAI3sHOqGA9E1ifrjEffFU9yXgKTv9QawLwFxb/wrDcQiGYinSHBiKIGizmRKDVupU14gpHlVpfo8avrdSoZ9KkZ9Kjq1Rdgy9lH4cSKStGQMW7fi2v451g+3Ytzwdzyf7iT85SF8X+zFvH0nhi/3EMjMoENTzJivKtosjof0jDWYGQwauOvWcM2uJCycEdIsZOUnqWj7EtFgDKLeeIp646JrlfS9Fk6/hZLghKQ/DklvHEX98YgG4igajKOwbhNa6TFCVTm0akTcscvo91Uw4JEz4lPSby+nXZFDfe4pIufP0H4ig1vHztKXkcPAuXxGMkUMZYm4lyNmqFxJV3k5HTIJPbpSJuqro237WEjLcMBAt7uK62YZrfpSvBX5VBWeRlqejurqbgrvxSLuTUTcK2z6v3FC8qs94v44xH2xSIQv9sVH6QuvpCBRbqFOepawModWbQGdLin9PgXDfqHD1TDgUNKhK6dbXU5fWTHdhfn0FuTRLypksEjEmKycaYOGhy4TUx4L47VaJoVQCmt5ENYwGqym11XJdVMZLZoiAoo8DCWZlGV9hUp2BuWVfQihJOlLRiIUn1/167PGN+ZDSQipgTjEQm70JkVV1J8Upc51JqCS7CMgv0BjVTbthkI6nWUM+isZ9lVwz6Wky1jGFUUut5T59FQX06UspFOaR7+6mEG9lCGLkiGnmiGnhnGvgfF6PSM+NcP1lfS5ldy2lHNZK6GxSkRt2UUUuccpPncIXeUFlO17KOiPoSjqwL+BEFwQcqK4L5HiPmHRSRT1J1DUn0hhfyIF92IpvB5HftlHWMWnCaou0KzJ44ZZQk+dnP5aOb32crospdyozOOWMpcuTRG91UX0qAoY0JYwKIykxjL6jVL6zXKGhQrlVNNjk9HjktPlknHDXEprtQifLBtd4WkKzu5FmpuOXS+i4soe8vrWIoqGkhBSr/S7E79BCIlSHN35ZER9iRQMJFDYF0ehsAMdcWRKk5Fn7aNOfpbG6lxuWCR01cmiIL1OKd1mCR0a4SIsm9tVedwzlDBmkjHpquSBu4oRm4xenYQujZgeXRm9xjJ6rOX0OGXRqnfVWEqkugBr8XlKTu+n4OwBzPICvNYyVO27yetbQ2FPHKLuef0O8Xtl6o1HIhD2JVDUG4OoJx5RTwKi/hhEnYkUVm6m4MSnqHL24VdlcllXQKdTGr3y7/coGRTKr7U8ekk2aJczUVvFjNfA03ozc8Lh12Bh0q9l2Klk0K6g11pGr11wQsUtm5xLWmF2uEDZ+UPkHtuFRpxJRCsn6ChDdmUvOf3rKehdj6g7BlF3bFS/Qwhx9htIUV8sot4kJD2p0ev+IiHMRuIo7k9Gpt+B7Mwe8o58gib7AAFlFpd0hdy2lzEgjLD+ah7Ua5gS+qiQnimvnrl6My+ER1n1whxtiT7jmw4amazXM+qppr+2kltmKe3GMvyqPCqzj5B1ZAey3OP4a0q5ZqghbFegvLKXPGEzhcrZE/+75iF6hA9+UzzirkRK7yYjHoglpz+G042rOVi5nArVIeyS85Sm7yB73ybUF/fjKssgrLrIHXMpIx41973qaN0XLgRGnFVM1+qY85iineyD2hru19Vw36Njwic8Ka3mjuWVA15FDuqLR8k5+BklZ47hUUu4Yq3gpsNEg1VOdfN+iu7FUtCzDlFPHGIhpHri5tsOIe5f0SVEX0VdieT3xnO8aTX7Mj9gT9wHbFu6BG3hSYKaAsxFGRQe/pTzu1KjQFXn9xGUZXJNJ6bbIqXPrqDPIqffKOeeXs6QTsa9GikDehl9JuEzFT0WJbdNUkLKXMwFp5BlHCDrwFZKTh2kTinimlVNV52Jbq8Ov7qEXV8kc162Bdm17dENz++JJ7/rV4g//OEP//jVkt+o/ke9Cuv/f7Q3Dlq7dpkoAAAAAElFTkSuQmCC;" vertex="1" parent="1">
          <mxGeometry x="270" y="347.5" width="49" height="45" as="geometry" />
        </mxCell>
        <mxCell id="-SHN1Gf6xoFTMC6ysf_a-83" value="" style="shape=image;verticalLabelPosition=bottom;labelBackgroundColor=#ffffff;verticalAlign=top;aspect=fixed;imageAspect=0;image=data:image/png,iVBORw0KGgoAAAANSUhEUgAAADEAAAAtCAYAAAAHiIP8AAAZNUlEQVRoBdWZZ3OUZ7au/Rfm0z7nTNh7PA6AMRkTlAMIG3swYGwwORkQIIIEyq1upY5SS63OuaUO6qBuJYTIIKGMIhKSAEkEg7PHM3X25+vU29gWdWr+wP5wV1d1qH6u515rPWs97xsxMTHDb7zxBv9T9ev630A5sYHKR5v4yrCcFYl/Yt3aBaxd9yZxMW8Tv24BaYlLObwzhQuH/4429xh+RR63LXJG3GqmAhpmQjqeNpl51mrjeauDry+5+PZqHd/f8PHPzgj/t7uJn+808POdMD92NPD9LT/f3/Dzst3Dk2YHj8IWxjw1dBulNMtzqMjYz7HPkjm280M+3xRH3Kp3iVm3kPikZSxb+SbvLPojn+zeQGbV6d82/w0qJj5EOpbKhlN/JnnjKlJSl7Nu/ZskrH2bjWvfY/+OFEqyDxIyS7nX7Gas1ctkay0PG63MNVl53mThxSUHLy47eXm5lm/a6/j+upd/dDbw330t/HdfK790NfNLVys/3w3z3Z16vrvl45urnijwdMDAkLOSu4ZS2pQFVJ4+wNldm8k58gUnPv+Ij9YvYeXCP7NyyZssXPR/eHvhH1mybgFZFWfnIQQnysdT+TjrTeKSlpCYtJTkhIV8lLKUL7bEkXNqJ7WaQjoazIy3upkI25gK23kUsfO0xcnXbbW8vOLm5ZVavhZA2mv5/qaPn7sa+Fd/C//qb+WX7gg/3w3x4x3BBS/fXfPwTbub58JmBM1MePX0WZQ0y/OwF5zBI8snoClDkrGfzzd+QMLqd4hZvZDly//G39753yxZ9S4bP0uYh1CMp6J8mMKe8oWsjXuL9esXkJq4iN07kjh1ZCvywuNcqlMx3FbH/SYno349D4JGHoVNzDZZedpi50Wbk2+u1PKi3cWL9lq+u+Hll+4w/+xr5l+CE92N/NgR4OeOAD/crOdlex0vWl08a3IyE7LxKGRlst7IUJ2WwXoLY80eukN29MXnObAlnrTY94lZtYCVKxaweMl/8taC/8WymHdeg5hIRfVoA1+WLmTF6v9k9cq/kbZhCft2pnD2+A70iiyuelUMhE1MROxMBM1MBgzMRmxRzUUsPG+x8eKyK+rGt9c8/HDLxy89Yf7Z28wvPYIa+akzyE+3A/xwvT4aci9aXDwL23gSsjEbsvEk7ORpi4fZS37Gm9z0NzjwqAvJ2PMRn25YRcK691ix7G2Wr3iLJcveZHXMgnmIiulNFA8nkpz+R5avfJOYtQtITlzE1k/WcHz/R1gqL3DVI6PPr+FBg5UHAoTfzOOQnScRR3QhL5ocvLxUiwAgJLQA8bOw6K6GqH7oCPDdTS/fXvfwjZA3rU5eNL/67ZMGK3MhO3NhJ7NhJ9MNTsbDdQyFnTQZypFk7GbPlnhS45awbu0ili97i9WrF7FqzWtOyKY3UtybQurB/yJWCKXkJcTGLSA1aRFf7U7GoT7LJaeEHl8FE0EDD/wGpvxGZhqsPGu087zRxstWF99deRXr31338POdAP/oCEbzQHDgh9v1/HhLCCMnT5ssfN1k5VnEwtOwJboRsxEHsxEnjxuEXHNwP+zkXsBOu6UCxYXD7N+ayIb4JcStW8yqFQLEQpYtf3PeCcVUKrlt8cRv+zMJ6xeSkrSYuPiFpCa9x4l9KdhUGbQ6xFGI8aCBhxE7DxtszIQdfN1ax8u2Or657OXHG0F+vBHghxs+frzl46eOAD/dDUaTWQAT3v/+uo+XVzy8aKvjabODJ40O5hqdzDW5mG1y8bjRwcOIg9GgjR6vmTazirIz+znwaQKbk1cRu2YRq1e9zeoPFrJy1VuvQUxv4OKlGOI/+xMJMYtISXqf2PgFbEx5n5MH0nCoz9NiE9HrUTLRaGa61cXDJgePIw6ettTyos3Nt1d8/HQrxD8E3Q7yc0eQnwR1ChUpEM0F4f1fOiP8oyPCN1e8PLtUy1yzk5lGB7MtLh63uHjU7GAq4mDQZ6bDqeWSWUnZmX3s+ySWrWnrSFi/OBpSH3zw/zkhm06jqCue5H1/Yf3ad0lOWkxsvODIIk4dSsNZdZ4mSyF3PQqGAjUM+Grod6sZ8VbzIFDDdEjPXJOFZ5fsvLxcx3fXfPx4O8R31/18fzPwu3644eebdg+zTfZoVZtttjLdYGTCr2XMX8OIv5qJiJHxsI0et57rlkraTEo0+Sc5sCWRTzeuISVuGeuFvFj+FstXvD3vhHIyiaKeODYc+Stx6xe+yomE94iPfZszJzZj12cSshfQZC3CXnISWfo2ig9+TPnhT5Ef244240vqxSe5a5Qw4VXzKKznccTE44iRuWYLc01mpoJa+q1ltJafRZv+GaqjWzCc34/m3F6kx7ZTkbET3cV9eErP0uPVcteno92uijphL7nIka0pbIp7n+SYpcSsWsjKZe+wctXC1yAmkpCPbmRbwbvExP8XKQnvsW7t28St/xvZZ7djN13AojlDUcY2LuzZwNkdCWR9kcKpT2LZn7CU3TGLOJS4mPL9H9JUmkGntpBRp4JJbxXT/hpGXUr6zaWERcdQHtjMqbRV7Fv3LvtiFnF801rObktCcmhrVNk7N1J24nNCWjGXa9W02FS4lSLO7v6ETTGLohBxaxazds0i1qx9fx5CMZZCxeRGjrtXsvbD/yA+dgErV/6FpNh3kIqPYDFkknv27+Qe+Yha8WmuaSR0msro0IlpV16gXvQVmmNbUR/aguXkTlpLTkchZhsMzIVNjDmVXFNk4cs+gPXMLlwXD+LN+4qW8kw6dBIGbAoGnRV0m2SEy7IoO7wV0ZHtuFS5hAxl1FeXID65j4/jl7IhdgkJ65fywZqFrPtgyTyEfDQF6UQyJQNpbE5/hw/W/o2Vq/7Clo9Woqs8T4XsK3LSN2MtSqe9SsxVZT43lTl0q/PpUOfQWnqKQN5hwuIThMXpNJdmMOiURw8+oRUZ96m5WZ3HFWUWN7T5tFdeoLHkJFcUZ+nW5NGtzedmxUVuqwvo0kmj/ZP+wlGqs7/CrcqnQS+juvAMOzatY1PCUuJjlrJ27UJiXoeQjaUgvZ+K+vGHfKVdyurYPxEXu5jD+9KwGbJRlx+mumA/7uLTmDIPYDizF9mBrZzdmszp7alkfZ6G8vA2jOk7iBSn06Y4z/XKi8w1GvmmzcGwS0anrpA+axntikxsJ7/AemwnlXu3IN3zMeW7N6M7tgtrxiFsGUeJFF8kJL1AXckZgtUiWh1VONXFHN7xIWnxy4hZt4T4uMWsXf/evBPS0VSkoymopjeQ6VvDmtQ/kpq6gjMnt1FrycelPY9XmYEley/5u1LJ3JFExp5PSE1cy5Jli/li2xZqK0qxZR+lqfgk19U5tMnOMeWr5kmDgU5NAXdqCpjwV9NWepraU7toVxdTdPIIq5ctZcnChexITuL8Z5+Qt/1DtCd2E5FlccUgoc1STpujCp9OSvruLSTFLiEudikbkpYSG790HqJ8NIXykWQqpjdyxr+GVRv/g7QNS8nM2I7bWkijs4h2YwGO/IPI07ejOL4DZ34GNVknkJ87Rl1pHjc0pXRoRXSbRFxXX+RaRTYP63VMuau5oy7gVlUuox4VA9YSejRFdOvLiChFyDJOUHDwAMr040gP7qby6C6s5w/RrMpmoF5DR52adqeagFHBid0fkxq/lLi494ldv4i45OXzELKxVOT3BSfSOOZdSsKuv7Jxw2IunNmBzyHmqq+c7lop1w0FXDVLuFpTyBXZOToqs7mryee28iJ3pJkMG4rpM4ppLj/NgE3K46CJKbeWTo2YG+pcei0l3K9XM2pX0aMqoktVSJ+2mI7KfG4ocmmX5XFTU8odk5Qehzx6ZvT7dVxzVhGxVnBq/xY2JCwhKWkF8TFLOHloyzyEYigV2WgC0skULjYksHnfu6Rteo/ci7sJe+R0BqsZ8qsZrVcz5tcxFqhhMqzjYUQfTdo+Uwm9xlJGbHI6qwtolZ1lIqBhLmxjut5Cp0nO1coCBqxSRpxK7gnDlUnKiFXBlFfDlE/DpEfNpLuaCZ+WsXodE34d0xErg34DN13VtDjVnDu2g4S499mcto7sg59hyEyfhygbSUQ2loRqeDOSmo/YlrKQbR+vQFJ8mEafgrshLWMtQhuu5VGTmcctVmZahcHIEF3s/foqHgS1jNSpuKsTc1Wdy0RQw7NGG3MRB3fNCq6pi+jSlzJeJ5wdOqbqtUx4qpn01fA4ZGS2wcRcyIjQ1j9pcb4aW5sdDAVNXHepaXZUkJOxm9SEpRzf9QkVp/eT9VHiPIRkNIny0VTUfVsQZSVwaMV77N28ipLivYR9pXQFtDxocfK40c5syMxMUM9c2Mhcg/DnBmZDhuhCxt1VdOlLuKUVM+7XMCe8HzDSa1VyW1dKr0XBqLuKWaF7bbEzGzYzEzLyJGxmNmhgLmh41RVfcvOszcPMpToGAnrarDJC5nKKsg6w8+8x5B7ajv7UQWpPHJyHKB9OQzKchGogDWf1Z2g+/ZiMtLUoiw7grxVx06NiPGiKTl9zfhOz7hqe1ht4FjQyF9QzU6/nsV/PQ5+WHkM5/c5KpoWDLqDjSdDAfY+W29pSeqxKxtzV0V1/ecnFi2Y7X0csvAhbeR4w83XAzLMGW3SmEDraqSYHXW41Yb0Er05Med5Rjn2xkarMw9y1VHC5IPt1iGRKhxMoG0vA33iIa5lnsB3dibbkBE5bLpfsIgZcCkZcVUx7tcwIqtfystHC8wZjdMcfBXWMe6u4ay5jPKjnSaON71od/Nhey9Mm4ayooduqYsKnYy5oRBiiXg1GVl5GrHwbtvPMZ2CmVtgUKxN+EwNuDTdMMgLqAmzKi+iVF1DlncSdn8FEfQ0dVbLXIRIpH06k5H4c1pufc112jluFF7HI0zHrz9BgyOaWuYR79spoHD+sfxUqzyImnkUMzAZ1PApoGalVcEtbyGCtMgr2zxtCW97IhEfHoFVFt1HOqKuauZDwOwsvhdlcGGubXoE8E6bFWj2PvCbu1xu466ygtUaCW5GDrvwcFk0+LbVVtFcU8CJoYqxW9xrEUAJlw4mUDscjH9hAwH2EDlURdYpTmDQnqK+5wFVzMX0OJaN1FUz5a5gJG5ht0PMkouNZxMjTBgMdFbnoD23DlbGfQV0xD+wV9OmkNOafxJW+m9D5dO7KxTwPCWFj4utGKy+abTxvtPC0wcSMT890nZZxt45BTw03LXIi1SIciovo5JnYawpp0BVxz63hSdjOZN1rEGVD8fymopE4qjq30V5XQKQyH5P6OAHtBdp0BdyyFjPkrOCBr5rpkI6HDVrmmvQ8azTxNKCnXXQK3Rcfc2TZ26iP7KCt7ALeU/s5sOSvbH/nz2g+205Txglm3DpeNFh4HjbxJPyqODyq1zLtrWGyTsuoS0OXRcFVXQmNNWIs8kxqpOdxa8WMtTp40RnhfoOH27WV806UDiYhqGwwCclQPCWDKYQuX+SyuRRTxbFoOF01FdFpK2ewTs2EMAhFZwY9M7868TxooF18muZzhwik70O+PY3qvdvQ7d+B6egeQlmnuHw2nYYTB5iyV/FN2MHzkImn0eJgjObalKeG8Tot9xxqOswyrpukhGskmOUX0Msyaa+r5kVPG9NXPAwF3IQaxfMQZYMpvFIq5YOJFI8k4uw6R9irRK8+TdCYzU1LKT1OJUP1aiYatDxsMjLTZGC2USi3QiXSM+5QcFeaw6BCzISpggFtOUMmBdMuLeNaBXcLs+mTi3no0vLMb+FZ0MwTASJk4oFXy7TfyP16PQNCgXBVcNOmIFRTjFWVh6Uyj4hdSrOllPsRF1ddarRXDv97iLLBZIqHY9F27iboLcOhysSvz+KmXUGPt5LhUDVTzSYetph5JEA0G5iJCOeBjoc+DVMeoV8yMhuw8EQ4U+r1PPToGLdrGLfpeFxrYqbOwJxXADdG5w3hgJtptPEwYuVB2M5gwEyXUJlscoI1YmyV+RhVOTRYyjDmZ3DdqMXty6S8b/M8ROm9ZH5T8UAy4sFEyrs3UKPfi7noBN7qTK7ayugOqBlt1jPZYuLhJQszbRZmWvQ8CuuY9GsYr6tkxK5i2FHJdL2wwzYmXDXRajPh1DJqrWbcVs20Q8PDOh0zfgNPmizMNdt41GxnWrhcbhJuOkx0u6u5alFQXy3Gqs6jqvgkPsVFrhtEuO0nqejYRtFg7DxEyUASUfUnUtKXhOReIpLBFEraNyA3bMdZeYZWo4gOt5ShUBUTzUYmm408ajUz3WiI9k/DLjn3hJyxljPiUDIbMDMbsjPpNfLQa2KyVseQVcWQRcG4rYJxp5oHHi2Pw+YoxHSTnalLLqZaXQwHTXTVVtFmlONVi7Go8tGYj6Ns3Iri8iZkvR9SNJyIpD9+HkJwQYAoFiAEDSZQPJCEUKkkTRswVBwlosvnpr2UPq+K0bCO8QZ9FGCsvopeSyldBgn3LFLGHCru2yuYsFYy4zEz4dIxpFcyZqpk3KHhQa2WMWc1g7aK6E34fU9N9Gp/KmLlfqON0UYHwyETnXWVtBjL8VSJMcpzqHQfoeheCvlD6ykaiKN0QIB47UL5NycEiOKBBIrvxSEWvjSURFF7CqqaL6mvyqFFX0CHQ8agX8NwfTXjoRqG3Eq6jRJuV4u4WSnikug8/vRDeA/uJXjkIIGjh/Ht30/w0CFazpziVmkR/aYqxur0jHm03BdKa8jIZIOR+w1mhhvM9Pv03HJV0KQvo7aiAI3sHOqGA9E1ifrjEffFU9yXgKTv9QawLwFxb/wrDcQiGYinSHBiKIGizmRKDVupU14gpHlVpfo8avrdSoZ9KkZ9Kjq1Rdgy9lH4cSKStGQMW7fi2v451g+3Ytzwdzyf7iT85SF8X+zFvH0nhi/3EMjMoENTzJivKtosjof0jDWYGQwauOvWcM2uJCycEdIsZOUnqWj7EtFgDKLeeIp646JrlfS9Fk6/hZLghKQ/DklvHEX98YgG4igajKOwbhNa6TFCVTm0akTcscvo91Uw4JEz4lPSby+nXZFDfe4pIufP0H4ig1vHztKXkcPAuXxGMkUMZYm4lyNmqFxJV3k5HTIJPbpSJuqro237WEjLcMBAt7uK62YZrfpSvBX5VBWeRlqejurqbgrvxSLuTUTcK2z6v3FC8qs94v44xH2xSIQv9sVH6QuvpCBRbqFOepawModWbQGdLin9PgXDfqHD1TDgUNKhK6dbXU5fWTHdhfn0FuTRLypksEjEmKycaYOGhy4TUx4L47VaJoVQCmt5ENYwGqym11XJdVMZLZoiAoo8DCWZlGV9hUp2BuWVfQihJOlLRiIUn1/167PGN+ZDSQipgTjEQm70JkVV1J8Upc51JqCS7CMgv0BjVTbthkI6nWUM+isZ9lVwz6Wky1jGFUUut5T59FQX06UspFOaR7+6mEG9lCGLkiGnmiGnhnGvgfF6PSM+NcP1lfS5ldy2lHNZK6GxSkRt2UUUuccpPncIXeUFlO17KOiPoSjqwL+BEFwQcqK4L5HiPmHRSRT1J1DUn0hhfyIF92IpvB5HftlHWMWnCaou0KzJ44ZZQk+dnP5aOb32crospdyozOOWMpcuTRG91UX0qAoY0JYwKIykxjL6jVL6zXKGhQrlVNNjk9HjktPlknHDXEprtQifLBtd4WkKzu5FmpuOXS+i4soe8vrWIoqGkhBSr/S7E79BCIlSHN35ZER9iRQMJFDYF0ehsAMdcWRKk5Fn7aNOfpbG6lxuWCR01cmiIL1OKd1mCR0a4SIsm9tVedwzlDBmkjHpquSBu4oRm4xenYQujZgeXRm9xjJ6rOX0OGXRqnfVWEqkugBr8XlKTu+n4OwBzPICvNYyVO27yetbQ2FPHKLuef0O8Xtl6o1HIhD2JVDUG4OoJx5RTwKi/hhEnYkUVm6m4MSnqHL24VdlcllXQKdTGr3y7/coGRTKr7U8ekk2aJczUVvFjNfA03ozc8Lh12Bh0q9l2Klk0K6g11pGr11wQsUtm5xLWmF2uEDZ+UPkHtuFRpxJRCsn6ChDdmUvOf3rKehdj6g7BlF3bFS/Qwhx9htIUV8sot4kJD2p0ev+IiHMRuIo7k9Gpt+B7Mwe8o58gib7AAFlFpd0hdy2lzEgjLD+ah7Ua5gS+qiQnimvnrl6My+ER1n1whxtiT7jmw4amazXM+qppr+2kltmKe3GMvyqPCqzj5B1ZAey3OP4a0q5ZqghbFegvLKXPGEzhcrZE/+75iF6hA9+UzzirkRK7yYjHoglpz+G042rOVi5nArVIeyS85Sm7yB73ybUF/fjKssgrLrIHXMpIx41973qaN0XLgRGnFVM1+qY85iineyD2hru19Vw36Njwic8Ka3mjuWVA15FDuqLR8k5+BklZ47hUUu4Yq3gpsNEg1VOdfN+iu7FUtCzDlFPHGIhpHri5tsOIe5f0SVEX0VdieT3xnO8aTX7Mj9gT9wHbFu6BG3hSYKaAsxFGRQe/pTzu1KjQFXn9xGUZXJNJ6bbIqXPrqDPIqffKOeeXs6QTsa9GikDehl9JuEzFT0WJbdNUkLKXMwFp5BlHCDrwFZKTh2kTinimlVNV52Jbq8Ov7qEXV8kc162Bdm17dENz++JJ7/rV4g//OEP//jVkt+o/ke9Cuv/f7Q3Dlq7dpkoAAAAAElFTkSuQmCC;" vertex="1" parent="1">
          <mxGeometry x="280" y="357.5" width="49" height="45" as="geometry" />
        </mxCell>
        <mxCell id="-SHN1Gf6xoFTMC6ysf_a-86" style="edgeStyle=orthogonalEdgeStyle;rounded=0;orthogonalLoop=1;jettySize=auto;html=1;exitX=1;exitY=0.5;exitDx=0;exitDy=0;" edge="1" parent="1" source="-SHN1Gf6xoFTMC6ysf_a-84">
          <mxGeometry relative="1" as="geometry">
            <mxPoint x="390" y="430" as="targetPoint" />
          </mxGeometry>
        </mxCell>
        <mxCell id="-SHN1Gf6xoFTMC6ysf_a-84" value="" style="shape=image;verticalLabelPosition=bottom;labelBackgroundColor=#ffffff;verticalAlign=top;aspect=fixed;imageAspect=0;image=data:image/png,iVBORw0KGgoAAAANSUhEUgAAADEAAAAtCAYAAAAHiIP8AAAZNUlEQVRoBdWZZ3OUZ7au/Rfm0z7nTNh7PA6AMRkTlAMIG3swYGwwORkQIIIEyq1upY5SS63OuaUO6qBuJYTIIKGMIhKSAEkEg7PHM3X25+vU29gWdWr+wP5wV1d1qH6u515rPWs97xsxMTHDb7zxBv9T9ev630A5sYHKR5v4yrCcFYl/Yt3aBaxd9yZxMW8Tv24BaYlLObwzhQuH/4429xh+RR63LXJG3GqmAhpmQjqeNpl51mrjeauDry+5+PZqHd/f8PHPzgj/t7uJn+808POdMD92NPD9LT/f3/Dzst3Dk2YHj8IWxjw1dBulNMtzqMjYz7HPkjm280M+3xRH3Kp3iVm3kPikZSxb+SbvLPojn+zeQGbV6d82/w0qJj5EOpbKhlN/JnnjKlJSl7Nu/ZskrH2bjWvfY/+OFEqyDxIyS7nX7Gas1ctkay0PG63MNVl53mThxSUHLy47eXm5lm/a6/j+upd/dDbw330t/HdfK790NfNLVys/3w3z3Z16vrvl45urnijwdMDAkLOSu4ZS2pQFVJ4+wNldm8k58gUnPv+Ij9YvYeXCP7NyyZssXPR/eHvhH1mybgFZFWfnIQQnysdT+TjrTeKSlpCYtJTkhIV8lLKUL7bEkXNqJ7WaQjoazIy3upkI25gK23kUsfO0xcnXbbW8vOLm5ZVavhZA2mv5/qaPn7sa+Fd/C//qb+WX7gg/3w3x4x3BBS/fXfPwTbub58JmBM1MePX0WZQ0y/OwF5zBI8snoClDkrGfzzd+QMLqd4hZvZDly//G39753yxZ9S4bP0uYh1CMp6J8mMKe8oWsjXuL9esXkJq4iN07kjh1ZCvywuNcqlMx3FbH/SYno349D4JGHoVNzDZZedpi50Wbk2+u1PKi3cWL9lq+u+Hll+4w/+xr5l+CE92N/NgR4OeOAD/crOdlex0vWl08a3IyE7LxKGRlst7IUJ2WwXoLY80eukN29MXnObAlnrTY94lZtYCVKxaweMl/8taC/8WymHdeg5hIRfVoA1+WLmTF6v9k9cq/kbZhCft2pnD2+A70iiyuelUMhE1MROxMBM1MBgzMRmxRzUUsPG+x8eKyK+rGt9c8/HDLxy89Yf7Z28wvPYIa+akzyE+3A/xwvT4aci9aXDwL23gSsjEbsvEk7ORpi4fZS37Gm9z0NzjwqAvJ2PMRn25YRcK691ix7G2Wr3iLJcveZHXMgnmIiulNFA8nkpz+R5avfJOYtQtITlzE1k/WcHz/R1gqL3DVI6PPr+FBg5UHAoTfzOOQnScRR3QhL5ocvLxUiwAgJLQA8bOw6K6GqH7oCPDdTS/fXvfwjZA3rU5eNL/67ZMGK3MhO3NhJ7NhJ9MNTsbDdQyFnTQZypFk7GbPlnhS45awbu0ili97i9WrF7FqzWtOyKY3UtybQurB/yJWCKXkJcTGLSA1aRFf7U7GoT7LJaeEHl8FE0EDD/wGpvxGZhqsPGu087zRxstWF99deRXr31338POdAP/oCEbzQHDgh9v1/HhLCCMnT5ssfN1k5VnEwtOwJboRsxEHsxEnjxuEXHNwP+zkXsBOu6UCxYXD7N+ayIb4JcStW8yqFQLEQpYtf3PeCcVUKrlt8cRv+zMJ6xeSkrSYuPiFpCa9x4l9KdhUGbQ6xFGI8aCBhxE7DxtszIQdfN1ax8u2Or657OXHG0F+vBHghxs+frzl46eOAD/dDUaTWQAT3v/+uo+XVzy8aKvjabODJ40O5hqdzDW5mG1y8bjRwcOIg9GgjR6vmTazirIz+znwaQKbk1cRu2YRq1e9zeoPFrJy1VuvQUxv4OKlGOI/+xMJMYtISXqf2PgFbEx5n5MH0nCoz9NiE9HrUTLRaGa61cXDJgePIw6ettTyos3Nt1d8/HQrxD8E3Q7yc0eQnwR1ChUpEM0F4f1fOiP8oyPCN1e8PLtUy1yzk5lGB7MtLh63uHjU7GAq4mDQZ6bDqeWSWUnZmX3s+ySWrWnrSFi/OBpSH3zw/zkhm06jqCue5H1/Yf3ad0lOWkxsvODIIk4dSsNZdZ4mSyF3PQqGAjUM+Grod6sZ8VbzIFDDdEjPXJOFZ5fsvLxcx3fXfPx4O8R31/18fzPwu3644eebdg+zTfZoVZtttjLdYGTCr2XMX8OIv5qJiJHxsI0et57rlkraTEo0+Sc5sCWRTzeuISVuGeuFvFj+FstXvD3vhHIyiaKeODYc+Stx6xe+yomE94iPfZszJzZj12cSshfQZC3CXnISWfo2ig9+TPnhT5Ef244240vqxSe5a5Qw4VXzKKznccTE44iRuWYLc01mpoJa+q1ltJafRZv+GaqjWzCc34/m3F6kx7ZTkbET3cV9eErP0uPVcteno92uijphL7nIka0pbIp7n+SYpcSsWsjKZe+wctXC1yAmkpCPbmRbwbvExP8XKQnvsW7t28St/xvZZ7djN13AojlDUcY2LuzZwNkdCWR9kcKpT2LZn7CU3TGLOJS4mPL9H9JUmkGntpBRp4JJbxXT/hpGXUr6zaWERcdQHtjMqbRV7Fv3LvtiFnF801rObktCcmhrVNk7N1J24nNCWjGXa9W02FS4lSLO7v6ETTGLohBxaxazds0i1qx9fx5CMZZCxeRGjrtXsvbD/yA+dgErV/6FpNh3kIqPYDFkknv27+Qe+Yha8WmuaSR0msro0IlpV16gXvQVmmNbUR/aguXkTlpLTkchZhsMzIVNjDmVXFNk4cs+gPXMLlwXD+LN+4qW8kw6dBIGbAoGnRV0m2SEy7IoO7wV0ZHtuFS5hAxl1FeXID65j4/jl7IhdgkJ65fywZqFrPtgyTyEfDQF6UQyJQNpbE5/hw/W/o2Vq/7Clo9Woqs8T4XsK3LSN2MtSqe9SsxVZT43lTl0q/PpUOfQWnqKQN5hwuIThMXpNJdmMOiURw8+oRUZ96m5WZ3HFWUWN7T5tFdeoLHkJFcUZ+nW5NGtzedmxUVuqwvo0kmj/ZP+wlGqs7/CrcqnQS+juvAMOzatY1PCUuJjlrJ27UJiXoeQjaUgvZ+K+vGHfKVdyurYPxEXu5jD+9KwGbJRlx+mumA/7uLTmDIPYDizF9mBrZzdmszp7alkfZ6G8vA2jOk7iBSn06Y4z/XKi8w1GvmmzcGwS0anrpA+axntikxsJ7/AemwnlXu3IN3zMeW7N6M7tgtrxiFsGUeJFF8kJL1AXckZgtUiWh1VONXFHN7xIWnxy4hZt4T4uMWsXf/evBPS0VSkoymopjeQ6VvDmtQ/kpq6gjMnt1FrycelPY9XmYEley/5u1LJ3JFExp5PSE1cy5Jli/li2xZqK0qxZR+lqfgk19U5tMnOMeWr5kmDgU5NAXdqCpjwV9NWepraU7toVxdTdPIIq5ctZcnChexITuL8Z5+Qt/1DtCd2E5FlccUgoc1STpujCp9OSvruLSTFLiEudikbkpYSG790HqJ8NIXykWQqpjdyxr+GVRv/g7QNS8nM2I7bWkijs4h2YwGO/IPI07ejOL4DZ34GNVknkJ87Rl1pHjc0pXRoRXSbRFxXX+RaRTYP63VMuau5oy7gVlUuox4VA9YSejRFdOvLiChFyDJOUHDwAMr040gP7qby6C6s5w/RrMpmoF5DR52adqeagFHBid0fkxq/lLi494ldv4i45OXzELKxVOT3BSfSOOZdSsKuv7Jxw2IunNmBzyHmqq+c7lop1w0FXDVLuFpTyBXZOToqs7mryee28iJ3pJkMG4rpM4ppLj/NgE3K46CJKbeWTo2YG+pcei0l3K9XM2pX0aMqoktVSJ+2mI7KfG4ocmmX5XFTU8odk5Qehzx6ZvT7dVxzVhGxVnBq/xY2JCwhKWkF8TFLOHloyzyEYigV2WgC0skULjYksHnfu6Rteo/ci7sJe+R0BqsZ8qsZrVcz5tcxFqhhMqzjYUQfTdo+Uwm9xlJGbHI6qwtolZ1lIqBhLmxjut5Cp0nO1coCBqxSRpxK7gnDlUnKiFXBlFfDlE/DpEfNpLuaCZ+WsXodE34d0xErg34DN13VtDjVnDu2g4S499mcto7sg59hyEyfhygbSUQ2loRqeDOSmo/YlrKQbR+vQFJ8mEafgrshLWMtQhuu5VGTmcctVmZahcHIEF3s/foqHgS1jNSpuKsTc1Wdy0RQw7NGG3MRB3fNCq6pi+jSlzJeJ5wdOqbqtUx4qpn01fA4ZGS2wcRcyIjQ1j9pcb4aW5sdDAVNXHepaXZUkJOxm9SEpRzf9QkVp/eT9VHiPIRkNIny0VTUfVsQZSVwaMV77N28ipLivYR9pXQFtDxocfK40c5syMxMUM9c2Mhcg/DnBmZDhuhCxt1VdOlLuKUVM+7XMCe8HzDSa1VyW1dKr0XBqLuKWaF7bbEzGzYzEzLyJGxmNmhgLmh41RVfcvOszcPMpToGAnrarDJC5nKKsg6w8+8x5B7ajv7UQWpPHJyHKB9OQzKchGogDWf1Z2g+/ZiMtLUoiw7grxVx06NiPGiKTl9zfhOz7hqe1ht4FjQyF9QzU6/nsV/PQ5+WHkM5/c5KpoWDLqDjSdDAfY+W29pSeqxKxtzV0V1/ecnFi2Y7X0csvAhbeR4w83XAzLMGW3SmEDraqSYHXW41Yb0Er05Med5Rjn2xkarMw9y1VHC5IPt1iGRKhxMoG0vA33iIa5lnsB3dibbkBE5bLpfsIgZcCkZcVUx7tcwIqtfystHC8wZjdMcfBXWMe6u4ay5jPKjnSaON71od/Nhey9Mm4ayooduqYsKnYy5oRBiiXg1GVl5GrHwbtvPMZ2CmVtgUKxN+EwNuDTdMMgLqAmzKi+iVF1DlncSdn8FEfQ0dVbLXIRIpH06k5H4c1pufc112jluFF7HI0zHrz9BgyOaWuYR79spoHD+sfxUqzyImnkUMzAZ1PApoGalVcEtbyGCtMgr2zxtCW97IhEfHoFVFt1HOqKuauZDwOwsvhdlcGGubXoE8E6bFWj2PvCbu1xu466ygtUaCW5GDrvwcFk0+LbVVtFcU8CJoYqxW9xrEUAJlw4mUDscjH9hAwH2EDlURdYpTmDQnqK+5wFVzMX0OJaN1FUz5a5gJG5ht0PMkouNZxMjTBgMdFbnoD23DlbGfQV0xD+wV9OmkNOafxJW+m9D5dO7KxTwPCWFj4utGKy+abTxvtPC0wcSMT890nZZxt45BTw03LXIi1SIciovo5JnYawpp0BVxz63hSdjOZN1rEGVD8fymopE4qjq30V5XQKQyH5P6OAHtBdp0BdyyFjPkrOCBr5rpkI6HDVrmmvQ8azTxNKCnXXQK3Rcfc2TZ26iP7KCt7ALeU/s5sOSvbH/nz2g+205Txglm3DpeNFh4HjbxJPyqODyq1zLtrWGyTsuoS0OXRcFVXQmNNWIs8kxqpOdxa8WMtTp40RnhfoOH27WV806UDiYhqGwwCclQPCWDKYQuX+SyuRRTxbFoOF01FdFpK2ewTs2EMAhFZwY9M7868TxooF18muZzhwik70O+PY3qvdvQ7d+B6egeQlmnuHw2nYYTB5iyV/FN2MHzkImn0eJgjObalKeG8Tot9xxqOswyrpukhGskmOUX0Msyaa+r5kVPG9NXPAwF3IQaxfMQZYMpvFIq5YOJFI8k4uw6R9irRK8+TdCYzU1LKT1OJUP1aiYatDxsMjLTZGC2USi3QiXSM+5QcFeaw6BCzISpggFtOUMmBdMuLeNaBXcLs+mTi3no0vLMb+FZ0MwTASJk4oFXy7TfyP16PQNCgXBVcNOmIFRTjFWVh6Uyj4hdSrOllPsRF1ddarRXDv97iLLBZIqHY9F27iboLcOhysSvz+KmXUGPt5LhUDVTzSYetph5JEA0G5iJCOeBjoc+DVMeoV8yMhuw8EQ4U+r1PPToGLdrGLfpeFxrYqbOwJxXADdG5w3hgJtptPEwYuVB2M5gwEyXUJlscoI1YmyV+RhVOTRYyjDmZ3DdqMXty6S8b/M8ROm9ZH5T8UAy4sFEyrs3UKPfi7noBN7qTK7ayugOqBlt1jPZYuLhJQszbRZmWvQ8CuuY9GsYr6tkxK5i2FHJdL2wwzYmXDXRajPh1DJqrWbcVs20Q8PDOh0zfgNPmizMNdt41GxnWrhcbhJuOkx0u6u5alFQXy3Gqs6jqvgkPsVFrhtEuO0nqejYRtFg7DxEyUASUfUnUtKXhOReIpLBFEraNyA3bMdZeYZWo4gOt5ShUBUTzUYmm408ajUz3WiI9k/DLjn3hJyxljPiUDIbMDMbsjPpNfLQa2KyVseQVcWQRcG4rYJxp5oHHi2Pw+YoxHSTnalLLqZaXQwHTXTVVtFmlONVi7Go8tGYj6Ns3Iri8iZkvR9SNJyIpD9+HkJwQYAoFiAEDSZQPJCEUKkkTRswVBwlosvnpr2UPq+K0bCO8QZ9FGCsvopeSyldBgn3LFLGHCru2yuYsFYy4zEz4dIxpFcyZqpk3KHhQa2WMWc1g7aK6E34fU9N9Gp/KmLlfqON0UYHwyETnXWVtBjL8VSJMcpzqHQfoeheCvlD6ykaiKN0QIB47UL5NycEiOKBBIrvxSEWvjSURFF7CqqaL6mvyqFFX0CHQ8agX8NwfTXjoRqG3Eq6jRJuV4u4WSnikug8/vRDeA/uJXjkIIGjh/Ht30/w0CFazpziVmkR/aYqxur0jHm03BdKa8jIZIOR+w1mhhvM9Pv03HJV0KQvo7aiAI3sHOqGA9E1ifrjEffFU9yXgKTv9QawLwFxb/wrDcQiGYinSHBiKIGizmRKDVupU14gpHlVpfo8avrdSoZ9KkZ9Kjq1Rdgy9lH4cSKStGQMW7fi2v451g+3Ytzwdzyf7iT85SF8X+zFvH0nhi/3EMjMoENTzJivKtosjof0jDWYGQwauOvWcM2uJCycEdIsZOUnqWj7EtFgDKLeeIp646JrlfS9Fk6/hZLghKQ/DklvHEX98YgG4igajKOwbhNa6TFCVTm0akTcscvo91Uw4JEz4lPSby+nXZFDfe4pIufP0H4ig1vHztKXkcPAuXxGMkUMZYm4lyNmqFxJV3k5HTIJPbpSJuqro237WEjLcMBAt7uK62YZrfpSvBX5VBWeRlqejurqbgrvxSLuTUTcK2z6v3FC8qs94v44xH2xSIQv9sVH6QuvpCBRbqFOepawModWbQGdLin9PgXDfqHD1TDgUNKhK6dbXU5fWTHdhfn0FuTRLypksEjEmKycaYOGhy4TUx4L47VaJoVQCmt5ENYwGqym11XJdVMZLZoiAoo8DCWZlGV9hUp2BuWVfQihJOlLRiIUn1/167PGN+ZDSQipgTjEQm70JkVV1J8Upc51JqCS7CMgv0BjVTbthkI6nWUM+isZ9lVwz6Wky1jGFUUut5T59FQX06UspFOaR7+6mEG9lCGLkiGnmiGnhnGvgfF6PSM+NcP1lfS5ldy2lHNZK6GxSkRt2UUUuccpPncIXeUFlO17KOiPoSjqwL+BEFwQcqK4L5HiPmHRSRT1J1DUn0hhfyIF92IpvB5HftlHWMWnCaou0KzJ44ZZQk+dnP5aOb32crospdyozOOWMpcuTRG91UX0qAoY0JYwKIykxjL6jVL6zXKGhQrlVNNjk9HjktPlknHDXEprtQifLBtd4WkKzu5FmpuOXS+i4soe8vrWIoqGkhBSr/S7E79BCIlSHN35ZER9iRQMJFDYF0ehsAMdcWRKk5Fn7aNOfpbG6lxuWCR01cmiIL1OKd1mCR0a4SIsm9tVedwzlDBmkjHpquSBu4oRm4xenYQujZgeXRm9xjJ6rOX0OGXRqnfVWEqkugBr8XlKTu+n4OwBzPICvNYyVO27yetbQ2FPHKLuef0O8Xtl6o1HIhD2JVDUG4OoJx5RTwKi/hhEnYkUVm6m4MSnqHL24VdlcllXQKdTGr3y7/coGRTKr7U8ekk2aJczUVvFjNfA03ozc8Lh12Bh0q9l2Klk0K6g11pGr11wQsUtm5xLWmF2uEDZ+UPkHtuFRpxJRCsn6ChDdmUvOf3rKehdj6g7BlF3bFS/Qwhx9htIUV8sot4kJD2p0ev+IiHMRuIo7k9Gpt+B7Mwe8o58gib7AAFlFpd0hdy2lzEgjLD+ah7Ua5gS+qiQnimvnrl6My+ER1n1whxtiT7jmw4amazXM+qppr+2kltmKe3GMvyqPCqzj5B1ZAey3OP4a0q5ZqghbFegvLKXPGEzhcrZE/+75iF6hA9+UzzirkRK7yYjHoglpz+G042rOVi5nArVIeyS85Sm7yB73ybUF/fjKssgrLrIHXMpIx41973qaN0XLgRGnFVM1+qY85iineyD2hru19Vw36Njwic8Ka3mjuWVA15FDuqLR8k5+BklZ47hUUu4Yq3gpsNEg1VOdfN+iu7FUtCzDlFPHGIhpHri5tsOIe5f0SVEX0VdieT3xnO8aTX7Mj9gT9wHbFu6BG3hSYKaAsxFGRQe/pTzu1KjQFXn9xGUZXJNJ6bbIqXPrqDPIqffKOeeXs6QTsa9GikDehl9JuEzFT0WJbdNUkLKXMwFp5BlHCDrwFZKTh2kTinimlVNV52Jbq8Ov7qEXV8kc162Bdm17dENz++JJ7/rV4g//OEP//jVkt+o/ke9Cuv/f7Q3Dlq7dpkoAAAAAElFTkSuQmCC;" vertex="1" parent="1">
          <mxGeometry x="290" y="367.5" width="49" height="45" as="geometry" />
        </mxCell>
      </root>
    </mxGraphModel>
  </diagram>
</mxfile>
